{
.appVersion = "3223";
classes = (
{
automatic = 1;

glyphs = (
{
glyphname = A;
layers = (
{
anchors = (
{
name = bottom;
position = "{282, 0}";
},
{
name = ogonek;
position = "{555, 0}";
},
{
name = top;
position = "{322, 702}";
}
);
background = {
anchors = (
{
name = bottom;
position = "{282, 0}";
},
{
name = ogonek;
position = "{555, 0}";
},
{
name = top;
position = "{322, 702}";
}
);
paths = (
{
closed = 1;
nodes = (
"319 719 LINE",
"93 158 LINE SMOOTH",
"63 83 OFFCURVE",
"37 34 OFFCURVE",
"-13 33 CURVE",
"-14 0 LINE",
"169 0 LINE",
"171 44 LINE",
"96 40 LINE",
"108 62 OFFCURVE",
"115 77 OFFCURVE",
"127 109 CURVE",
"167 216 LINE",
"423 222 LINE",
"452 128 LINE SMOOTH",
"463 91 OFFCURVE",
"475 35 OFFCURVE",
"400 33 CURVE",
"399 0 LINE",
"616 0 LINE",
"618 44 LINE",
"553 40 LINE",
"556 70 OFFCURVE",
"542 122 OFFCURVE",
"532 150 CURVE SMOOTH",
"341 719 LINE"
);
},
{
closed = 1;
nodes = (
"321 539 OFFCURVE",
"334 499 OFFCURVE",
"347 459 CURVE SMOOTH",
"412 259 LINE",
"183 259 LINE",
"263 468 LINE",
"278 505 OFFCURVE",
"292 543 OFFCURVE",
"307 580 CURVE"
);
}
);
};
layerId = UUID0;
paths = (
{
closed = 1;
nodes = (
"319 719 LINE",
"93 158 LINE SMOOTH",
"63 83 OFFCURVE",
"37 34 OFFCURVE",
"-13 33 CURVE",
"-14 0 LINE",
"169 0 LINE",
"171 44 LINE",
"96 40 LINE",
"108 62 OFFCURVE",
"115 77 OFFCURVE",
"127 109 CURVE",
"167 216 LINE",
"423 222 LINE",
"452 128 LINE SMOOTH",
"463 91 OFFCURVE",
"475 35 OFFCURVE",
"400 33 CURVE",
"399 0 LINE",
"616 0 LINE",
"618 44 LINE",
"553 40 LINE",
"556 70 OFFCURVE",
"542 122 OFFCURVE",
"532 150 CURVE SMOOTH",
"341 719 LINE"
);
},
{
closed = 1;
nodes = (
"321 539 OFFCURVE",
"334 499 OFFCURVE",
"347 459 CURVE SMOOTH",
"412 259 LINE",
"183 259 LINE",
"263 468 LINE",
"278 505 OFFCURVE",
"292 543 OFFCURVE",
"307 580 CURVE"
);
}
);
width = 631;
},
{
anchors = (
{
name = bottom;
position = "{300, 0}";
},
{
name = ogonek;
position = "{600, 0}";
},
{
name = top;
position = "{346, 700}";
}
);
background = {
anchors = (
{
name = bottom;
position = "{300, 0}";
},
{
name = ogonek;
position = "{600, 0}";
},
{
name = top;
position = "{346, 700}";
}
);
paths = (
{
closed = 1;
nodes = (
"317 718 LINE",
"94 183 LINE SMOOTH",
"68 123 OFFCURVE",
"47 69 OFFCURVE",
"-8 69 CURVE",
"-12 0 LINE",
"202 0 LINE",
"207 80 LINE",
"133 77 LINE",
"146 100 OFFCURVE",
"162 140 OFFCURVE",
"169 158 CURVE",
"188 205 LINE",
"407 209 LINE",
"424 154 LINE SMOOTH",
"440 104 OFFCURVE",
"438 66 OFFCURVE",
"382 66 CURVE",
"378 0 LINE",
"646 0 LINE",
"649 77 LINE",
"592 74 LINE",
"590 104 OFFCURVE",
"575 153 OFFCURVE",
"569 173 CURVE SMOOTH",
"384 718 LINE"
);
},
{
closed = 1;
nodes = (
"319 505 OFFCURVE",
"332 453 OFFCURVE",
"346 405 CURVE SMOOTH",
"385 280 LINE",
"217 280 LINE",
"268 410 LINE",
"293 472 OFFCURVE",
"309 519 OFFCURVE",
"315 542 CURVE"
);
}
);
};
layerId = "6B2A2AD0-3CEC-4B3D-96BE-6A11A3496094";
paths = (
{
closed = 1;
nodes = (
"317 718 LINE",
"94 183 LINE SMOOTH",
"68 123 OFFCURVE",
"47 69 OFFCURVE",
"-8 69 CURVE",
"-12 0 LINE",
"202 0 LINE",
"207 80 LINE",
"133 77 LINE",
"146 100 OFFCURVE",
"162 140 OFFCURVE",
"169 158 CURVE",
"188 205 LINE",
"407 209 LINE",
"424 154 LINE SMOOTH",
"440 104 OFFCURVE",
"438 66 OFFCURVE",
"382 66 CURVE",
"378 0 LINE",
"646 0 LINE",
"649 77 LINE",
"592 74 LINE",
"590 104 OFFCURVE",
"575 153 OFFCURVE",
"569 173 CURVE SMOOTH",
"384 718 LINE"
);
},
{
closed = 1;
nodes = (
"319 505 OFFCURVE",
"332 453 OFFCURVE",
"346 405 CURVE SMOOTH",
"385 280 LINE",
"217 280 LINE",
"268 410 LINE",
"293 472 OFFCURVE",
"309 519 OFFCURVE",
"315 542 CURVE"
);
}
);
width = 667;
}
);
leftKerningGroup = A;
rightKerningGroup = A;
unicode = 0041;
},
{
glyphname = Aacute;
layers = (
{
background = {
anchors = (
{
name = bottom;
position = "{282, 0}";
},
{
name = ogonek;
position = "{555, 0}";
},
{
name = top;
position = "{322, 702}";
}
);
paths = (
{
closed = 1;
nodes = (
"319 719 LINE",
"93 158 LINE SMOOTH",
"63 83 OFFCURVE",
"37 34 OFFCURVE",
"-13 33 CURVE",
"-14 0 LINE",
"169 0 LINE",
"171 44 LINE",
"96 40 LINE",
"108 62 OFFCURVE",
"115 77 OFFCURVE",
"127 109 CURVE",
"167 216 LINE",
"423 222 LINE",
"452 128 LINE SMOOTH",
"463 91 OFFCURVE",
"475 35 OFFCURVE",
"400 33 CURVE",
"399 0 LINE",
"616 0 LINE",
"618 44 LINE",
"553 40 LINE",
"556 70 OFFCURVE",
"542 122 OFFCURVE",
"532 150 CURVE SMOOTH",
"341 719 LINE"
);
},
{
closed = 1;
nodes = (
"321 539 OFFCURVE",
"334 499 OFFCURVE",
"347 459 CURVE SMOOTH",
"412 259 LINE",
"183 259 LINE",
"263 468 LINE",
"278 505 OFFCURVE",
"292 543 OFFCURVE",
"307 580 CURVE"
);
},
{
closed = 1;
nodes = (
"451 855 LINE SMOOTH",
"495 883 OFFCURVE",
"483 909 OFFCURVE",
"476 917 CURVE SMOOTH",
"471 923 OFFCURVE",
"449 943 OFFCURVE",
"411 908 CURVE SMOOTH",
"284 790 LINE",
"305 762 LINE"
);
}
);
};
components = (
{
name = A;
},
{
name = acutecomb.case;
transform = "{1, 0, 0, 1, 239, 2}";
}
);
layerId = UUID0;
width = 631;
},
{
background = {
anchors = (
{
name = bottom;
position = "{300, 0}";
},
{
name = ogonek;
position = "{600, 0}";
},
{
name = top;
position = "{346, 700}";
}
);
paths = (
{
closed = 1;
nodes = (
"317 718 LINE",
"94 183 LINE SMOOTH",
"68 123 OFFCURVE",
"47 69 OFFCURVE",
"-8 69 CURVE",
"-12 0 LINE",
"202 0 LINE",
"207 80 LINE",
"133 77 LINE",
"146 100 OFFCURVE",
"162 140 OFFCURVE",
"169 158 CURVE",
"188 205 LINE",
"407 209 LINE",
"424 154 LINE SMOOTH",
"440 104 OFFCURVE",
"438 66 OFFCURVE",
"382 66 CURVE",
"378 0 LINE",
"646 0 LINE",
"649 77 LINE",
"592 74 LINE",
"590 104 OFFCURVE",
"575 153 OFFCURVE",
"569 173 CURVE SMOOTH",
"384 718 LINE"
);
},
{
closed = 1;
nodes = (
"319 505 OFFCURVE",
"332 453 OFFCURVE",
"346 405 CURVE SMOOTH",
"385 280 LINE",
"217 280 LINE",
"268 410 LINE",
"293 472 OFFCURVE",
"309 519 OFFCURVE",
"315 542 CURVE"
);
},
{
closed = 1;
nodes = (
"465 854 LINE",
"498 873 OFFCURVE",
"523 909 OFFCURVE",
"500 943 CURVE SMOOTH",
"478 976 OFFCURVE",
"432 964 OFFCURVE",
"403 936 CURVE SMOOTH",
"281 818 LINE",
"315 770 LINE"
);
}
);
};
components = (
{
name = A;
},
{
name = acutecomb.case;
transform = "{1, 0, 0, 1, 236, 0}";
}
);
layerId = "6B2A2AD0-3CEC-4B3D-96BE-6A11A3496094";
width = 667;
}
);
leftKerningGroup = A;
rightKerningGroup = A;
unicode = 00C1;
},
{
glyphname = Abreve;
layers = (
{
background = {
anchors = (
{
name = bottom;
position = "{282, 0}";
},
{
name = ogonek;
position = "{555, 0}";
},
{
name = top;
position = "{322, 702}";
}
);
paths = (
{
closed = 1;
nodes = (
"319 719 LINE",
"93 158 LINE SMOOTH",
"63 83 OFFCURVE",
"37 34 OFFCURVE",
"-13 33 CURVE",
"-14 0 LINE",
"169 0 LINE",
"171 44 LINE",
"96 40 LINE",
"108 62 OFFCURVE",
"115 77 OFFCURVE",
"127 109 CURVE",
"167 216 LINE",
"423 222 LINE",
"452 128 LINE SMOOTH",
"463 91 OFFCURVE",
"475 35 OFFCURVE",
"400 33 CURVE",
"399 0 LINE",
"616 0 LINE",
"618 44 LINE",
"553 40 LINE",
"556 70 OFFCURVE",
"542 122 OFFCURVE",
"532 150 CURVE SMOOTH",
"341 719 LINE"
);
},
{
closed = 1;
nodes = (
"321 539 OFFCURVE",
"334 499 OFFCURVE",
"347 459 CURVE SMOOTH",
"412 259 LINE",
"183 259 LINE",
"263 468 LINE",
"278 505 OFFCURVE",
"292 543 OFFCURVE",
"307 580 CURVE"
);
},
{
closed = 1;
nodes = (
"396 811 OFFCURVE",
"453 847 OFFCURVE",
"489 914 CURVE",
"463 926 LINE",
"440 898 OFFCURVE",
"390 872 OFFCURVE",
"340 872 CURVE SMOOTH",
"289 872 OFFCURVE",
"242 898 OFFCURVE",
"223 926 CURVE",
"196 914 LINE",
"222 847 OFFCURVE",
"274 811 OFFCURVE",
"335 811 CURVE SMOOTH"
);
}
);
};
components = (
{
name = A;
},
{
name = brevecomb.case;
transform = "{1, 0, 0, 1, 156, 2}";
}
);
layerId = UUID0;
width = 631;
},
{
background = {
anchors = (
{
name = bottom;
position = "{300, 0}";
},
{
name = ogonek;
position = "{600, 0}";
},
{
name = top;
position = "{346, 700}";
}
);
paths = (
{
closed = 1;
nodes = (
"317 718 LINE",
"94 183 LINE SMOOTH",
"68 123 OFFCURVE",
"47 69 OFFCURVE",
"-8 69 CURVE",
"-12 0 LINE",
"202 0 LINE",
"207 80 LINE",
"133 77 LINE",
"146 100 OFFCURVE",
"162 140 OFFCURVE",
"169 158 CURVE",
"188 205 LINE",
"407 209 LINE",
"424 154 LINE SMOOTH",
"440 104 OFFCURVE",
"438 66 OFFCURVE",
"382 66 CURVE",
"378 0 LINE",
"646 0 LINE",
"649 77 LINE",
"592 74 LINE",
"590 104 OFFCURVE",
"575 153 OFFCURVE",
"569 173 CURVE SMOOTH",
"384 718 LINE"
);
},
{
closed = 1;
nodes = (
"319 505 OFFCURVE",
"332 453 OFFCURVE",
"346 405 CURVE SMOOTH",
"385 280 LINE",
"217 280 LINE",
"268 410 LINE",
"293 472 OFFCURVE",
"309 519 OFFCURVE",
"315 542 CURVE"
);
},
{
closed = 1;
nodes = (
"418 787 OFFCURVE",
"496 814 OFFCURVE",
"535 894 CURVE",
"481 934 LINE",
"453 905 OFFCURVE",
"417 879 OFFCURVE",
"359 879 CURVE SMOOTH",
"301 879 OFFCURVE",
"268 905 OFFCURVE",
"245 934 CURVE",
"185 894 LINE",
"213 814 OFFCURVE",
"287 787 OFFCURVE",
"353 787 CURVE SMOOTH"
);
}
);
};
components = (
{
name = A;
},
{
name = brevecomb.case;
transform = "{1, 0, 0, 1, 139, 0}";
}
);
layerId = "6B2A2AD0-3CEC-4B3D-96BE-6A11A3496094";
width = 667;
}
);
leftKerningGroup = A;
rightKerningGroup = A;
unicode = 0102;
},
{
glyphname = Abreveacute;
layers = (
{
background = {
anchors = (
{
name = bottom;
position = "{282, 0}";
},
{
name = ogonek;
position = "{555, 0}";
},
{
name = top;
position = "{322, 702}";
}
);
paths = (
{
closed = 1;
nodes = (
"319 719 LINE",
"93 158 LINE SMOOTH",
"63 83 OFFCURVE",
"37 34 OFFCURVE",
"-13 33 CURVE",
"-14 0 LINE",
"169 0 LINE",
"171 44 LINE",
"96 40 LINE",
"108 62 OFFCURVE",
"115 77 OFFCURVE",
"127 109 CURVE",
"167 216 LINE",
"423 222 LINE",
"452 128 LINE SMOOTH",
"463 91 OFFCURVE",
"475 35 OFFCURVE",
"400 33 CURVE",
"399 0 LINE",
"616 0 LINE",
"618 44 LINE",
"553 40 LINE",
"556 70 OFFCURVE",
"542 122 OFFCURVE",
"532 150 CURVE SMOOTH",
"341 719 LINE"
);
},
{
closed = 1;
nodes = (
"321 539 OFFCURVE",
"334 499 OFFCURVE",
"347 459 CURVE SMOOTH",
"412 259 LINE",
"183 259 LINE",
"263 468 LINE",
"278 505 OFFCURVE",
"292 543 OFFCURVE",
"307 580 CURVE"
);
},
{
closed = 1;
nodes = (
"372 767 OFFCURVE",
"425 797 OFFCURVE",
"456 863 CURVE",
"435 872 LINE",
"411 837 OFFCURVE",
"370 812 OFFCURVE",
"326 812 CURVE SMOOTH",
"283 812 OFFCURVE",
"241 838 OFFCURVE",
"223 869 CURVE",
"200 861 LINE",
"221 796 OFFCURVE",
"277 767 OFFCURVE",
"320 767 CURVE SMOOTH"
);
},
{
closed = 1;
nodes = (
"419 951 LINE SMOOTH",
"448 981 OFFCURVE",
"436 1001 OFFCURVE",
"430 1008 CURVE SMOOTH",
"425 1013 OFFCURVE",
"401 1026 OFFCURVE",
"379 988 CURVE SMOOTH",
"314 879 LINE",
"334 862 LINE"
);
}
);
};
components = (
{
name = A;
},
{
name = brevecomb_acutecomb.case;
transform = "{1, 0, 0, 1, 159, 190}";
}
);
layerId = UUID0;
width = 631;
},
{
background = {
anchors = (
{
name = bottom;
position = "{300, 0}";
},
{
name = ogonek;
position = "{600, 0}";
},
{
name = top;
position = "{346, 700}";
}
);
paths = (
{
closed = 1;
nodes = (
"317 718 LINE",
"94 183 LINE SMOOTH",
"68 123 OFFCURVE",
"47 69 OFFCURVE",
"-8 69 CURVE",
"-12 0 LINE",
"202 0 LINE",
"207 80 LINE",
"133 77 LINE",
"146 100 OFFCURVE",
"162 140 OFFCURVE",
"169 158 CURVE",
"188 205 LINE",
"407 209 LINE",
"424 154 LINE SMOOTH",
"440 104 OFFCURVE",
"438 66 OFFCURVE",
"382 66 CURVE",
"378 0 LINE",
"646 0 LINE",
"649 77 LINE",
"592 74 LINE",
"590 104 OFFCURVE",
"575 153 OFFCURVE",
"569 173 CURVE SMOOTH",
"384 718 LINE"
);
},
{
closed = 1;
nodes = (
"319 505 OFFCURVE",
"332 453 OFFCURVE",
"346 405 CURVE SMOOTH",
"385 280 LINE",
"217 280 LINE",
"268 410 LINE",
"293 472 OFFCURVE",
"309 519 OFFCURVE",
"315 542 CURVE"
);
},
{
closed = 1;
nodes = (
"418 759 OFFCURVE",
"469 793 OFFCURVE",
"504 873 CURVE",
"458 893 LINE",
"437 864 OFFCURVE",
"405 832 OFFCURVE",
"355 832 CURVE SMOOTH",
"305 832 OFFCURVE",
"273 863 OFFCURVE",
"250 893 CURVE",
"201 869 LINE",
"232 790 OFFCURVE",
"296 759 OFFCURVE",
"351 759 CURVE SMOOTH"
);
},
{
closed = 1;
nodes = (
"462 972 LINE SMOOTH",
"485 991 OFFCURVE",
"498 1030 OFFCURVE",
"472 1053 CURVE SMOOTH",
"448 1075 OFFCURVE",
"412 1062 OFFCURVE",
"394 1033 CURVE SMOOTH",
"320 918 LINE",
"357 884 LINE"
);
}
);
};
components = (
{
name = A;
},
{
name = brevecomb_acutecomb.case;
transform = "{1, 0, 0, 1, 179, 200}";
}
);
layerId = "6B2A2AD0-3CEC-4B3D-96BE-6A11A3496094";
width = 667;
}
);
unicode = 1EAE;
},
{
glyphname = Abrevedotbelow;
layers = (
{
background = {
anchors = (
{
name = bottom;
position = "{271, -187}";
},
{
name = ogonek;
position = "{555, 0}";
},
{
name = top;
position = "{322, 702}";
}
);
paths = (
{
closed = 1;
nodes = (
"319 719 LINE",
"93 158 LINE SMOOTH",
"63 83 OFFCURVE",
"37 34 OFFCURVE",
"-13 33 CURVE",
"-14 0 LINE",
"169 0 LINE",
"171 44 LINE",
"96 40 LINE",
"108 62 OFFCURVE",
"115 77 OFFCURVE",
"127 109 CURVE",
"167 216 LINE",
"423 222 LINE",
"452 128 LINE SMOOTH",
"463 91 OFFCURVE",
"475 35 OFFCURVE",
"400 33 CURVE",
"399 0 LINE",
"616 0 LINE",
"618 44 LINE",
"553 40 LINE",
"556 70 OFFCURVE",
"542 122 OFFCURVE",
"532 150 CURVE SMOOTH",
"341 719 LINE"
);
},
{
closed = 1;
nodes = (
"321 539 OFFCURVE",
"334 499 OFFCURVE",
"347 459 CURVE SMOOTH",
"412 259 LINE",
"183 259 LINE",
"263 468 LINE",
"278 505 OFFCURVE",
"292 543 OFFCURVE",
"307 580 CURVE"
);
},
{
closed = 1;
nodes = (
"253 -82 OFFCURVE",
"229 -105 OFFCURVE",
"228 -134 CURVE SMOOTH",
"227 -164 OFFCURVE",
"247 -186 OFFCURVE",
"272 -186 CURVE SMOOTH",
"297 -186 OFFCURVE",
"321 -164 OFFCURVE",
"322 -134 CURVE SMOOTH",
"323 -105 OFFCURVE",
"305 -82 OFFCURVE",
"279 -82 CURVE SMOOTH"
);
},
{
closed = 1;
nodes = (
"396 811 OFFCURVE",
"453 847 OFFCURVE",
"489 914 CURVE",
"463 926 LINE",
"440 898 OFFCURVE",
"390 872 OFFCURVE",
"340 872 CURVE SMOOTH",
"289 872 OFFCURVE",
"242 898 OFFCURVE",
"223 926 CURVE",
"196 914 LINE",
"222 847 OFFCURVE",
"274 811 OFFCURVE",
"335 811 CURVE SMOOTH"
);
}
);
};
components = (
{
name = A;
},
{
name = dotbelowcomb;
transform = "{1, 0, 0, 1, 183, 0}";
},
{
name = brevecomb.case;
transform = "{1, 0, 0, 1, 156, 2}";
}
);
layerId = UUID0;
width = 631;
},
{
background = {
anchors = (
{
name = bottom;
position = "{290, -198}";
},
{
name = ogonek;
position = "{600, 0}";
},
{
name = top;
position = "{346, 700}";
}
);
paths = (
{
closed = 1;
nodes = (
"317 718 LINE",
"94 183 LINE SMOOTH",
"68 123 OFFCURVE",
"47 69 OFFCURVE",
"-8 69 CURVE",
"-12 0 LINE",
"202 0 LINE",
"207 80 LINE",
"133 77 LINE",
"146 100 OFFCURVE",
"162 140 OFFCURVE",
"169 158 CURVE",
"188 205 LINE",
"407 209 LINE",
"424 154 LINE SMOOTH",
"440 104 OFFCURVE",
"438 66 OFFCURVE",
"382 66 CURVE",
"378 0 LINE",
"646 0 LINE",
"649 77 LINE",
"592 74 LINE",
"590 104 OFFCURVE",
"575 153 OFFCURVE",
"569 173 CURVE SMOOTH",
"384 718 LINE"
);
},
{
closed = 1;
nodes = (
"319 505 OFFCURVE",
"332 453 OFFCURVE",
"346 405 CURVE SMOOTH",
"385 280 LINE",
"217 280 LINE",
"268 410 LINE",
"293 472 OFFCURVE",
"309 519 OFFCURVE",
"315 542 CURVE"
);
},
{
closed = 1;
nodes = (
"265 -69 OFFCURVE",
"235 -98 OFFCURVE",
"233 -134 CURVE SMOOTH",
"231 -169 OFFCURVE",
"255 -198 OFFCURVE",
"291 -198 CURVE SMOOTH",
"327 -198 OFFCURVE",
"351 -169 OFFCURVE",
"353 -134 CURVE SMOOTH",
"355 -98 OFFCURVE",
"331 -69 OFFCURVE",
"297 -69 CURVE SMOOTH"
);
},
{
closed = 1;
nodes = (
"418 787 OFFCURVE",
"496 814 OFFCURVE",
"535 894 CURVE",
"481 934 LINE",
"453 905 OFFCURVE",
"417 879 OFFCURVE",
"359 879 CURVE SMOOTH",
"301 879 OFFCURVE",
"268 905 OFFCURVE",
"245 934 CURVE",
"185 894 LINE",
"213 814 OFFCURVE",
"287 787 OFFCURVE",
"353 787 CURVE SMOOTH"
);
}
);
};
components = (
{
name = A;
},
{
name = dotbelowcomb;
transform = "{1, 0, 0, 1, 201, 0}";
},
{
name = brevecomb.case;
transform = "{1, 0, 0, 1, 139, 0}";
}
);
layerId = "6B2A2AD0-3CEC-4B3D-96BE-6A11A3496094";
width = 667;
}
);
unicode = 1EB6;
},
{
glyphname = Abrevegrave;
layers = (
{
background = {
anchors = (
{
name = bottom;
position = "{282, 0}";
},
{
name = ogonek;
position = "{555, 0}";
},
{
name = top;
position = "{322, 702}";
}
);
paths = (
{
closed = 1;
nodes = (
"319 719 LINE",
"93 158 LINE SMOOTH",
"63 83 OFFCURVE",
"37 34 OFFCURVE",
"-13 33 CURVE",
"-14 0 LINE",
"169 0 LINE",
"171 44 LINE",
"96 40 LINE",
"108 62 OFFCURVE",
"115 77 OFFCURVE",
"127 109 CURVE",
"167 216 LINE",
"423 222 LINE",
"452 128 LINE SMOOTH",
"463 91 OFFCURVE",
"475 35 OFFCURVE",
"400 33 CURVE",
"399 0 LINE",
"616 0 LINE",
"618 44 LINE",
"553 40 LINE",
"556 70 OFFCURVE",
"542 122 OFFCURVE",
"532 150 CURVE SMOOTH",
"341 719 LINE"
);
},
{
closed = 1;
nodes = (
"321 539 OFFCURVE",
"334 499 OFFCURVE",
"347 459 CURVE SMOOTH",
"412 259 LINE",
"183 259 LINE",
"263 468 LINE",
"278 505 OFFCURVE",
"292 543 OFFCURVE",
"307 580 CURVE"
);
},
{
closed = 1;
nodes = (
"372 767 OFFCURVE",
"425 797 OFFCURVE",
"456 863 CURVE",
"435 872 LINE",
"411 837 OFFCURVE",
"370 812 OFFCURVE",
"326 812 CURVE SMOOTH",
"283 812 OFFCURVE",
"241 838 OFFCURVE",
"223 869 CURVE",
"200 861 LINE",
"221 796 OFFCURVE",
"277 767 OFFCURVE",
"320 767 CURVE SMOOTH"
);
},
{
closed = 1;
nodes = (
"348 882 LINE",
"284 991 LINE SMOOTH",
"261 1029 OFFCURVE",
"237 1016 OFFCURVE",
"232 1011 CURVE SMOOTH",
"226 1004 OFFCURVE",
"214 984 OFFCURVE",
"243 954 CURVE SMOOTH",
"328 865 LINE"
);
}
);
};
components = (
{
name = A;
},
{
name = brevecomb_gravecomb.case;
transform = "{1, 0, 0, 1, 159, 190}";
}
);
layerId = UUID0;
width = 631;
},
{
background = {
anchors = (
{
name = bottom;
position = "{300, 0}";
},
{
name = ogonek;
position = "{600, 0}";
},
{
name = top;
position = "{346, 700}";
}
);
paths = (
{
closed = 1;
nodes = (
"317 718 LINE",
"94 183 LINE SMOOTH",
"68 123 OFFCURVE",
"47 69 OFFCURVE",
"-8 69 CURVE",
"-12 0 LINE",
"202 0 LINE",
"207 80 LINE",
"133 77 LINE",
"146 100 OFFCURVE",
"162 140 OFFCURVE",
"169 158 CURVE",
"188 205 LINE",
"407 209 LINE",
"424 154 LINE SMOOTH",
"440 104 OFFCURVE",
"438 66 OFFCURVE",
"382 66 CURVE",
"378 0 LINE",
"646 0 LINE",
"649 77 LINE",
"592 74 LINE",
"590 104 OFFCURVE",
"575 153 OFFCURVE",
"569 173 CURVE SMOOTH",
"384 718 LINE"
);
},
{
closed = 1;
nodes = (
"319 505 OFFCURVE",
"332 453 OFFCURVE",
"346 405 CURVE SMOOTH",
"385 280 LINE",
"217 280 LINE",
"268 410 LINE",
"293 472 OFFCURVE",
"309 519 OFFCURVE",
"315 542 CURVE"
);
},
{
closed = 1;
nodes = (
"418 759 OFFCURVE",
"469 793 OFFCURVE",
"504 873 CURVE",
"458 893 LINE",
"437 864 OFFCURVE",
"405 832 OFFCURVE",
"355 832 CURVE SMOOTH",
"305 832 OFFCURVE",
"273 863 OFFCURVE",
"250 893 CURVE",
"201 869 LINE",
"232 790 OFFCURVE",
"296 759 OFFCURVE",
"351 759 CURVE SMOOTH"
);
},
{
closed = 1;
nodes = (
"398 924 LINE",
"333 1039 LINE SMOOTH",
"318 1067 OFFCURVE",
"287 1080 OFFCURVE",
"259 1059 CURVE SMOOTH",
"232 1035 OFFCURVE",
"243 1000 OFFCURVE",
"264 978 CURVE SMOOTH",
"358 890 LINE"
);
}
);
};
components = (
{
name = A;
},
{
name = brevecomb_gravecomb.case;
transform = "{1, 0, 0, 1, 179, 200}";
}
);
layerId = "6B2A2AD0-3CEC-4B3D-96BE-6A11A3496094";
width = 667;
}
);
unicode = 1EB0;
},
{
glyphname = Abrevehookabove;
layers = (
{
background = {
anchors = (
{
name = bottom;
position = "{282, 0}";
},
{
name = ogonek;
position = "{555, 0}";
},
{
name = top;
position = "{322, 702}";
}
);
paths = (
{
closed = 1;
nodes = (
"319 719 LINE",
"93 158 LINE SMOOTH",
"63 83 OFFCURVE",
"37 34 OFFCURVE",
"-13 33 CURVE",
"-14 0 LINE",
"169 0 LINE",
"171 44 LINE",
"96 40 LINE",
"108 62 OFFCURVE",
"115 77 OFFCURVE",
"127 109 CURVE",
"167 216 LINE",
"423 222 LINE",
"452 128 LINE SMOOTH",
"463 91 OFFCURVE",
"475 35 OFFCURVE",
"400 33 CURVE",
"399 0 LINE",
"616 0 LINE",
"618 44 LINE",
"553 40 LINE",
"556 70 OFFCURVE",
"542 122 OFFCURVE",
"532 150 CURVE SMOOTH",
"341 719 LINE"
);
},
{
closed = 1;
nodes = (
"321 539 OFFCURVE",
"334 499 OFFCURVE",
"347 459 CURVE SMOOTH",
"412 259 LINE",
"183 259 LINE",
"263 468 LINE",
"278 505 OFFCURVE",
"292 543 OFFCURVE",
"307 580 CURVE"
);
},
{
closed = 1;
nodes = (
"372 767 OFFCURVE",
"425 797 OFFCURVE",
"456 863 CURVE",
"435 872 LINE",
"411 837 OFFCURVE",
"370 812 OFFCURVE",
"326 812 CURVE SMOOTH",
"283 812 OFFCURVE",
"241 838 OFFCURVE",
"223 869 CURVE",
"200 861 LINE",
"221 796 OFFCURVE",
"277 767 OFFCURVE",
"320 767 CURVE SMOOTH"
);
},
{
closed = 1;
nodes = (
"337 863 LINE",
"338 874 OFFCURVE",
"352 883 OFFCURVE",
"369 895 CURVE SMOOTH",
"394 913 OFFCURVE",
"412 930 OFFCURVE",
"414 964 CURVE SMOOTH",
"416 1004 OFFCURVE",
"379 1045 OFFCURVE",
"309 1045 CURVE SMOOTH",
"242 1045 OFFCURVE",
"204 1009 OFFCURVE",
"201 975 CURVE SMOOTH",
"199 948 OFFCURVE",
"216 937 OFFCURVE",
"232 937 CURVE SMOOTH",
"248 937 OFFCURVE",
"264 947 OFFCURVE",
"264 963 CURVE SMOOTH",
"264 969 OFFCURVE",
"262 975 OFFCURVE",
"259 979 CURVE",
"262 993 OFFCURVE",
"284 1009 OFFCURVE",
"308 1009 CURVE SMOOTH",
"341 1009 OFFCURVE",
"360 984 OFFCURVE",
"358 957 CURVE SMOOTH",
"357 943 OFFCURVE",
"350 927 OFFCURVE",
"337 916 CURVE SMOOTH",
"319 901 OFFCURVE",
"297 887 OFFCURVE",
"296 863 CURVE"
);
}
);
};
components = (
{
name = A;
},
{
name = brevecomb_hookabovecomb.case;
transform = "{1, 0, 0, 1, 159, 190}";
}
);
layerId = UUID0;
width = 631;
},
{
background = {
anchors = (
{
name = bottom;
position = "{300, 0}";
},
{
name = ogonek;
position = "{600, 0}";
},
{
name = top;
position = "{346, 700}";
}
);
paths = (
{
closed = 1;
nodes = (
"317 718 LINE",
"94 183 LINE SMOOTH",
"68 123 OFFCURVE",
"47 69 OFFCURVE",
"-8 69 CURVE",
"-12 0 LINE",
"202 0 LINE",
"207 80 LINE",
"133 77 LINE",
"146 100 OFFCURVE",
"162 140 OFFCURVE",
"169 158 CURVE",
"188 205 LINE",
"407 209 LINE",
"424 154 LINE SMOOTH",
"440 104 OFFCURVE",
"438 66 OFFCURVE",
"382 66 CURVE",
"378 0 LINE",
"646 0 LINE",
"649 77 LINE",
"592 74 LINE",
"590 104 OFFCURVE",
"575 153 OFFCURVE",
"569 173 CURVE SMOOTH",
"384 718 LINE"
);
},
{
closed = 1;
nodes = (
"319 505 OFFCURVE",
"332 453 OFFCURVE",
"346 405 CURVE SMOOTH",
"385 280 LINE",
"217 280 LINE",
"268 410 LINE",
"293 472 OFFCURVE",
"309 519 OFFCURVE",
"315 542 CURVE"
);
},
{
closed = 1;
nodes = (
"418 759 OFFCURVE",
"469 793 OFFCURVE",
"504 873 CURVE",
"458 893 LINE",
"437 864 OFFCURVE",
"405 832 OFFCURVE",
"355 832 CURVE SMOOTH",
"305 832 OFFCURVE",
"273 863 OFFCURVE",
"250 893 CURVE",
"201 869 LINE",
"232 790 OFFCURVE",
"296 759 OFFCURVE",
"351 759 CURVE SMOOTH"
);
},
{
closed = 1;
nodes = (
"417 900 LINE",
"417 911 OFFCURVE",
"429 924 OFFCURVE",
"445 936 CURVE SMOOTH",
"464 951 OFFCURVE",
"485 965 OFFCURVE",
"487 999 CURVE SMOOTH",
"490 1052 OFFCURVE",
"449 1086 OFFCURVE",
"374 1086 CURVE SMOOTH",
"307 1086 OFFCURVE",
"267 1040 OFFCURVE",
"264 998 CURVE SMOOTH",
"262 971 OFFCURVE",
"282 950 OFFCURVE",
"311 950 CURVE SMOOTH",
"333 950 OFFCURVE",
"344 965 OFFCURVE",
"345 979 CURVE SMOOTH",
"346 992 OFFCURVE",
"337 1004 OFFCURVE",
"318 1004 CURVE",
"320 1013 OFFCURVE",
"335 1030 OFFCURVE",
"371 1030 CURVE SMOOTH",
"398 1030 OFFCURVE",
"418 1017 OFFCURVE",
"416 990 CURVE SMOOTH",
"415 974 OFFCURVE",
"407 963 OFFCURVE",
"399 953 CURVE SMOOTH",
"384 935 OFFCURVE",
"360 926 OFFCURVE",
"359 900 CURVE"
);
}
);
};
components = (
{
name = A;
},
{
name = brevecomb_hookabovecomb.case;
transform = "{1, 0, 0, 1, 179, 200}";
}
);
layerId = "6B2A2AD0-3CEC-4B3D-96BE-6A11A3496094";
width = 667;
}
);
unicode = 1EB2;
},
{
glyphname = Abrevetilde;
layers = (
{
background = {
anchors = (
{
name = bottom;
position = "{282, 0}";
},
{
name = ogonek;
position = "{555, 0}";
},
{
name = top;
position = "{322, 702}";
}
);
paths = (
{
closed = 1;
nodes = (
"319 719 LINE",
"93 158 LINE SMOOTH",
"63 83 OFFCURVE",
"37 34 OFFCURVE",
"-13 33 CURVE",
"-14 0 LINE",
"169 0 LINE",
"171 44 LINE",
"96 40 LINE",
"108 62 OFFCURVE",
"115 77 OFFCURVE",
"127 109 CURVE",
"167 216 LINE",
"423 222 LINE",
"452 128 LINE SMOOTH",
"463 91 OFFCURVE",
"475 35 OFFCURVE",
"400 33 CURVE",
"399 0 LINE",
"616 0 LINE",
"618 44 LINE",
"553 40 LINE",
"556 70 OFFCURVE",
"542 122 OFFCURVE",
"532 150 CURVE SMOOTH",
"341 719 LINE"
);
},
{
closed = 1;
nodes = (
"321 539 OFFCURVE",
"334 499 OFFCURVE",
"347 459 CURVE SMOOTH",
"412 259 LINE",
"183 259 LINE",
"263 468 LINE",
"278 505 OFFCURVE",
"292 543 OFFCURVE",
"307 580 CURVE"
);
},
{
closed = 1;
nodes = (
"372 767 OFFCURVE",
"425 797 OFFCURVE",
"456 863 CURVE",
"435 872 LINE",
"411 837 OFFCURVE",
"370 812 OFFCURVE",
"326 812 CURVE SMOOTH",
"283 812 OFFCURVE",
"241 838 OFFCURVE",
"223 869 CURVE",
"200 861 LINE",
"221 796 OFFCURVE",
"277 767 OFFCURVE",
"320 767 CURVE SMOOTH"
);
},
{
closed = 1;
nodes = (
"238 924 OFFCURVE",
"263 938 OFFCURVE",
"282 938 CURVE SMOOTH",
"321 938 OFFCURVE",
"341 894 OFFCURVE",
"392 894 CURVE SMOOTH",
"421 894 OFFCURVE",
"457 915 OFFCURVE",
"477 969 CURVE",
"457 979 LINE",
"439 952 OFFCURVE",
"420 936 OFFCURVE",
"395 937 CURVE SMOOTH",
"358 938 OFFCURVE",
"341 981 OFFCURVE",
"289 980 CURVE SMOOTH",
"258 979 OFFCURVE",
"217 950 OFFCURVE",
"201 911 CURVE",
"222 901 LINE"
);
}
);
};
components = (
{
name = A;
},
{
name = brevecomb_tildecomb.case;
transform = "{1, 0, 0, 1, 159, 190}";
}
);
layerId = UUID0;
width = 631;
},
{
background = {
anchors = (
{
name = bottom;
position = "{300, 0}";
},
{
name = ogonek;
position = "{600, 0}";
},
{
name = top;
position = "{346, 700}";
}
);
paths = (
{
closed = 1;
nodes = (
"317 718 LINE",
"94 183 LINE SMOOTH",
"68 123 OFFCURVE",
"47 69 OFFCURVE",
"-8 69 CURVE",
"-12 0 LINE",
"202 0 LINE",
"207 80 LINE",
"133 77 LINE",
"146 100 OFFCURVE",
"162 140 OFFCURVE",
"169 158 CURVE",
"188 205 LINE",
"407 209 LINE",
"424 154 LINE SMOOTH",
"440 104 OFFCURVE",
"438 66 OFFCURVE",
"382 66 CURVE",
"378 0 LINE",
"646 0 LINE",
"649 77 LINE",
"592 74 LINE",
"590 104 OFFCURVE",
"575 153 OFFCURVE",
"569 173 CURVE SMOOTH",
"384 718 LINE"
);
},
{
closed = 1;
nodes = (
"319 505 OFFCURVE",
"332 453 OFFCURVE",
"346 405 CURVE SMOOTH",
"385 280 LINE",
"217 280 LINE",
"268 410 LINE",
"293 472 OFFCURVE",
"309 519 OFFCURVE",
"315 542 CURVE"
);
},
{
closed = 1;
nodes = (
"418 759 OFFCURVE",
"469 793 OFFCURVE",
"504 873 CURVE",
"458 893 LINE",
"437 864 OFFCURVE",
"405 832 OFFCURVE",
"355 832 CURVE SMOOTH",
"305 832 OFFCURVE",
"273 863 OFFCURVE",
"250 893 CURVE",
"201 869 LINE",
"232 790 OFFCURVE",
"296 759 OFFCURVE",
"351 759 CURVE SMOOTH"
);
},
{
closed = 1;
nodes = (
"270 949 OFFCURVE",
"293 957 OFFCURVE",
"306 957 CURVE SMOOTH",
"338 957 OFFCURVE",
"361 925 OFFCURVE",
"405 925 CURVE SMOOTH",
"438 925 OFFCURVE",
"479 950 OFFCURVE",
"502 1019 CURVE",
"458 1043 LINE",
"444 1017 OFFCURVE",
"425 1000 OFFCURVE",
"405 1000 CURVE SMOOTH",
"365 1000 OFFCURVE",
"355 1032 OFFCURVE",
"304 1032 CURVE SMOOTH",
"268 1032 OFFCURVE",
"227 1000 OFFCURVE",
"209 951 CURVE",
"253 923 LINE"
);
}
);
};
components = (
{
name = A;
},
{
name = brevecomb_tildecomb.case;
transform = "{1, 0, 0, 1, 179, 200}";
}
);
layerId = "6B2A2AD0-3CEC-4B3D-96BE-6A11A3496094";
width = 667;
}
);
unicode = 1EB4;
},
{
glyphname = Acaron;
layers = (
{
background = {
anchors = (
{
name = bottom;
position = "{300, 0}";
},
{
name = ogonek;
position = "{600, 0}";
},
{
name = top;
position = "{360, 962}";
}
);
paths = (
{
closed = 1;
nodes = (
"317 718 LINE",
"94 183 LINE SMOOTH",
"68 123 OFFCURVE",
"47 69 OFFCURVE",
"-8 69 CURVE",
"-12 0 LINE",
"202 0 LINE",
"207 80 LINE",
"133 77 LINE",
"146 100 OFFCURVE",
"162 140 OFFCURVE",
"169 158 CURVE",
"188 205 LINE",
"407 209 LINE",
"424 154 LINE SMOOTH",
"440 104 OFFCURVE",
"438 66 OFFCURVE",
"382 66 CURVE",
"378 0 LINE",
"646 0 LINE",
"649 77 LINE",
"592 74 LINE",
"590 104 OFFCURVE",
"575 153 OFFCURVE",
"569 173 CURVE SMOOTH",
"384 718 LINE"
);
},
{
closed = 1;
nodes = (
"319 505 OFFCURVE",
"332 453 OFFCURVE",
"346 405 CURVE SMOOTH",
"385 280 LINE",
"217 280 LINE",
"268 410 LINE",
"293 472 OFFCURVE",
"309 519 OFFCURVE",
"315 542 CURVE"
);
},
{
closed = 1;
nodes = (
"564 922 LINE",
"544 962 LINE",
"353 875 LINE",
"173 962 LINE",
"145 921 LINE",
"332 770 LINE",
"352 770 LINE"
);
}
);
};
components = (
{
name = A;
},
{
name = caroncomb.case;
transform = "{1, 0, 0, 1, 100, 0}";
}
);
layerId = "6B2A2AD0-3CEC-4B3D-96BE-6A11A3496094";
width = 667;
},
{
background = {
anchors = (
{
name = bottom;
position = "{282, 0}";
},
{
name = ogonek;
position = "{555, 0}";
},
{
name = top;
position = "{335, 947}";
}
);
paths = (
{
closed = 1;
nodes = (
"319 719 LINE",
"93 158 LINE SMOOTH",
"63 83 OFFCURVE",
"37 34 OFFCURVE",
"-13 33 CURVE",
"-14 0 LINE",
"169 0 LINE",
"171 44 LINE",
"96 40 LINE",
"108 62 OFFCURVE",
"115 77 OFFCURVE",
"127 109 CURVE",
"167 216 LINE",
"423 222 LINE",
"452 128 LINE SMOOTH",
"463 91 OFFCURVE",
"475 35 OFFCURVE",
"400 33 CURVE",
"399 0 LINE",
"616 0 LINE",
"618 44 LINE",
"553 40 LINE",
"556 70 OFFCURVE",
"542 122 OFFCURVE",
"532 150 CURVE SMOOTH",
"341 719 LINE"
);
},
{
closed = 1;
nodes = (
"321 539 OFFCURVE",
"334 499 OFFCURVE",
"347 459 CURVE SMOOTH",
"412 259 LINE",
"183 259 LINE",
"263 468 LINE",
"278 505 OFFCURVE",
"292 543 OFFCURVE",
"307 580 CURVE"
);
},
{
closed = 1;
nodes = (
"519 921 LINE",
"504 947 LINE",
"327 850 LINE",
"160 945 LINE",
"141 916 LINE",
"324 773 LINE",
"326 773 LINE"
);
}
);
};
components = (
{
name = A;
},
{
name = caroncomb.case;
transform = "{1, 0, 0, 1, 81, 2}";
}
);
layerId = UUID0;
width = 631;
}
);
unicode = 01CD;
},
{
glyphname = Acircumflex;
layers = (
{
background = {
anchors = (
{
name = bottom;
position = "{282, 0}";
},
{
name = ogonek;
position = "{555, 0}";
},
{
name = top;
position = "{322, 702}";
}
);
paths = (
{
closed = 1;
nodes = (
"319 719 LINE",
"93 158 LINE SMOOTH",
"63 83 OFFCURVE",
"37 34 OFFCURVE",
"-13 33 CURVE",
"-14 0 LINE",
"169 0 LINE",
"171 44 LINE",
"96 40 LINE",
"108 62 OFFCURVE",
"115 77 OFFCURVE",
"127 109 CURVE",
"167 216 LINE",
"423 222 LINE",
"452 128 LINE SMOOTH",
"463 91 OFFCURVE",
"475 35 OFFCURVE",
"400 33 CURVE",
"399 0 LINE",
"616 0 LINE",
"618 44 LINE",
"553 40 LINE",
"556 70 OFFCURVE",
"542 122 OFFCURVE",
"532 150 CURVE SMOOTH",
"341 719 LINE"
);
},
{
closed = 1;
nodes = (
"321 539 OFFCURVE",
"334 499 OFFCURVE",
"347 459 CURVE SMOOTH",
"412 259 LINE",
"183 259 LINE",
"263 468 LINE",
"278 505 OFFCURVE",
"292 543 OFFCURVE",
"307 580 CURVE"
);
},
{
closed = 1;
nodes = (
"519 791 LINE",
"338 932 LINE",
"336 932 LINE",
"140 792 LINE",
"155 765 LINE",
"325 852 LINE",
"501 763 LINE"
);
}
);
};
components = (
{
name = A;
},
{
name = circumflexcomb.case;
transform = "{1, 0, 0, 1, 95, 2}";
}
);
layerId = UUID0;
width = 631;
},
{
background = {
anchors = (
{
name = bottom;
position = "{300, 0}";
},
{
name = ogonek;
position = "{600, 0}";
},
{
name = top;
position = "{346, 700}";
}
);
paths = (
{
closed = 1;
nodes = (
"317 718 LINE",
"94 183 LINE SMOOTH",
"68 123 OFFCURVE",
"47 69 OFFCURVE",
"-8 69 CURVE",
"-12 0 LINE",
"202 0 LINE",
"207 80 LINE",
"133 77 LINE",
"146 100 OFFCURVE",
"162 140 OFFCURVE",
"169 158 CURVE",
"188 205 LINE",
"407 209 LINE",
"424 154 LINE SMOOTH",
"440 104 OFFCURVE",
"438 66 OFFCURVE",
"382 66 CURVE",
"378 0 LINE",
"646 0 LINE",
"649 77 LINE",
"592 74 LINE",
"590 104 OFFCURVE",
"575 153 OFFCURVE",
"569 173 CURVE SMOOTH",
"384 718 LINE"
);
},
{
closed = 1;
nodes = (
"319 505 OFFCURVE",
"332 453 OFFCURVE",
"346 405 CURVE SMOOTH",
"385 280 LINE",
"217 280 LINE",
"268 410 LINE",
"293 472 OFFCURVE",
"309 519 OFFCURVE",
"315 542 CURVE"
);
},
{
closed = 1;
nodes = (
"563 821 LINE",
"375 971 LINE",
"356 971 LINE",
"144 821 LINE",
"163 781 LINE",
"356 867 LINE",
"535 779 LINE"
);
}
);
};
components = (
{
name = A;
},
{
name = circumflexcomb.case;
transform = "{1, 0, 0, 1, 114, 0}";
}
);
layerId = "6B2A2AD0-3CEC-4B3D-96BE-6A11A3496094";
width = 667;
}
);
leftKerningGroup = A;
rightKerningGroup = A;
unicode = 00C2;
},
{
glyphname = Acircumflexacute;
layers = (
{
background = {
anchors = (
{
name = bottom;
position = "{282, 0}";
},
{
name = ogonek;
position = "{555, 0}";
},
{
name = top;
position = "{322, 702}";
}
);
paths = (
{
closed = 1;
nodes = (
"319 719 LINE",
"93 158 LINE SMOOTH",
"63 83 OFFCURVE",
"37 34 OFFCURVE",
"-13 33 CURVE",
"-14 0 LINE",
"169 0 LINE",
"171 44 LINE",
"96 40 LINE",
"108 62 OFFCURVE",
"115 77 OFFCURVE",
"127 109 CURVE",
"167 216 LINE",
"423 222 LINE",
"452 128 LINE SMOOTH",
"463 91 OFFCURVE",
"475 35 OFFCURVE",
"400 33 CURVE",
"399 0 LINE",
"616 0 LINE",
"618 44 LINE",
"553 40 LINE",
"556 70 OFFCURVE",
"542 122 OFFCURVE",
"532 150 CURVE SMOOTH",
"341 719 LINE"
);
},
{
closed = 1;
nodes = (
"321 539 OFFCURVE",
"334 499 OFFCURVE",
"347 459 CURVE SMOOTH",
"412 259 LINE",
"183 259 LINE",
"263 468 LINE",
"278 505 OFFCURVE",
"292 543 OFFCURVE",
"307 580 CURVE"
);
},
{
closed = 1;
nodes = (
"462 778 LINE",
"335 878 LINE",
"333 878 LINE",
"196 779 LINE",
"210 754 LINE",
"326 814 LINE",
"446 753 LINE"
);
},
{
closed = 1;
nodes = (
"558 922 LINE SMOOTH",
"587 952 OFFCURVE",
"575 972 OFFCURVE",
"569 979 CURVE SMOOTH",
"564 984 OFFCURVE",
"540 997 OFFCURVE",
"518 959 CURVE SMOOTH",
"453 850 LINE",
"473 833 LINE"
);
}
);
};
components = (
{
name = A;
},
{
name = circumflexcomb_acutecomb.case;
transform = "{1, 0, 0, 1, 163, 202}";
}
);
layerId = UUID0;
width = 631;
},
{
background = {
anchors = (
{
name = bottom;
position = "{300, 0}";
},
{
name = ogonek;
position = "{600, 0}";
},
{
name = top;
position = "{346, 700}";
}
);
paths = (
{
closed = 1;
nodes = (
"317 718 LINE",
"94 183 LINE SMOOTH",
"68 123 OFFCURVE",
"47 69 OFFCURVE",
"-8 69 CURVE",
"-12 0 LINE",
"202 0 LINE",
"207 80 LINE",
"133 77 LINE",
"146 100 OFFCURVE",
"162 140 OFFCURVE",
"169 158 CURVE",
"188 205 LINE",
"407 209 LINE",
"424 154 LINE SMOOTH",
"440 104 OFFCURVE",
"438 66 OFFCURVE",
"382 66 CURVE",
"378 0 LINE",
"646 0 LINE",
"649 77 LINE",
"592 74 LINE",
"590 104 OFFCURVE",
"575 153 OFFCURVE",
"569 173 CURVE SMOOTH",
"384 718 LINE"
);
},
{
closed = 1;
nodes = (
"319 505 OFFCURVE",
"332 453 OFFCURVE",
"346 405 CURVE SMOOTH",
"385 280 LINE",
"217 280 LINE",
"268 410 LINE",
"293 472 OFFCURVE",
"309 519 OFFCURVE",
"315 542 CURVE"
);
},
{
closed = 1;
nodes = (
"503 812 LINE",
"359 913 LINE",
"346 913 LINE",
"187 807 LINE",
"215 761 LINE",
"346 820 LINE",
"468 760 LINE"
);
},
{
closed = 1;
nodes = (
"602 967 LINE SMOOTH",
"625 986 OFFCURVE",
"638 1025 OFFCURVE",
"612 1048 CURVE SMOOTH",
"588 1070 OFFCURVE",
"552 1057 OFFCURVE",
"534 1028 CURVE SMOOTH",
"460 913 LINE",
"497 879 LINE"
);
}
);
};
components = (
{
name = A;
},
{
name = circumflexcomb_acutecomb.case;
transform = "{1, 0, 0, 1, 175, 203}";
}
);
layerId = "6B2A2AD0-3CEC-4B3D-96BE-6A11A3496094";
width = 667;
}
);
unicode = 1EA4;
},
{
glyphname = Acircumflexdotbelow;
layers = (
{
background = {
anchors = (
{
name = bottom;
position = "{271, -187}";
},
{
name = ogonek;
position = "{555, 0}";
},
{
name = top;
position = "{322, 702}";
}
);
paths = (
{
closed = 1;
nodes = (
"319 719 LINE",
"93 158 LINE SMOOTH",
"63 83 OFFCURVE",
"37 34 OFFCURVE",
"-13 33 CURVE",
"-14 0 LINE",
"169 0 LINE",
"171 44 LINE",
"96 40 LINE",
"108 62 OFFCURVE",
"115 77 OFFCURVE",
"127 109 CURVE",
"167 216 LINE",
"423 222 LINE",
"452 128 LINE SMOOTH",
"463 91 OFFCURVE",
"475 35 OFFCURVE",
"400 33 CURVE",
"399 0 LINE",
"616 0 LINE",
"618 44 LINE",
"553 40 LINE",
"556 70 OFFCURVE",
"542 122 OFFCURVE",
"532 150 CURVE SMOOTH",
"341 719 LINE"
);
},
{
closed = 1;
nodes = (
"321 539 OFFCURVE",
"334 499 OFFCURVE",
"347 459 CURVE SMOOTH",
"412 259 LINE",
"183 259 LINE",
"263 468 LINE",
"278 505 OFFCURVE",
"292 543 OFFCURVE",
"307 580 CURVE"
);
},
{
closed = 1;
nodes = (
"253 -82 OFFCURVE",
"229 -105 OFFCURVE",
"228 -134 CURVE SMOOTH",
"227 -164 OFFCURVE",
"247 -186 OFFCURVE",
"272 -186 CURVE SMOOTH",
"297 -186 OFFCURVE",
"321 -164 OFFCURVE",
"322 -134 CURVE SMOOTH",
"323 -105 OFFCURVE",
"305 -82 OFFCURVE",
"279 -82 CURVE SMOOTH"
);
},
{
closed = 1;
nodes = (
"519 791 LINE",
"338 932 LINE",
"336 932 LINE",
"140 792 LINE",
"155 765 LINE",
"325 852 LINE",
"501 763 LINE"
);
}
);
};
components = (
{
name = A;
},
{
name = dotbelowcomb;
transform = "{1, 0, 0, 1, 183, 0}";
},
{
name = circumflexcomb.case;
transform = "{1, 0, 0, 1, 95, 2}";
}
);
layerId = UUID0;
width = 631;
},
{
background = {
anchors = (
{
name = bottom;
position = "{290, -198}";
},
{
name = ogonek;
position = "{600, 0}";
},
{
name = top;
position = "{346, 700}";
}
);
paths = (
{
closed = 1;
nodes = (
"317 718 LINE",
"94 183 LINE SMOOTH",
"68 123 OFFCURVE",
"47 69 OFFCURVE",
"-8 69 CURVE",
"-12 0 LINE",
"202 0 LINE",
"207 80 LINE",
"133 77 LINE",
"146 100 OFFCURVE",
"162 140 OFFCURVE",
"169 158 CURVE",
"188 205 LINE",
"407 209 LINE",
"424 154 LINE SMOOTH",
"440 104 OFFCURVE",
"438 66 OFFCURVE",
"382 66 CURVE",
"378 0 LINE",
"646 0 LINE",
"649 77 LINE",
"592 74 LINE",
"590 104 OFFCURVE",
"575 153 OFFCURVE",
"569 173 CURVE SMOOTH",
"384 718 LINE"
);
},
{
closed = 1;
nodes = (
"319 505 OFFCURVE",
"332 453 OFFCURVE",
"346 405 CURVE SMOOTH",
"385 280 LINE",
"217 280 LINE",
"268 410 LINE",
"293 472 OFFCURVE",
"309 519 OFFCURVE",
"315 542 CURVE"
);
},
{
closed = 1;
nodes = (
"265 -69 OFFCURVE",
"235 -98 OFFCURVE",
"233 -134 CURVE SMOOTH",
"231 -169 OFFCURVE",
"255 -198 OFFCURVE",
"291 -198 CURVE SMOOTH",
"327 -198 OFFCURVE",
"351 -169 OFFCURVE",
"353 -134 CURVE SMOOTH",
"355 -98 OFFCURVE",
"331 -69 OFFCURVE",
"297 -69 CURVE SMOOTH"
);
},
{
closed = 1;
nodes = (
"563 821 LINE",
"375 971 LINE",
"356 971 LINE",
"144 821 LINE",
"163 781 LINE",
"356 867 LINE",
"535 779 LINE"
);
}
);
};
components = (
{
name = A;
},
{
name = dotbelowcomb;
transform = "{1, 0, 0, 1, 201, 0}";
},
{
name = circumflexcomb.case;
transform = "{1, 0, 0, 1, 114, 0}";
}
);
layerId = "6B2A2AD0-3CEC-4B3D-96BE-6A11A3496094";
width = 667;
}
);
unicode = 1EAC;
},
{
glyphname = Acircumflexgrave;
layers = (
{
background = {
anchors = (
{
name = bottom;
position = "{282, 0}";
},
{
name = ogonek;
position = "{555, 0}";
},
{
name = top;
position = "{322, 702}";
}
);
paths = (
{
closed = 1;
nodes = (
"319 719 LINE",
"93 158 LINE SMOOTH",
"63 83 OFFCURVE",
"37 34 OFFCURVE",
"-13 33 CURVE",
"-14 0 LINE",
"169 0 LINE",
"171 44 LINE",
"96 40 LINE",
"108 62 OFFCURVE",
"115 77 OFFCURVE",
"127 109 CURVE",
"167 216 LINE",
"423 222 LINE",
"452 128 LINE SMOOTH",
"463 91 OFFCURVE",
"475 35 OFFCURVE",
"400 33 CURVE",
"399 0 LINE",
"616 0 LINE",
"618 44 LINE",
"553 40 LINE",
"556 70 OFFCURVE",
"542 122 OFFCURVE",
"532 150 CURVE SMOOTH",
"341 719 LINE"
);
},
{
closed = 1;
nodes = (
"321 539 OFFCURVE",
"334 499 OFFCURVE",
"347 459 CURVE SMOOTH",
"412 259 LINE",
"183 259 LINE",
"263 468 LINE",
"278 505 OFFCURVE",
"292 543 OFFCURVE",
"307 580 CURVE"
);
},
{
closed = 1;
nodes = (
"462 778 LINE",
"335 878 LINE",
"333 878 LINE",
"196 779 LINE",
"210 754 LINE",
"326 814 LINE",
"446 753 LINE"
);
},
{
closed = 1;
nodes = (
"459 881 LINE",
"388 1001 LINE SMOOTH",
"364 1042 OFFCURVE",
"337 1028 OFFCURVE",
"332 1022 CURVE SMOOTH",
"325 1015 OFFCURVE",
"312 993 OFFCURVE",
"344 960 CURVE SMOOTH",
"437 862 LINE"
);
}
);
};
components = (
{
name = A;
},
{
name = circumflexcomb_gravecomb.case;
transform = "{1, 0, 0, 1, 71, 190}";
}
);
layerId = UUID0;
width = 631;
},
{
background = {
anchors = (
{
name = bottom;
position = "{300, 0}";
},
{
name = ogonek;
position = "{600, 0}";
},
{
name = top;
position = "{346, 700}";
}
);
paths = (
{
closed = 1;
nodes = (
"317 718 LINE",
"94 183 LINE SMOOTH",
"68 123 OFFCURVE",
"47 69 OFFCURVE",
"-8 69 CURVE",
"-12 0 LINE",
"202 0 LINE",
"207 80 LINE",
"133 77 LINE",
"146 100 OFFCURVE",
"162 140 OFFCURVE",
"169 158 CURVE",
"188 205 LINE",
"407 209 LINE",
"424 154 LINE SMOOTH",
"440 104 OFFCURVE",
"438 66 OFFCURVE",
"382 66 CURVE",
"378 0 LINE",
"646 0 LINE",
"649 77 LINE",
"592 74 LINE",
"590 104 OFFCURVE",
"575 153 OFFCURVE",
"569 173 CURVE SMOOTH",
"384 718 LINE"
);
},
{
closed = 1;
nodes = (
"319 505 OFFCURVE",
"332 453 OFFCURVE",
"346 405 CURVE SMOOTH",
"385 280 LINE",
"217 280 LINE",
"268 410 LINE",
"293 472 OFFCURVE",
"309 519 OFFCURVE",
"315 542 CURVE"
);
},
{
closed = 1;
nodes = (
"503 812 LINE",
"359 913 LINE",
"346 913 LINE",
"187 807 LINE",
"215 761 LINE",
"346 820 LINE",
"468 760 LINE"
);
},
{
closed = 1;
nodes = (
"504 922 LINE",
"439 1037 LINE SMOOTH",
"424 1065 OFFCURVE",
"393 1078 OFFCURVE",
"365 1057 CURVE SMOOTH",
"338 1033 OFFCURVE",
"349 998 OFFCURVE",
"370 976 CURVE SMOOTH",
"464 888 LINE"
);
}
);
};
components = (
{
name = A;
},
{
name = circumflexcomb_gravecomb.case;
transform = "{1, 0, 0, 1, 114, 200}";
}
);
layerId = "6B2A2AD0-3CEC-4B3D-96BE-6A11A3496094";
width = 667;
}
);
unicode = 1EA6;
},
{
glyphname = Acircumflexhookabove;
layers = (
{
background = {
anchors = (
{
name = bottom;
position = "{282, 0}";
},
{
name = ogonek;
position = "{555, 0}";
},
{
name = top;
position = "{322, 702}";
}
);
paths = (
{
closed = 1;
nodes = (
"319 719 LINE",
"93 158 LINE SMOOTH",
"63 83 OFFCURVE",
"37 34 OFFCURVE",
"-13 33 CURVE",
"-14 0 LINE",
"169 0 LINE",
"171 44 LINE",
"96 40 LINE",
"108 62 OFFCURVE",
"115 77 OFFCURVE",
"127 109 CURVE",
"167 216 LINE",
"423 222 LINE",
"452 128 LINE SMOOTH",
"463 91 OFFCURVE",
"475 35 OFFCURVE",
"400 33 CURVE",
"399 0 LINE",
"616 0 LINE",
"618 44 LINE",
"553 40 LINE",
"556 70 OFFCURVE",
"542 122 OFFCURVE",
"532 150 CURVE SMOOTH",
"341 719 LINE"
);
},
{
closed = 1;
nodes = (
"321 539 OFFCURVE",
"334 499 OFFCURVE",
"347 459 CURVE SMOOTH",
"412 259 LINE",
"183 259 LINE",
"263 468 LINE",
"278 505 OFFCURVE",
"292 543 OFFCURVE",
"307 580 CURVE"
);
},
{
closed = 1;
nodes = (
"462 778 LINE",
"335 878 LINE",
"333 878 LINE",
"196 779 LINE",
"210 754 LINE",
"326 814 LINE",
"446 753 LINE"
);
},
{
closed = 1;
nodes = (
"448 857 LINE",
"449 868 OFFCURVE",
"463 877 OFFCURVE",
"480 889 CURVE SMOOTH",
"505 907 OFFCURVE",
"523 924 OFFCURVE",
"525 958 CURVE SMOOTH",
"527 998 OFFCURVE",
"490 1039 OFFCURVE",
"420 1039 CURVE SMOOTH",
"353 1039 OFFCURVE",
"315 1003 OFFCURVE",
"312 969 CURVE SMOOTH",
"310 942 OFFCURVE",
"327 931 OFFCURVE",
"343 931 CURVE SMOOTH",
"359 931 OFFCURVE",
"375 941 OFFCURVE",
"375 957 CURVE SMOOTH",
"375 963 OFFCURVE",
"373 969 OFFCURVE",
"370 973 CURVE",
"373 987 OFFCURVE",
"395 1003 OFFCURVE",
"419 1003 CURVE SMOOTH",
"452 1003 OFFCURVE",
"471 978 OFFCURVE",
"469 951 CURVE SMOOTH",
"468 937 OFFCURVE",
"461 921 OFFCURVE",
"448 910 CURVE SMOOTH",
"430 895 OFFCURVE",
"408 881 OFFCURVE",
"407 857 CURVE"
);
}
);
};
components = (
{
name = A;
},
{
name = circumflexcomb_hookabovecomb.case;
transform = "{1, 0, 0, 1, 173, 190}";
}
);
layerId = UUID0;
width = 631;
},
{
background = {
anchors = (
{
name = bottom;
position = "{300, 0}";
},
{
name = ogonek;
position = "{600, 0}";
},
{
name = top;
position = "{346, 700}";
}
);
paths = (
{
closed = 1;
nodes = (
"317 718 LINE",
"94 183 LINE SMOOTH",
"68 123 OFFCURVE",
"47 69 OFFCURVE",
"-8 69 CURVE",
"-12 0 LINE",
"202 0 LINE",
"207 80 LINE",
"133 77 LINE",
"146 100 OFFCURVE",
"162 140 OFFCURVE",
"169 158 CURVE",
"188 205 LINE",
"407 209 LINE",
"424 154 LINE SMOOTH",
"440 104 OFFCURVE",
"438 66 OFFCURVE",
"382 66 CURVE",
"378 0 LINE",
"646 0 LINE",
"649 77 LINE",
"592 74 LINE",
"590 104 OFFCURVE",
"575 153 OFFCURVE",
"569 173 CURVE SMOOTH",
"384 718 LINE"
);
},
{
closed = 1;
nodes = (
"319 505 OFFCURVE",
"332 453 OFFCURVE",
"346 405 CURVE SMOOTH",
"385 280 LINE",
"217 280 LINE",
"268 410 LINE",
"293 472 OFFCURVE",
"309 519 OFFCURVE",
"315 542 CURVE"
);
},
{
closed = 1;
nodes = (
"503 812 LINE",
"359 913 LINE",
"346 913 LINE",
"187 807 LINE",
"215 761 LINE",
"346 820 LINE",
"468 760 LINE"
);
},
{
closed = 1;
nodes = (
"525 875 LINE",
"525 886 OFFCURVE",
"537 899 OFFCURVE",
"553 911 CURVE SMOOTH",
"572 926 OFFCURVE",
"593 940 OFFCURVE",
"595 974 CURVE SMOOTH",
"598 1027 OFFCURVE",
"557 1061 OFFCURVE",
"482 1061 CURVE SMOOTH",
"415 1061 OFFCURVE",
"375 1015 OFFCURVE",
"372 973 CURVE SMOOTH",
"370 946 OFFCURVE",
"390 925 OFFCURVE",
"419 925 CURVE SMOOTH",
"441 925 OFFCURVE",
"452 940 OFFCURVE",
"453 954 CURVE SMOOTH",
"454 967 OFFCURVE",
"445 979 OFFCURVE",
"426 979 CURVE",
"428 988 OFFCURVE",
"443 1005 OFFCURVE",
"479 1005 CURVE SMOOTH",
"506 1005 OFFCURVE",
"526 992 OFFCURVE",
"524 965 CURVE SMOOTH",
"523 949 OFFCURVE",
"515 938 OFFCURVE",
"507 928 CURVE SMOOTH",
"492 910 OFFCURVE",
"468 901 OFFCURVE",
"467 875 CURVE"
);
}
);
};
components = (
{
name = A;
},
{
name = circumflexcomb_hookabovecomb.case;
transform = "{1, 0, 0, 1, 180, 200}";
}
);
layerId = "6B2A2AD0-3CEC-4B3D-96BE-6A11A3496094";
width = 667;
}
);
unicode = 1EA8;
},
{
glyphname = Acircumflextilde;
layers = (
{
background = {
anchors = (
{
name = bottom;
position = "{282, 0}";
},
{
name = ogonek;
position = "{555, 0}";
},
{
name = top;
position = "{322, 702}";
}
);
paths = (
{
closed = 1;
nodes = (
"319 719 LINE",
"93 158 LINE SMOOTH",
"63 83 OFFCURVE",
"37 34 OFFCURVE",
"-13 33 CURVE",
"-14 0 LINE",
"169 0 LINE",
"171 44 LINE",
"96 40 LINE",
"108 62 OFFCURVE",
"115 77 OFFCURVE",
"127 109 CURVE",
"167 216 LINE",
"423 222 LINE",
"452 128 LINE SMOOTH",
"463 91 OFFCURVE",
"475 35 OFFCURVE",
"400 33 CURVE",
"399 0 LINE",
"616 0 LINE",
"618 44 LINE",
"553 40 LINE",
"556 70 OFFCURVE",
"542 122 OFFCURVE",
"532 150 CURVE SMOOTH",
"341 719 LINE"
);
},
{
closed = 1;
nodes = (
"321 539 OFFCURVE",
"334 499 OFFCURVE",
"347 459 CURVE SMOOTH",
"412 259 LINE",
"183 259 LINE",
"263 468 LINE",
"278 505 OFFCURVE",
"292 543 OFFCURVE",
"307 580 CURVE"
);
},
{
closed = 1;
nodes = (
"462 778 LINE",
"335 878 LINE",
"333 878 LINE",
"196 779 LINE",
"210 754 LINE",
"326 814 LINE",
"446 753 LINE"
);
},
{
closed = 1;
nodes = (
"236 917 OFFCURVE",
"261 931 OFFCURVE",
"280 931 CURVE SMOOTH",
"319 931 OFFCURVE",
"339 887 OFFCURVE",
"390 887 CURVE SMOOTH",
"419 887 OFFCURVE",
"455 908 OFFCURVE",
"475 962 CURVE",
"455 972 LINE",
"437 945 OFFCURVE",
"418 929 OFFCURVE",
"393 930 CURVE SMOOTH",
"356 931 OFFCURVE",
"339 974 OFFCURVE",
"287 973 CURVE SMOOTH",
"256 972 OFFCURVE",
"215 943 OFFCURVE",
"199 904 CURVE",
"220 894 LINE"
);
}
);
};
components = (
{
name = A;
},
{
name = circumflexcomb_tildecomb.case;
transform = "{1, 0, 0, 1, 164, 190}";
}
);
layerId = UUID0;
width = 631;
},
{
background = {
anchors = (
{
name = bottom;
position = "{300, 0}";
},
{
name = ogonek;
position = "{600, 0}";
},
{
name = top;
position = "{346, 700}";
}
);
paths = (
{
closed = 1;
nodes = (
"317 718 LINE",
"94 183 LINE SMOOTH",
"68 123 OFFCURVE",
"47 69 OFFCURVE",
"-8 69 CURVE",
"-12 0 LINE",
"202 0 LINE",
"207 80 LINE",
"133 77 LINE",
"146 100 OFFCURVE",
"162 140 OFFCURVE",
"169 158 CURVE",
"188 205 LINE",
"407 209 LINE",
"424 154 LINE SMOOTH",
"440 104 OFFCURVE",
"438 66 OFFCURVE",
"382 66 CURVE",
"378 0 LINE",
"646 0 LINE",
"649 77 LINE",
"592 74 LINE",
"590 104 OFFCURVE",
"575 153 OFFCURVE",
"569 173 CURVE SMOOTH",
"384 718 LINE"
);
},
{
closed = 1;
nodes = (
"319 505 OFFCURVE",
"332 453 OFFCURVE",
"346 405 CURVE SMOOTH",
"385 280 LINE",
"217 280 LINE",
"268 410 LINE",
"293 472 OFFCURVE",
"309 519 OFFCURVE",
"315 542 CURVE"
);
},
{
closed = 1;
nodes = (
"503 812 LINE",
"359 913 LINE",
"346 913 LINE",
"187 807 LINE",
"215 761 LINE",
"346 820 LINE",
"468 760 LINE"
);
},
{
closed = 1;
nodes = (
"278 939 OFFCURVE",
"301 947 OFFCURVE",
"314 947 CURVE SMOOTH",
"346 947 OFFCURVE",
"369 915 OFFCURVE",
"413 915 CURVE SMOOTH",
"446 915 OFFCURVE",
"487 940 OFFCURVE",
"510 1009 CURVE",
"466 1033 LINE",
"452 1007 OFFCURVE",
"433 990 OFFCURVE",
"413 990 CURVE SMOOTH",
"373 990 OFFCURVE",
"363 1022 OFFCURVE",
"312 1022 CURVE SMOOTH",
"276 1022 OFFCURVE",
"235 990 OFFCURVE",
"217 941 CURVE",
"261 913 LINE"
);
}
);
};
components = (
{
name = A;
},
{
name = circumflexcomb_tildecomb.case;
transform = "{1, 0, 0, 1, 176, 200}";
}
);
layerId = "6B2A2AD0-3CEC-4B3D-96BE-6A11A3496094";
width = 667;
}
);
unicode = 1EAA;
},
{
glyphname = Adieresis;
layers = (
{
background = {
anchors = (
{
name = bottom;
position = "{282, 0}";
},
{
name = ogonek;
position = "{555, 0}";
},
{
name = top;
position = "{332, 899}";
}
);
paths = (
{
closed = 1;
nodes = (
"319 719 LINE",
"93 158 LINE SMOOTH",
"63 83 OFFCURVE",
"37 34 OFFCURVE",
"-13 33 CURVE",
"-14 0 LINE",
"169 0 LINE",
"171 44 LINE",
"96 40 LINE",
"108 62 OFFCURVE",
"115 77 OFFCURVE",
"127 109 CURVE",
"167 216 LINE",
"423 222 LINE",
"452 128 LINE SMOOTH",
"463 91 OFFCURVE",
"475 35 OFFCURVE",
"400 33 CURVE",
"399 0 LINE",
"616 0 LINE",
"618 44 LINE",
"553 40 LINE",
"556 70 OFFCURVE",
"542 122 OFFCURVE",
"532 150 CURVE SMOOTH",
"341 719 LINE"
);
},
{
closed = 1;
nodes = (
"321 539 OFFCURVE",
"334 499 OFFCURVE",
"347 459 CURVE SMOOTH",
"412 259 LINE",
"183 259 LINE",
"263 468 LINE",
"278 505 OFFCURVE",
"292 543 OFFCURVE",
"307 580 CURVE"
);
},
{
closed = 1;
nodes = (
"271 780 OFFCURVE",
"296 806 OFFCURVE",
"297 839 CURVE SMOOTH",
"299 873 OFFCURVE",
"280 899 OFFCURVE",
"253 899 CURVE SMOOTH",
"225 899 OFFCURVE",
"200 873 OFFCURVE",
"199 839 CURVE SMOOTH",
"198 806 OFFCURVE",
"218 780 OFFCURVE",
"246 780 CURVE SMOOTH"
);
},
{
closed = 1;
nodes = (
"433 780 OFFCURVE",
"458 806 OFFCURVE",
"459 839 CURVE SMOOTH",
"460 873 OFFCURVE",
"442 899 OFFCURVE",
"414 899 CURVE SMOOTH",
"387 899 OFFCURVE",
"362 873 OFFCURVE",
"361 839 CURVE SMOOTH",
"360 806 OFFCURVE",
"380 780 OFFCURVE",
"407 780 CURVE SMOOTH"
);
}
);
};
components = (
{
name = A;
},
{
name = dieresiscomb.case;
transform = "{1, 0, 0, 1, 153, 2}";
}
);
layerId = UUID0;
width = 631;
},
{
background = {
anchors = (
{
name = bottom;
position = "{300, 0}";
},
{
name = ogonek;
position = "{600, 0}";
},
{
name = top;
position = "{359, 949}";
}
);
paths = (
{
closed = 1;
nodes = (
"317 718 LINE",
"94 183 LINE SMOOTH",
"68 123 OFFCURVE",
"47 69 OFFCURVE",
"-8 69 CURVE",
"-12 0 LINE",
"202 0 LINE",
"207 80 LINE",
"133 77 LINE",
"146 100 OFFCURVE",
"162 140 OFFCURVE",
"169 158 CURVE",
"188 205 LINE",
"407 209 LINE",
"424 154 LINE SMOOTH",
"440 104 OFFCURVE",
"438 66 OFFCURVE",
"382 66 CURVE",
"378 0 LINE",
"646 0 LINE",
"649 77 LINE",
"592 74 LINE",
"590 104 OFFCURVE",
"575 153 OFFCURVE",
"569 173 CURVE SMOOTH",
"384 718 LINE"
);
},
{
closed = 1;
nodes = (
"319 505 OFFCURVE",
"332 453 OFFCURVE",
"346 405 CURVE SMOOTH",
"385 280 LINE",
"217 280 LINE",
"268 410 LINE",
"293 472 OFFCURVE",
"309 519 OFFCURVE",
"315 542 CURVE"
);
},
{
closed = 1;
nodes = (
"303 797 OFFCURVE",
"333 835 OFFCURVE",
"333 878 CURVE SMOOTH",
"333 917 OFFCURVE",
"309 949 OFFCURVE",
"274 949 CURVE SMOOTH",
"237 949 OFFCURVE",
"204 912 OFFCURVE",
"204 868 CURVE SMOOTH",
"204 828 OFFCURVE",
"230 797 OFFCURVE",
"264 797 CURVE SMOOTH"
);
},
{
closed = 1;
nodes = (
"477 797 OFFCURVE",
"507 834 OFFCURVE",
"507 878 CURVE SMOOTH",
"507 917 OFFCURVE",
"484 949 OFFCURVE",
"448 949 CURVE SMOOTH",
"411 949 OFFCURVE",
"379 912 OFFCURVE",
"379 868 CURVE SMOOTH",
"379 828 OFFCURVE",
"404 797 OFFCURVE",
"439 797 CURVE SMOOTH"
);
}
);
};
components = (
{
name = A;
},
{
name = dieresiscomb.case;
transform = "{1, 0, 0, 1, 159, 0}";
}
);
layerId = "6B2A2AD0-3CEC-4B3D-96BE-6A11A3496094";
width = 667;
}
);
leftKerningGroup = A;
rightKerningGroup = A;
unicode = 00C4;
},
{
glyphname = Adotbelow;
layers = (
{
background = {
anchors = (
{
name = bottom;
position = "{271, -187}";
},
{
name = ogonek;
position = "{555, 0}";
},
{
name = top;
position = "{322, 702}";
}
);
paths = (
{
closed = 1;
nodes = (
"319 719 LINE",
"93 158 LINE SMOOTH",
"63 83 OFFCURVE",
"37 34 OFFCURVE",
"-13 33 CURVE",
"-14 0 LINE",
"169 0 LINE",
"171 44 LINE",
"96 40 LINE",
"108 62 OFFCURVE",
"115 77 OFFCURVE",
"127 109 CURVE",
"167 216 LINE",
"423 222 LINE",
"452 128 LINE SMOOTH",
"463 91 OFFCURVE",
"475 35 OFFCURVE",
"400 33 CURVE",
"399 0 LINE",
"616 0 LINE",
"618 44 LINE",
"553 40 LINE",
"556 70 OFFCURVE",
"542 122 OFFCURVE",
"532 150 CURVE SMOOTH",
"341 719 LINE"
);
},
{
closed = 1;
nodes = (
"321 539 OFFCURVE",
"334 499 OFFCURVE",
"347 459 CURVE SMOOTH",
"412 259 LINE",
"183 259 LINE",
"263 468 LINE",
"278 505 OFFCURVE",
"292 543 OFFCURVE",
"307 580 CURVE"
);
},
{
closed = 1;
nodes = (
"253 -82 OFFCURVE",
"229 -105 OFFCURVE",
"228 -134 CURVE SMOOTH",
"227 -164 OFFCURVE",
"247 -186 OFFCURVE",
"272 -186 CURVE SMOOTH",
"297 -186 OFFCURVE",
"321 -164 OFFCURVE",
"322 -134 CURVE SMOOTH",
"323 -105 OFFCURVE",
"305 -82 OFFCURVE",
"279 -82 CURVE SMOOTH"
);
}
);
};
components = (
{
name = A;
},
{
name = dotbelowcomb;
transform = "{1, 0, 0, 1, 183, 0}";
}
);
layerId = UUID0;
width = 631;
},
{
background = {
anchors = (
{
name = bottom;
position = "{290, -198}";
},
{
name = ogonek;
position = "{600, 0}";
},
{
name = top;
position = "{346, 700}";
}
);
paths = (
{
closed = 1;
nodes = (
"317 718 LINE",
"94 183 LINE SMOOTH",
"68 123 OFFCURVE",
"47 69 OFFCURVE",
"-8 69 CURVE",
"-12 0 LINE",
"202 0 LINE",
"207 80 LINE",
"133 77 LINE",
"146 100 OFFCURVE",
"162 140 OFFCURVE",
"169 158 CURVE",
"188 205 LINE",
"407 209 LINE",
"424 154 LINE SMOOTH",
"440 104 OFFCURVE",
"438 66 OFFCURVE",
"382 66 CURVE",
"378 0 LINE",
"646 0 LINE",
"649 77 LINE",
"592 74 LINE",
"590 104 OFFCURVE",
"575 153 OFFCURVE",
"569 173 CURVE SMOOTH",
"384 718 LINE"
);
},
{
closed = 1;
nodes = (
"319 505 OFFCURVE",
"332 453 OFFCURVE",
"346 405 CURVE SMOOTH",
"385 280 LINE",
"217 280 LINE",
"268 410 LINE",
"293 472 OFFCURVE",
"309 519 OFFCURVE",
"315 542 CURVE"
);
},
{
closed = 1;
nodes = (
"265 -69 OFFCURVE",
"235 -98 OFFCURVE",
"233 -134 CURVE SMOOTH",
"231 -169 OFFCURVE",
"255 -198 OFFCURVE",
"291 -198 CURVE SMOOTH",
"327 -198 OFFCURVE",
"351 -169 OFFCURVE",
"353 -134 CURVE SMOOTH",
"355 -98 OFFCURVE",
"331 -69 OFFCURVE",
"297 -69 CURVE SMOOTH"
);
}
);
};
components = (
{
name = A;
},
{
name = dotbelowcomb;
transform = "{1, 0, 0, 1, 201, 0}";
}
);
layerId = "6B2A2AD0-3CEC-4B3D-96BE-6A11A3496094";
width = 667;
}
);
unicode = 1EA0;
},
{
glyphname = Agrave;
layers = (
{
background = {
anchors = (
{
name = bottom;
position = "{282, 0}";
},
{
name = ogonek;
position = "{555, 0}";
},
{
name = top;
position = "{294, 928}";
}
);
paths = (
{
closed = 1;
nodes = (
"319 719 LINE",
"93 158 LINE SMOOTH",
"63 83 OFFCURVE",
"37 34 OFFCURVE",
"-13 33 CURVE",
"-14 0 LINE",
"169 0 LINE",
"171 44 LINE",
"96 40 LINE",
"108 62 OFFCURVE",
"115 77 OFFCURVE",
"127 109 CURVE",
"167 216 LINE",
"423 222 LINE",
"452 128 LINE SMOOTH",
"463 91 OFFCURVE",
"475 35 OFFCURVE",
"400 33 CURVE",
"399 0 LINE",
"616 0 LINE",
"618 44 LINE",
"553 40 LINE",
"556 70 OFFCURVE",
"542 122 OFFCURVE",
"532 150 CURVE SMOOTH",
"341 719 LINE"
);
},
{
closed = 1;
nodes = (
"321 539 OFFCURVE",
"334 499 OFFCURVE",
"347 459 CURVE SMOOTH",
"412 259 LINE",
"183 259 LINE",
"263 468 LINE",
"278 505 OFFCURVE",
"292 543 OFFCURVE",
"307 580 CURVE"
);
},
{
closed = 1;
nodes = (
"389 790 LINE",
"262 908 LINE SMOOTH",
"224 943 OFFCURVE",
"202 923 OFFCURVE",
"197 917 CURVE SMOOTH",
"190 909 OFFCURVE",
"178 883 OFFCURVE",
"222 855 CURVE SMOOTH",
"368 762 LINE"
);
}
);
};
components = (
{
name = A;
},
{
name = gravecomb.case;
transform = "{1, 0, 0, 1, 145, 2}";
}
);
layerId = UUID0;
width = 631;
},
{
background = {
anchors = (
{
name = bottom;
position = "{300, 0}";
},
{
name = ogonek;
position = "{600, 0}";
},
{
name = top;
position = "{330, 963}";
}
);
paths = (
{
closed = 1;
nodes = (
"317 718 LINE",
"94 183 LINE SMOOTH",
"68 123 OFFCURVE",
"47 69 OFFCURVE",
"-8 69 CURVE",
"-12 0 LINE",
"202 0 LINE",
"207 80 LINE",
"133 77 LINE",
"146 100 OFFCURVE",
"162 140 OFFCURVE",
"169 158 CURVE",
"188 205 LINE",
"407 209 LINE",
"424 154 LINE SMOOTH",
"440 104 OFFCURVE",
"438 66 OFFCURVE",
"382 66 CURVE",
"378 0 LINE",
"646 0 LINE",
"649 77 LINE",
"592 74 LINE",
"590 104 OFFCURVE",
"575 153 OFFCURVE",
"569 173 CURVE SMOOTH",
"384 718 LINE"
);
},
{
closed = 1;
nodes = (
"319 505 OFFCURVE",
"332 453 OFFCURVE",
"346 405 CURVE SMOOTH",
"385 280 LINE",
"217 280 LINE",
"268 410 LINE",
"293 472 OFFCURVE",
"309 519 OFFCURVE",
"315 542 CURVE"
);
},
{
closed = 1;
nodes = (
"434 819 LINE",
"325 936 LINE SMOOTH",
"298 964 OFFCURVE",
"254 977 OFFCURVE",
"228 943 CURVE SMOOTH",
"201 910 OFFCURVE",
"224 873 OFFCURVE",
"254 854 CURVE",
"395 770 LINE"
);
}
);
};
components = (
{
name = A;
},
{
name = gravecomb.case;
transform = "{1, 0, 0, 1, 171, 0}";
}
);
layerId = "6B2A2AD0-3CEC-4B3D-96BE-6A11A3496094";
width = 667;
}
);
leftKerningGroup = A;
rightKerningGroup = A;
unicode = 00C0;
},
{
glyphname = Ahookabove;
layers = (
{
background = {
anchors = (
{
name = bottom;
position = "{282, 0}";
},
{
name = ogonek;
position = "{555, 0}";
},
{
name = top;
position = "{332, 946}";
}
);
paths = (
{
closed = 1;
nodes = (
"319 719 LINE",
"93 158 LINE SMOOTH",
"63 83 OFFCURVE",
"37 34 OFFCURVE",
"-13 33 CURVE",
"-14 0 LINE",
"169 0 LINE",
"171 44 LINE",
"96 40 LINE",
"108 62 OFFCURVE",
"115 77 OFFCURVE",
"127 109 CURVE",
"167 216 LINE",
"423 222 LINE",
"452 128 LINE SMOOTH",
"463 91 OFFCURVE",
"475 35 OFFCURVE",
"400 33 CURVE",
"399 0 LINE",
"616 0 LINE",
"618 44 LINE",
"553 40 LINE",
"556 70 OFFCURVE",
"542 122 OFFCURVE",
"532 150 CURVE SMOOTH",
"341 719 LINE"
);
},
{
closed = 1;
nodes = (
"321 539 OFFCURVE",
"334 499 OFFCURVE",
"347 459 CURVE SMOOTH",
"412 259 LINE",
"183 259 LINE",
"263 468 LINE",
"278 505 OFFCURVE",
"292 543 OFFCURVE",
"307 580 CURVE"
);
},
{
closed = 1;
nodes = (
"336 756 LINE",
"337 767 OFFCURVE",
"351 776 OFFCURVE",
"368 788 CURVE SMOOTH",
"393 806 OFFCURVE",
"411 823 OFFCURVE",
"413 857 CURVE SMOOTH",
"415 897 OFFCURVE",
"378 938 OFFCURVE",
"308 938 CURVE SMOOTH",
"241 938 OFFCURVE",
"203 902 OFFCURVE",
"200 868 CURVE SMOOTH",
"198 841 OFFCURVE",
"215 830 OFFCURVE",
"231 830 CURVE SMOOTH",
"247 830 OFFCURVE",
"263 840 OFFCURVE",
"263 856 CURVE SMOOTH",
"263 862 OFFCURVE",
"261 868 OFFCURVE",
"258 872 CURVE",
"261 886 OFFCURVE",
"283 902 OFFCURVE",
"307 902 CURVE SMOOTH",
"340 902 OFFCURVE",
"359 877 OFFCURVE",
"357 850 CURVE SMOOTH",
"356 836 OFFCURVE",
"349 820 OFFCURVE",
"336 809 CURVE SMOOTH",
"318 794 OFFCURVE",
"296 780 OFFCURVE",
"295 756 CURVE"
);
}
);
};
components = (
{
name = A;
},
{
name = hookabovecomb;
transform = "{1, 0, 0, 1, 155, 190}";
}
);
layerId = UUID0;
width = 631;
},
{
background = {
anchors = (
{
name = bottom;
position = "{300, 0}";
},
{
name = ogonek;
position = "{600, 0}";
},
{
name = top;
position = "{365, 956}";
}
);
paths = (
{
closed = 1;
nodes = (
"317 718 LINE",
"94 183 LINE SMOOTH",
"68 123 OFFCURVE",
"47 69 OFFCURVE",
"-8 69 CURVE",
"-12 0 LINE",
"202 0 LINE",
"207 80 LINE",
"133 77 LINE",
"146 100 OFFCURVE",
"162 140 OFFCURVE",
"169 158 CURVE",
"188 205 LINE",
"407 209 LINE",
"424 154 LINE SMOOTH",
"440 104 OFFCURVE",
"438 66 OFFCURVE",
"382 66 CURVE",
"378 0 LINE",
"646 0 LINE",
"649 77 LINE",
"592 74 LINE",
"590 104 OFFCURVE",
"575 153 OFFCURVE",
"569 173 CURVE SMOOTH",
"384 718 LINE"
);
},
{
closed = 1;
nodes = (
"319 505 OFFCURVE",
"332 453 OFFCURVE",
"346 405 CURVE SMOOTH",
"385 280 LINE",
"217 280 LINE",
"268 410 LINE",
"293 472 OFFCURVE",
"309 519 OFFCURVE",
"315 542 CURVE"
);
},
{
closed = 1;
nodes = (
"404 759 LINE",
"404 771 OFFCURVE",
"416 785 OFFCURVE",
"433 798 CURVE SMOOTH",
"453 814 OFFCURVE",
"476 828 OFFCURVE",
"478 864 CURVE SMOOTH",
"481 921 OFFCURVE",
"437 957 OFFCURVE",
"358 957 CURVE SMOOTH",
"287 957 OFFCURVE",
"244 908 OFFCURVE",
"241 863 CURVE SMOOTH",
"239 835 OFFCURVE",
"260 812 OFFCURVE",
"291 812 CURVE SMOOTH",
"314 812 OFFCURVE",
"326 828 OFFCURVE",
"327 843 CURVE SMOOTH",
"328 857 OFFCURVE",
"319 870 OFFCURVE",
"299 870 CURVE",
"301 879 OFFCURVE",
"317 897 OFFCURVE",
"355 897 CURVE SMOOTH",
"383 897 OFFCURVE",
"405 883 OFFCURVE",
"403 855 CURVE SMOOTH",
"402 838 OFFCURVE",
"393 826 OFFCURVE",
"384 816 CURVE SMOOTH",
"367 798 OFFCURVE",
"343 787 OFFCURVE",
"342 759 CURVE"
);
}
);
};
components = (
{
name = A;
},
{
name = hookabovecomb;
transform = "{1, 0, 0, 1, 158, 200}";
}
);
layerId = "6B2A2AD0-3CEC-4B3D-96BE-6A11A3496094";
width = 667;
}
);
unicode = 1EA2;
},
{
glyphname = Amacron;
layers = (
{
background = {
anchors = (
{
name = bottom;
position = "{282, 0}";
},
{
name = ogonek;
position = "{555, 0}";
},
{
name = top;
position = "{322, 702}";
}
);
paths = (
{
closed = 1;
nodes = (
"319 719 LINE",
"93 158 LINE SMOOTH",
"63 83 OFFCURVE",
"37 34 OFFCURVE",
"-13 33 CURVE",
"-14 0 LINE",
"169 0 LINE",
"171 44 LINE",
"96 40 LINE",
"108 62 OFFCURVE",
"115 77 OFFCURVE",
"127 109 CURVE",
"167 216 LINE",
"423 222 LINE",
"452 128 LINE SMOOTH",
"463 91 OFFCURVE",
"475 35 OFFCURVE",
"400 33 CURVE",
"399 0 LINE",
"616 0 LINE",
"618 44 LINE",
"553 40 LINE",
"556 70 OFFCURVE",
"542 122 OFFCURVE",
"532 150 CURVE SMOOTH",
"341 719 LINE"
);
},
{
closed = 1;
nodes = (
"321 539 OFFCURVE",
"334 499 OFFCURVE",
"347 459 CURVE SMOOTH",
"412 259 LINE",
"183 259 LINE",
"263 468 LINE",
"278 505 OFFCURVE",
"292 543 OFFCURVE",
"307 580 CURVE"
);
},
{
closed = 1;
nodes = (
"462 839 LINE",
"465 891 LINE",
"200 891 LINE",
"197 835 LINE"
);
}
);
};
components = (
{
name = A;
},
{
name = macroncomb;
transform = "{1, 0, 0, 1, 152, 190}";
}
);
layerId = UUID0;
width = 631;
},
{
background = {
anchors = (
{
name = bottom;
position = "{300, 0}";
},
{
name = ogonek;
position = "{600, 0}";
},
{
name = top;
position = "{346, 700}";
}
);
paths = (
{
closed = 1;
nodes = (
"317 718 LINE",
"94 183 LINE SMOOTH",
"68 123 OFFCURVE",
"47 69 OFFCURVE",
"-8 69 CURVE",
"-12 0 LINE",
"202 0 LINE",
"207 80 LINE",
"133 77 LINE",
"146 100 OFFCURVE",
"162 140 OFFCURVE",
"169 158 CURVE",
"188 205 LINE",
"407 209 LINE",
"424 154 LINE SMOOTH",
"440 104 OFFCURVE",
"438 66 OFFCURVE",
"382 66 CURVE",
"378 0 LINE",
"646 0 LINE",
"649 77 LINE",
"592 74 LINE",
"590 104 OFFCURVE",
"575 153 OFFCURVE",
"569 173 CURVE SMOOTH",
"384 718 LINE"
);
},
{
closed = 1;
nodes = (
"319 505 OFFCURVE",
"332 453 OFFCURVE",
"346 405 CURVE SMOOTH",
"385 280 LINE",
"217 280 LINE",
"268 410 LINE",
"293 472 OFFCURVE",
"309 519 OFFCURVE",
"315 542 CURVE"
);
},
{
closed = 1;
nodes = (
"486 832 LINE",
"490 922 LINE",
"206 922 LINE",
"202 829 LINE"
);
}
);
};
components = (
{
name = A;
},
{
name = macroncomb;
transform = "{1, 0, 0, 1, 157, 200}";
}
);
layerId = "6B2A2AD0-3CEC-4B3D-96BE-6A11A3496094";
width = 667;
}
);
leftKerningGroup = A;
rightKerningGroup = A;
unicode = 0100;
},
{
glyphname = Aogonek;
layers = (
{
background = {
anchors = (
{
name = bottom;
position = "{282, 0}";
},
{
name = ogonek;
position = "{555, 0}";
},
{
name = top;
position = "{322, 702}";
}
);
paths = (
{
closed = 1;
nodes = (
"319 719 LINE",
"93 158 LINE SMOOTH",
"63 83 OFFCURVE",
"37 34 OFFCURVE",
"-13 33 CURVE",
"-14 0 LINE",
"169 0 LINE",
"171 44 LINE",
"96 40 LINE",
"108 62 OFFCURVE",
"115 77 OFFCURVE",
"127 109 CURVE",
"167 216 LINE",
"423 222 LINE",
"452 128 LINE SMOOTH",
"463 91 OFFCURVE",
"475 35 OFFCURVE",
"400 33 CURVE",
"399 0 LINE",
"616 0 LINE",
"618 44 LINE",
"553 40 LINE",
"556 70 OFFCURVE",
"542 122 OFFCURVE",
"532 150 CURVE SMOOTH",
"341 719 LINE"
);
},
{
closed = 1;
nodes = (
"321 539 OFFCURVE",
"334 499 OFFCURVE",
"347 459 CURVE SMOOTH",
"412 259 LINE",
"183 259 LINE",
"263 468 LINE",
"278 505 OFFCURVE",
"292 543 OFFCURVE",
"307 580 CURVE"
);
},
{
closed = 1;
nodes = (
"481 -284 OFFCURVE",
"528 -252 OFFCURVE",
"556 -221 CURVE",
"542 -204 LINE",
"517 -226 OFFCURVE",
"490 -236 OFFCURVE",
"466 -236 CURVE SMOOTH",
"427 -236 OFFCURVE",
"406 -208 OFFCURVE",
"406 -166 CURVE SMOOTH",
"406 -95 OFFCURVE",
"477 -30 OFFCURVE",
"555 0 CURVE",
"557 26 LINE",
"453 -7 OFFCURVE",
"348 -84 OFFCURVE",
"343 -182 CURVE SMOOTH",
"340 -242 OFFCURVE",
"374 -284 OFFCURVE",
"433 -284 CURVE SMOOTH"
);
}
);
};
components = (
{
name = A;
},
{
name = ogonekcomb;
transform = "{1, 0, 0, 1, 297, -27}";
}
);
layerId = UUID0;
width = 631;
},
{
background = {
anchors = (
{
name = bottom;
position = "{300, 0}";
},
{
name = ogonek;
position = "{600, 0}";
},
{
name = top;
position = "{346, 700}";
}
);
paths = (
{
closed = 1;
nodes = (
"317 718 LINE",
"94 183 LINE SMOOTH",
"68 123 OFFCURVE",
"47 69 OFFCURVE",
"-8 69 CURVE",
"-12 0 LINE",
"202 0 LINE",
"207 80 LINE",
"133 77 LINE",
"146 100 OFFCURVE",
"162 140 OFFCURVE",
"169 158 CURVE",
"188 205 LINE",
"407 209 LINE",
"424 154 LINE SMOOTH",
"440 104 OFFCURVE",
"438 66 OFFCURVE",
"382 66 CURVE",
"378 0 LINE",
"646 0 LINE",
"649 77 LINE",
"592 74 LINE",
"590 104 OFFCURVE",
"575 153 OFFCURVE",
"569 173 CURVE SMOOTH",
"384 718 LINE"
);
},
{
closed = 1;
nodes = (
"319 505 OFFCURVE",
"332 453 OFFCURVE",
"346 405 CURVE SMOOTH",
"385 280 LINE",
"217 280 LINE",
"268 410 LINE",
"293 472 OFFCURVE",
"309 519 OFFCURVE",
"315 542 CURVE"
);
},
{
closed = 1;
nodes = (
"516 -265 OFFCURVE",
"567 -234 OFFCURVE",
"605 -188 CURVE",
"572 -145 LINE",
"550 -164 OFFCURVE",
"528 -174 OFFCURVE",
"508 -174 CURVE SMOOTH",
"481 -174 OFFCURVE",
"466 -158 OFFCURVE",
"467 -134 CURVE SMOOTH",
"468 -78 OFFCURVE",
"535 -26 OFFCURVE",
"600 0 CURVE",
"604 62 LINE",
"487 24 OFFCURVE",
"374 -62 OFFCURVE",
"369 -162 CURVE SMOOTH",
"365 -230 OFFCURVE",
"408 -265 OFFCURVE",
"469 -265 CURVE SMOOTH"
);
}
);
};
components = (
{
name = A;
},
{
name = ogonekcomb;
transform = "{1, 0, 0, 1, 323, 0}";
}
);
layerId = "6B2A2AD0-3CEC-4B3D-96BE-6A11A3496094";
width = 667;
}
);
leftKerningGroup = A;
rightKerningGroup = A;
unicode = 0104;
},
{
glyphname = Aring;
layers = (
{
background = {
anchors = (
{
name = bottom;
position = "{282, 0}";
},
{
name = ogonek;
position = "{555, 0}";
},
{
name = top;
position = "{335, 936}";
}
);
paths = (
{
closed = 1;
nodes = (
"319 719 LINE",
"93 158 LINE SMOOTH",
"63 83 OFFCURVE",
"37 34 OFFCURVE",
"-13 33 CURVE",
"-14 0 LINE",
"169 0 LINE",
"171 44 LINE",
"96 40 LINE",
"108 62 OFFCURVE",
"115 77 OFFCURVE",
"127 109 CURVE",
"167 216 LINE",
"423 222 LINE",
"452 128 LINE SMOOTH",
"463 91 OFFCURVE",
"475 35 OFFCURVE",
"400 33 CURVE",
"399 0 LINE",
"616 0 LINE",
"618 44 LINE",
"553 40 LINE",
"556 70 OFFCURVE",
"542 122 OFFCURVE",
"532 150 CURVE SMOOTH",
"341 719 LINE"
);
},
{
closed = 1;
nodes = (
"321 539 OFFCURVE",
"334 499 OFFCURVE",
"347 459 CURVE SMOOTH",
"412 259 LINE",
"183 259 LINE",
"263 468 LINE",
"278 505 OFFCURVE",
"292 543 OFFCURVE",
"307 580 CURVE"
);
},
{
closed = 1;
nodes = (
"386 719 OFFCURVE",
"442 762 OFFCURVE",
"440 834 CURVE SMOOTH",
"437 906 OFFCURVE",
"382 936 OFFCURVE",
"328 936 CURVE SMOOTH",
"271 936 OFFCURVE",
"216 891 OFFCURVE",
"218 822 CURVE SMOOTH",
"221 749 OFFCURVE",
"274 719 OFFCURVE",
"330 719 CURVE SMOOTH"
);
},
{
closed = 1;
nodes = (
"297 748 OFFCURVE",
"271 783 OFFCURVE",
"271 832 CURVE SMOOTH",
"271 874 OFFCURVE",
"293 905 OFFCURVE",
"324 907 CURVE SMOOTH",
"358 909 OFFCURVE",
"387 883 OFFCURVE",
"387 820 CURVE SMOOTH",
"387 779 OFFCURVE",
"361 750 OFFCURVE",
"334 749 CURVE SMOOTH"
);
}
);
};
components = (
{
name = A;
},
{
name = ringcomb.case;
transform = "{1, 0, 0, 1, 172, 2}";
}
);
layerId = UUID0;
width = 631;
},
{
background = {
anchors = (
{
name = bottom;
position = "{300, 0}";
},
{
name = ogonek;
position = "{600, 0}";
},
{
name = top;
position = "{362, 1006}";
}
);
paths = (
{
closed = 1;
nodes = (
"317 718 LINE",
"94 183 LINE SMOOTH",
"68 123 OFFCURVE",
"47 69 OFFCURVE",
"-8 69 CURVE",
"-12 0 LINE",
"202 0 LINE",
"207 80 LINE",
"133 77 LINE",
"146 100 OFFCURVE",
"162 140 OFFCURVE",
"169 158 CURVE",
"188 205 LINE",
"407 209 LINE",
"424 154 LINE SMOOTH",
"440 104 OFFCURVE",
"438 66 OFFCURVE",
"382 66 CURVE",
"378 0 LINE",
"646 0 LINE",
"649 77 LINE",
"592 74 LINE",
"590 104 OFFCURVE",
"575 153 OFFCURVE",
"569 173 CURVE SMOOTH",
"384 718 LINE"
);
},
{
closed = 1;
nodes = (
"319 505 OFFCURVE",
"332 453 OFFCURVE",
"346 405 CURVE SMOOTH",
"385 280 LINE",
"217 280 LINE",
"268 410 LINE",
"293 472 OFFCURVE",
"309 519 OFFCURVE",
"315 542 CURVE"
);
},
{
closed = 1;
nodes = (
"419 751 OFFCURVE",
"489 798 OFFCURVE",
"489 879 CURVE SMOOTH",
"489 966 OFFCURVE",
"418 1006 OFFCURVE",
"355 1006 CURVE SMOOTH",
"291 1006 OFFCURVE",
"222 954 OFFCURVE",
"222 877 CURVE SMOOTH",
"222 790 OFFCURVE",
"292 751 OFFCURVE",
"356 751 CURVE SMOOTH"
);
},
{
closed = 1;
nodes = (
"329 802 OFFCURVE",
"309 833 OFFCURVE",
"309 885 CURVE SMOOTH",
"309 917 OFFCURVE",
"321 956 OFFCURVE",
"355 956 CURVE SMOOTH",
"385 956 OFFCURVE",
"402 923 OFFCURVE",
"402 867 CURVE SMOOTH",
"402 824 OFFCURVE",
"382 802 OFFCURVE",
"359 802 CURVE SMOOTH"
);
}
);
};
components = (
{
name = A;
},
{
name = ringcomb.case;
transform = "{1, 0, 0, 1, 177, 0}";
}
);
layerId = "6B2A2AD0-3CEC-4B3D-96BE-6A11A3496094";
width = 667;
}
);
leftKerningGroup = A;
rightKerningGroup = A;
unicode = 00C5;
},
{
glyphname = Atilde;
layers = (
{
background = {
anchors = (
{
name = bottom;
position = "{282, 0}";
},
{
name = ogonek;
position = "{555, 0}";
},
{
name = top;
position = "{333, 907}";
}
);
paths = (
{
closed = 1;
nodes = (
"319 719 LINE",
"93 158 LINE SMOOTH",
"63 83 OFFCURVE",
"37 34 OFFCURVE",
"-13 33 CURVE",
"-14 0 LINE",
"169 0 LINE",
"171 44 LINE",
"96 40 LINE",
"108 62 OFFCURVE",
"115 77 OFFCURVE",
"127 109 CURVE",
"167 216 LINE",
"423 222 LINE",
"452 128 LINE SMOOTH",
"463 91 OFFCURVE",
"475 35 OFFCURVE",
"400 33 CURVE",
"399 0 LINE",
"616 0 LINE",
"618 44 LINE",
"553 40 LINE",
"556 70 OFFCURVE",
"542 122 OFFCURVE",
"532 150 CURVE SMOOTH",
"341 719 LINE"
);
},
{
closed = 1;
nodes = (
"321 539 OFFCURVE",
"334 499 OFFCURVE",
"347 459 CURVE SMOOTH",
"412 259 LINE",
"183 259 LINE",
"263 468 LINE",
"278 505 OFFCURVE",
"292 543 OFFCURVE",
"307 580 CURVE"
);
},
{
closed = 1;
nodes = (
"302 850 OFFCURVE",
"332 784 OFFCURVE",
"401 784 CURVE SMOOTH",
"445 784 OFFCURVE",
"491 804 OFFCURVE",
"523 886 CURVE",
"497 900 LINE",
"475 865 OFFCURVE",
"446 841 OFFCURVE",
"410 841 CURVE SMOOTH",
"356 841 OFFCURVE",
"333 909 OFFCURVE",
"254 907 CURVE SMOOTH",
"212 906 OFFCURVE",
"162 868 OFFCURVE",
"136 810 CURVE",
"164 793 LINE",
"189 830 OFFCURVE",
"217 850 OFFCURVE",
"246 850 CURVE SMOOTH"
);
}
);
};
components = (
{
name = A;
},
{
name = tildecomb.case;
transform = "{1, 0, 0, 1, 91, 2}";
}
);
layerId = UUID0;
width = 631;
},
{
background = {
anchors = (
{
name = bottom;
position = "{300, 0}";
},
{
name = ogonek;
position = "{600, 0}";
},
{
name = top;
position = "{359, 949}";
}
);
paths = (
{
closed = 1;
nodes = (
"317 718 LINE",
"94 183 LINE SMOOTH",
"68 123 OFFCURVE",
"47 69 OFFCURVE",
"-8 69 CURVE",
"-12 0 LINE",
"202 0 LINE",
"207 80 LINE",
"133 77 LINE",
"146 100 OFFCURVE",
"162 140 OFFCURVE",
"169 158 CURVE",
"188 205 LINE",
"407 209 LINE",
"424 154 LINE SMOOTH",
"440 104 OFFCURVE",
"438 66 OFFCURVE",
"382 66 CURVE",
"378 0 LINE",
"646 0 LINE",
"649 77 LINE",
"592 74 LINE",
"590 104 OFFCURVE",
"575 153 OFFCURVE",
"569 173 CURVE SMOOTH",
"384 718 LINE"
);
},
{
closed = 1;
nodes = (
"319 505 OFFCURVE",
"332 453 OFFCURVE",
"346 405 CURVE SMOOTH",
"385 280 LINE",
"217 280 LINE",
"268 410 LINE",
"293 472 OFFCURVE",
"309 519 OFFCURVE",
"315 542 CURVE"
);
},
{
closed = 1;
nodes = (
"340 848 OFFCURVE",
"371 798 OFFCURVE",
"433 798 CURVE SMOOTH",
"474 798 OFFCURVE",
"530 819 OFFCURVE",
"566 922 CURVE",
"514 949 LINE",
"495 911 OFFCURVE",
"454 887 OFFCURVE",
"428 887 CURVE SMOOTH",
"377 887 OFFCURVE",
"347 937 OFFCURVE",
"281 937 CURVE SMOOTH",
"233 937 OFFCURVE",
"175 905 OFFCURVE",
"145 831 CURVE",
"196 799 LINE",
"223 839 OFFCURVE",
"260 848 OFFCURVE",
"285 848 CURVE SMOOTH"
);
}
);
};
components = (
{
name = A;
},
{
name = tildecomb.case;
transform = "{1, 0, 0, 1, 100, 0}";
}
);
layerId = "6B2A2AD0-3CEC-4B3D-96BE-6A11A3496094";
width = 667;
}
);
leftKerningGroup = A;
rightKerningGroup = A;
unicode = 00C3;
},
{
glyphname = AE;
layers = (
{
background = {
paths = (
{
closed = 1;
nodes = (
"162 0 LINE",
"164 44 LINE",
"87 40 LINE",
"87 41 LINE",
"114 79 OFFCURVE",
"142 116 OFFCURVE",
"169 154 CURVE",
"214 216 LINE",
"295 218 OFFCURVE",
"377 219 OFFCURVE",
"458 221 CURVE",
"453 130 LINE SMOOTH",
"450 69 OFFCURVE",
"439 37 OFFCURVE",
"379 36 CURVE",
"377 0 LINE",
"889 0 LINE",
"905 195 LINE",
"871 195 LINE",
"865 77 OFFCURVE",
"808 36 OFFCURVE",
"721 37 CURVE SMOOTH",
"528 40 LINE",
"531 57 OFFCURVE",
"533 82 OFFCURVE",
"535 118 CURVE SMOOTH",
"547 345 LINE",
"571 346 OFFCURVE",
"596 347 OFFCURVE",
"621 347 CURVE SMOOTH",
"705 347 OFFCURVE",
"739 347 OFFCURVE",
"735 259 CURVE",
"768 259 LINE",
"779 477 LINE",
"746 477 LINE",
"742 389 OFFCURVE",
"707 383 OFFCURVE",
"623 383 CURVE SMOOTH",
"549 383 LINE",
"558 544 LINE SMOOTH",
"563 625 OFFCURVE",
"565 661 OFFCURVE",
"640 663 CURVE SMOOTH",
"726 665 LINE SMOOTH",
"801 667 OFFCURVE",
"860 643 OFFCURVE",
"854 525 CURVE",
"887 525 LINE",
"891 700 LINE",
"395 700 LINE",
"393 656 LINE",
"423 657 OFFCURVE",
"453 659 OFFCURVE",
"483 660 CURVE",
"94 125 LINE SMOOTH",
"65 85 OFFCURVE",
"30 33 OFFCURVE",
"-22 33 CURVE",
"-24 0 LINE"
);
},
{
closed = 1;
nodes = (
"381 450 LINE",
"412 494 OFFCURVE",
"444 538 OFFCURVE",
"475 582 CURVE",
"476 582 LINE",
"460 259 LINE",
"245 259 LINE"
);
}
);
};
layerId = UUID0;
paths = (
{
closed = 1;
nodes = (
"162 0 LINE",
"164 44 LINE",
"87 40 LINE",
"87 41 LINE",
"114 79 OFFCURVE",
"142 116 OFFCURVE",
"169 154 CURVE",
"214 216 LINE",
"295 218 OFFCURVE",
"377 219 OFFCURVE",
"458 221 CURVE",
"453 130 LINE SMOOTH",
"450 69 OFFCURVE",
"439 37 OFFCURVE",
"379 36 CURVE",
"377 0 LINE",
"889 0 LINE",
"905 195 LINE",
"871 195 LINE",
"865 77 OFFCURVE",
"808 36 OFFCURVE",
"721 37 CURVE SMOOTH",
"528 40 LINE",
"531 57 OFFCURVE",
"533 82 OFFCURVE",
"535 118 CURVE SMOOTH",
"547 345 LINE",
"571 346 OFFCURVE",
"596 347 OFFCURVE",
"621 347 CURVE SMOOTH",
"705 347 OFFCURVE",
"739 347 OFFCURVE",
"735 259 CURVE",
"768 259 LINE",
"779 477 LINE",
"746 477 LINE",
"742 389 OFFCURVE",
"707 383 OFFCURVE",
"623 383 CURVE SMOOTH",
"549 383 LINE",
"558 544 LINE SMOOTH",
"563 625 OFFCURVE",
"565 661 OFFCURVE",
"640 663 CURVE SMOOTH",
"726 665 LINE SMOOTH",
"801 667 OFFCURVE",
"860 643 OFFCURVE",
"854 525 CURVE",
"887 525 LINE",
"891 700 LINE",
"395 700 LINE",
"393 656 LINE",
"423 657 OFFCURVE",
"453 659 OFFCURVE",
"483 660 CURVE",
"94 125 LINE SMOOTH",
"65 85 OFFCURVE",
"30 33 OFFCURVE",
"-22 33 CURVE",
"-24 0 LINE"
);
},
{
closed = 1;
nodes = (
"381 450 LINE",
"412 494 OFFCURVE",
"444 538 OFFCURVE",
"475 582 CURVE",
"476 582 LINE",
"460 259 LINE",
"245 259 LINE"
);
}
);
width = 955;
},
{
background = {
paths = (
{
closed = 1;
nodes = (
"200 0 LINE",
"204 77 LINE",
"124 74 LINE",
"124 75 LINE",
"146 91 OFFCURVE",
"168 120 OFFCURVE",
"191 151 CURVE SMOOTH",
"229 202 LINE",
"292 203 OFFCURVE",
"363 206 OFFCURVE",
"424 207 CURVE",
"422 153 LINE SMOOTH",
"418 72 OFFCURVE",
"391 68 OFFCURVE",
"346 66 CURVE",
"343 0 LINE",
"868 0 LINE",
"886 220 LINE",
"820 220 LINE",
"814 112 OFFCURVE",
"750 76 OFFCURVE",
"690 76 CURVE SMOOTH",
"556 76 LINE",
"560 93 OFFCURVE",
"563 128 OFFCURVE",
"565 164 CURVE SMOOTH",
"573 328 LINE",
"582 328 OFFCURVE",
"591 329 OFFCURVE",
"600 329 CURVE SMOOTH",
"654 330 OFFCURVE",
"698 325 OFFCURVE",
"693 241 CURVE",
"759 241 LINE",
"772 484 LINE",
"695 484 LINE",
"695 459 OFFCURVE",
"694 425 OFFCURVE",
"695 397 CURVE",
"577 397 LINE",
"585 547 LINE SMOOTH",
"589 625 OFFCURVE",
"614 633 OFFCURVE",
"656 634 CURVE SMOOTH",
"692 635 LINE SMOOTH",
"747 637 OFFCURVE",
"813 615 OFFCURVE",
"807 506 CURVE",
"873 506 LINE",
"877 700 LINE",
"379 700 LINE",
"375 623 LINE",
"390 624 OFFCURVE",
"429 625 OFFCURVE",
"451 625 CURVE",
"104 171 LINE SMOOTH",
"68 124 OFFCURVE",
"26 66 OFFCURVE",
"-21 66 CURVE",
"-24 0 LINE"
);
},
{
closed = 1;
nodes = (
"368 392 LINE SMOOTH",
"411 449 OFFCURVE",
"419 460 OFFCURVE",
"444 501 CURVE",
"445 501 LINE",
"428 276 LINE",
"281 276 LINE"
);
}
);
};
layerId = "6B2A2AD0-3CEC-4B3D-96BE-6A11A3496094";
paths = (
{
closed = 1;
nodes = (
"200 0 LINE",
"204 77 LINE",
"124 74 LINE",
"124 75 LINE",
"146 91 OFFCURVE",
"168 120 OFFCURVE",
"191 151 CURVE SMOOTH",
"229 202 LINE",
"292 203 OFFCURVE",
"363 206 OFFCURVE",
"424 207 CURVE",
"422 153 LINE SMOOTH",
"418 72 OFFCURVE",
"391 68 OFFCURVE",
"346 66 CURVE",
"343 0 LINE",
"868 0 LINE",
"886 220 LINE",
"820 220 LINE",
"814 112 OFFCURVE",
"750 76 OFFCURVE",
"690 76 CURVE SMOOTH",
"556 76 LINE",
"560 93 OFFCURVE",
"563 128 OFFCURVE",
"565 164 CURVE SMOOTH",
"573 328 LINE",
"582 328 OFFCURVE",
"591 329 OFFCURVE",
"600 329 CURVE SMOOTH",
"654 330 OFFCURVE",
"698 325 OFFCURVE",
"693 241 CURVE",
"759 241 LINE",
"772 484 LINE",
"695 484 LINE",
"695 459 OFFCURVE",
"694 425 OFFCURVE",
"695 397 CURVE",
"577 397 LINE",
"585 547 LINE SMOOTH",
"589 625 OFFCURVE",
"614 633 OFFCURVE",
"656 634 CURVE SMOOTH",
"692 635 LINE SMOOTH",
"747 637 OFFCURVE",
"813 615 OFFCURVE",
"807 506 CURVE",
"873 506 LINE",
"877 700 LINE",
"379 700 LINE",
"375 623 LINE",
"390 624 OFFCURVE",
"429 625 OFFCURVE",
"451 625 CURVE",
"104 171 LINE SMOOTH",
"68 124 OFFCURVE",
"26 66 OFFCURVE",
"-21 66 CURVE",
"-24 0 LINE"
);
},
{
closed = 1;
nodes = (
"368 392 LINE SMOOTH",
"411 449 OFFCURVE",
"419 460 OFFCURVE",
"444 501 CURVE",
"445 501 LINE",
"428 276 LINE",
"281 276 LINE"
);
}
);
width = 931;
}
);
leftKerningGroup = A;
rightKerningGroup = E;
unicode = 00C6;
},
{
glyphname = B;
layers = (
{
background = {
paths = (
{
closed = 1;
nodes = (
"220 702 OFFCURVE",
"150 700 OFFCURVE",
"77 700 CURVE",
"74 656 LINE",
"98 657 OFFCURVE",
"123 659 OFFCURVE",
"147 660 CURVE",
"144 643 OFFCURVE",
"141 617 OFFCURVE",
"140 581 CURVE SMOOTH",
"118 161 LINE",
"114 86 OFFCURVE",
"117 35 OFFCURVE",
"42 33 CURVE",
"40 0 LINE",
"329 0 LINE SMOOTH",
"464 0 OFFCURVE",
"566 73 OFFCURVE",
"572 196 CURVE SMOOTH",
"578 299 OFFCURVE",
"510 374 OFFCURVE",
"363 374 CURVE",
"363 376 LINE",
"474 396 OFFCURVE",
"529 466 OFFCURVE",
"533 531 CURVE SMOOTH",
"541 649 OFFCURVE",
"455 702 OFFCURVE",
"300 702 CURVE SMOOTH"
);
},
{
closed = 1;
nodes = (
"405 347 OFFCURVE",
"484 308 OFFCURVE",
"478 190 CURVE SMOOTH",
"473 90 OFFCURVE",
"401 39 OFFCURVE",
"298 39 CURVE SMOOTH",
"285 39 OFFCURVE",
"223 38 OFFCURVE",
"192 41 CURVE",
"195 58 OFFCURVE",
"197 83 OFFCURVE",
"199 119 CURVE SMOOTH",
"211 344 LINE",
"243 346 OFFCURVE",
"274 347 OFFCURVE",
"314 347 CURVE SMOOTH"
);
},
{
closed = 1;
nodes = (
"369 666 OFFCURVE",
"449 644 OFFCURVE",
"445 536 CURVE SMOOTH",
"442 462 OFFCURVE",
"400 390 OFFCURVE",
"286 385 CURVE SMOOTH",
"264 384 OFFCURVE",
"238 383 OFFCURVE",
"213 383 CURVE",
"223 569 LINE SMOOTH",
"227 642 OFFCURVE",
"238 666 OFFCURVE",
"303 666 CURVE SMOOTH"
);
}
);
};
layerId = UUID0;
paths = (
{
closed = 1;
nodes = (
"220 702 OFFCURVE",
"150 700 OFFCURVE",
"77 700 CURVE",
"74 656 LINE",
"98 657 OFFCURVE",
"123 659 OFFCURVE",
"147 660 CURVE",
"144 643 OFFCURVE",
"141 617 OFFCURVE",
"140 581 CURVE SMOOTH",
"118 161 LINE",
"114 86 OFFCURVE",
"117 35 OFFCURVE",
"42 33 CURVE",
"40 0 LINE",
"329 0 LINE SMOOTH",
"464 0 OFFCURVE",
"566 73 OFFCURVE",
"572 196 CURVE SMOOTH",
"578 299 OFFCURVE",
"510 374 OFFCURVE",
"363 374 CURVE",
"363 376 LINE",
"474 396 OFFCURVE",
"529 466 OFFCURVE",
"533 531 CURVE SMOOTH",
"541 649 OFFCURVE",
"455 702 OFFCURVE",
"300 702 CURVE SMOOTH"
);
},
{
closed = 1;
nodes = (
"405 347 OFFCURVE",
"484 308 OFFCURVE",
"478 190 CURVE SMOOTH",
"473 90 OFFCURVE",
"401 39 OFFCURVE",
"298 39 CURVE SMOOTH",
"285 39 OFFCURVE",
"223 38 OFFCURVE",
"192 41 CURVE",
"195 58 OFFCURVE",
"197 83 OFFCURVE",
"199 119 CURVE SMOOTH",
"211 344 LINE",
"243 346 OFFCURVE",
"274 347 OFFCURVE",
"314 347 CURVE SMOOTH"
);
},
{
closed = 1;
nodes = (
"369 666 OFFCURVE",
"449 644 OFFCURVE",
"445 536 CURVE SMOOTH",
"442 462 OFFCURVE",
"400 390 OFFCURVE",
"286 385 CURVE SMOOTH",
"264 384 OFFCURVE",
"238 383 OFFCURVE",
"213 383 CURVE",
"223 569 LINE SMOOTH",
"227 642 OFFCURVE",
"238 666 OFFCURVE",
"303 666 CURVE SMOOTH"
);
}
);
width = 619;
},
{
background = {
paths = (
{
closed = 1;
nodes = (
"255 701 OFFCURVE",
"164 701 OFFCURVE",
"72 700 CURVE",
"68 623 LINE",
"82 624 OFFCURVE",
"122 625 OFFCURVE",
"143 626 CURVE",
"140 609 OFFCURVE",
"136 572 OFFCURVE",
"134 536 CURVE SMOOTH",
"114 153 LINE SMOOTH",
"110 72 OFFCURVE",
"83 68 OFFCURVE",
"39 66 CURVE",
"35 0 LINE",
"373 0 LINE SMOOTH",
"513 0 OFFCURVE",
"617 69 OFFCURVE",
"624 199 CURVE SMOOTH",
"628 282 OFFCURVE",
"573 357 OFFCURVE",
"442 378 CURVE",
"442 379 LINE",
"537 404 OFFCURVE",
"583 462 OFFCURVE",
"590 520 CURVE SMOOTH",
"604 642 OFFCURVE",
"506 703 OFFCURVE",
"347 702 CURVE SMOOTH"
);
},
{
closed = 1;
nodes = (
"411 323 OFFCURVE",
"474 294 OFFCURVE",
"469 202 CURVE SMOOTH",
"465 128 OFFCURVE",
"427 76 OFFCURVE",
"346 72 CURVE SMOOTH",
"314 71 OFFCURVE",
"283 71 OFFCURVE",
"248 71 CURVE",
"251 88 OFFCURVE",
"255 123 OFFCURVE",
"257 159 CURVE SMOOTH",
"265 322 LINE",
"291 323 OFFCURVE",
"313 323 OFFCURVE",
"346 323 CURVE SMOOTH"
);
},
{
closed = 1;
nodes = (
"391 633 OFFCURVE",
"445 607 OFFCURVE",
"440 528 CURVE SMOOTH",
"437 455 OFFCURVE",
"406 396 OFFCURVE",
"321 394 CURVE",
"304 394 OFFCURVE",
"286 393 OFFCURVE",
"269 393 CURVE",
"277 548 LINE SMOOTH",
"281 625 OFFCURVE",
"307 631 OFFCURVE",
"340 632 CURVE SMOOTH"
);
}
);
};
layerId = "6B2A2AD0-3CEC-4B3D-96BE-6A11A3496094";
paths = (
{
closed = 1;
nodes = (
"255 701 OFFCURVE",
"164 701 OFFCURVE",
"72 700 CURVE",
"68 623 LINE",
"82 624 OFFCURVE",
"122 625 OFFCURVE",
"143 626 CURVE",
"140 609 OFFCURVE",
"136 572 OFFCURVE",
"134 536 CURVE SMOOTH",
"114 153 LINE SMOOTH",
"110 72 OFFCURVE",
"83 68 OFFCURVE",
"39 66 CURVE",
"35 0 LINE",
"373 0 LINE SMOOTH",
"513 0 OFFCURVE",
"617 69 OFFCURVE",
"624 199 CURVE SMOOTH",
"628 282 OFFCURVE",
"573 357 OFFCURVE",
"442 378 CURVE",
"442 379 LINE",
"537 404 OFFCURVE",
"583 462 OFFCURVE",
"590 520 CURVE SMOOTH",
"604 642 OFFCURVE",
"506 703 OFFCURVE",
"347 702 CURVE SMOOTH"
);
},
{
closed = 1;
nodes = (
"411 323 OFFCURVE",
"474 294 OFFCURVE",
"469 202 CURVE SMOOTH",
"465 128 OFFCURVE",
"427 76 OFFCURVE",
"346 72 CURVE SMOOTH",
"314 71 OFFCURVE",
"283 71 OFFCURVE",
"248 71 CURVE",
"251 88 OFFCURVE",
"255 123 OFFCURVE",
"257 159 CURVE SMOOTH",
"265 322 LINE",
"291 323 OFFCURVE",
"313 323 OFFCURVE",
"346 323 CURVE SMOOTH"
);
},
{
closed = 1;
nodes = (
"391 633 OFFCURVE",
"445 607 OFFCURVE",
"440 528 CURVE SMOOTH",
"437 455 OFFCURVE",
"406 396 OFFCURVE",
"321 394 CURVE",
"304 394 OFFCURVE",
"286 393 OFFCURVE",
"269 393 CURVE",
"277 548 LINE SMOOTH",
"281 625 OFFCURVE",
"307 631 OFFCURVE",
"340 632 CURVE SMOOTH"
);
}
);
width = 659;
}
);
leftKerningGroup = I;
unicode = 0042;
},
{
glyphname = C;
layers = (
{
anchors = (
{
name = bottom;
position = "{389, 0}";
},
{
name = top;
position = "{429, 702}";
}
);
background = {
anchors = (
{
name = bottom;
position = "{389, 0}";
},
{
name = top;
position = "{429, 702}";
}
);
paths = (
{
closed = 1;
nodes = (
"179 716 OFFCURVE",
"60 527 OFFCURVE",
"50 339 CURVE",
"40 140 OFFCURVE",
"165 -16 OFFCURVE",
"366 -16 CURVE SMOOTH",
"447 -16 OFFCURVE",
"564 11 OFFCURVE",
"656 127 CURVE",
"631 148 LINE",
"573 74 OFFCURVE",
"481 36 OFFCURVE",
"395 36 CURVE SMOOTH",
"247 36 OFFCURVE",
"134 165 OFFCURVE",
"144 354 CURVE",
"154 550 OFFCURVE",
"274 675 OFFCURVE",
"416 675 CURVE SMOOTH",
"532 675 OFFCURVE",
"607 604 OFFCURVE",
"614 479 CURVE",
"650 479 LINE",
"662 710 LINE",
"608 710 LINE",
"610 656 LINE",
"609 656 LINE",
"550 696 OFFCURVE",
"487 716 OFFCURVE",
"412 716 CURVE SMOOTH"
);
}
);
};
layerId = UUID0;
paths = (
{
closed = 1;
nodes = (
"179 716 OFFCURVE",
"60 527 OFFCURVE",
"50 339 CURVE",
"40 140 OFFCURVE",
"165 -16 OFFCURVE",
"366 -16 CURVE SMOOTH",
"447 -16 OFFCURVE",
"564 11 OFFCURVE",
"656 127 CURVE",
"631 148 LINE",
"573 74 OFFCURVE",
"481 36 OFFCURVE",
"395 36 CURVE SMOOTH",
"247 36 OFFCURVE",
"134 165 OFFCURVE",
"144 354 CURVE",
"154 550 OFFCURVE",
"274 675 OFFCURVE",
"416 675 CURVE SMOOTH",
"532 675 OFFCURVE",
"607 604 OFFCURVE",
"614 479 CURVE",
"650 479 LINE",
"662 710 LINE",
"608 710 LINE",
"610 656 LINE",
"609 656 LINE",
"550 696 OFFCURVE",
"487 716 OFFCURVE",
"412 716 CURVE SMOOTH"
);
}
);
width = 686;
},
{
anchors = (
{
name = bottom;
position = "{394, 0}";
},
{
name = top;
position = "{423, 700}";
}
);
background = {
anchors = (
{
name = bottom;
position = "{394, 0}";
},
{
name = top;
position = "{423, 700}";
}
);
paths = (
{
closed = 1;
nodes = (
"175 716 OFFCURVE",
"48 522 OFFCURVE",
"38 340 CURVE SMOOTH",
"28 141 OFFCURVE",
"156 -16 OFFCURVE",
"362 -16 CURVE SMOOTH",
"445 -16 OFFCURVE",
"567 9 OFFCURVE",
"671 144 CURVE",
"632 184 LINE",
"564 96 OFFCURVE",
"471 59 OFFCURVE",
"391 60 CURVE SMOOTH",
"256 61 OFFCURVE",
"185 188 OFFCURVE",
"194 360 CURVE SMOOTH",
"202 504 OFFCURVE",
"277 649 OFFCURVE",
"417 648 CURVE SMOOTH",
"510 648 OFFCURVE",
"564 587 OFFCURVE",
"576 476 CURVE",
"642 476 LINE",
"654 709 LINE",
"577 709 LINE",
"578 667 LINE",
"577 667 LINE",
"525 699 OFFCURVE",
"460 716 OFFCURVE",
"408 716 CURVE SMOOTH"
);
}
);
};
layerId = "6B2A2AD0-3CEC-4B3D-96BE-6A11A3496094";
paths = (
{
closed = 1;
nodes = (
"175 716 OFFCURVE",
"48 522 OFFCURVE",
"38 340 CURVE SMOOTH",
"28 141 OFFCURVE",
"156 -16 OFFCURVE",
"362 -16 CURVE SMOOTH",
"445 -16 OFFCURVE",
"567 9 OFFCURVE",
"671 144 CURVE",
"632 184 LINE",
"564 96 OFFCURVE",
"471 59 OFFCURVE",
"391 60 CURVE SMOOTH",
"256 61 OFFCURVE",
"185 188 OFFCURVE",
"194 360 CURVE SMOOTH",
"202 504 OFFCURVE",
"277 649 OFFCURVE",
"417 648 CURVE SMOOTH",
"510 648 OFFCURVE",
"564 587 OFFCURVE",
"576 476 CURVE",
"642 476 LINE",
"654 709 LINE",
"577 709 LINE",
"578 667 LINE",
"577 667 LINE",
"525 699 OFFCURVE",
"460 716 OFFCURVE",
"408 716 CURVE SMOOTH"
);
}
);
width = 690;
}
);
leftKerningGroup = O;
rightKerningGroup = C;
unicode = 0043;
},
{
glyphname = Cacute;
layers = (
{
background = {
anchors = (
{
name = bottom;
position = "{389, 0}";
},
{
name = top;
position = "{429, 702}";
}
);
paths = (
{
closed = 1;
nodes = (
"179 716 OFFCURVE",
"60 527 OFFCURVE",
"50 339 CURVE",
"40 140 OFFCURVE",
"165 -16 OFFCURVE",
"366 -16 CURVE SMOOTH",
"447 -16 OFFCURVE",
"564 11 OFFCURVE",
"656 127 CURVE",
"631 148 LINE",
"573 74 OFFCURVE",
"481 36 OFFCURVE",
"395 36 CURVE SMOOTH",
"247 36 OFFCURVE",
"134 165 OFFCURVE",
"144 354 CURVE",
"154 550 OFFCURVE",
"274 675 OFFCURVE",
"416 675 CURVE SMOOTH",
"532 675 OFFCURVE",
"607 604 OFFCURVE",
"614 479 CURVE",
"650 479 LINE",
"662 710 LINE",
"608 710 LINE",
"610 656 LINE",
"609 656 LINE",
"550 696 OFFCURVE",
"487 716 OFFCURVE",
"412 716 CURVE SMOOTH"
);
},
{
closed = 1;
nodes = (
"490 876 LINE SMOOTH",
"525 913 OFFCURVE",
"511 937 OFFCURVE",
"503 945 CURVE SMOOTH",
"497 951 OFFCURVE",
"468 967 OFFCURVE",
"441 921 CURVE SMOOTH",
"363 789 LINE",
"387 769 LINE"
);
}
);
};
components = (
{
name = C;
},
{
name = acutecomb.case;
transform = "{1, 0, 0, 1, 346, 2}";
}
);
layerId = UUID0;
width = 686;
},
{
background = {
anchors = (
{
name = bottom;
position = "{394, 0}";
},
{
name = top;
position = "{423, 700}";
}
);
paths = (
{
closed = 1;
nodes = (
"175 716 OFFCURVE",
"48 522 OFFCURVE",
"38 340 CURVE SMOOTH",
"28 141 OFFCURVE",
"156 -16 OFFCURVE",
"362 -16 CURVE SMOOTH",
"445 -16 OFFCURVE",
"567 9 OFFCURVE",
"671 144 CURVE",
"632 184 LINE",
"564 96 OFFCURVE",
"471 59 OFFCURVE",
"391 60 CURVE SMOOTH",
"256 61 OFFCURVE",
"185 188 OFFCURVE",
"194 360 CURVE SMOOTH",
"202 504 OFFCURVE",
"277 649 OFFCURVE",
"417 648 CURVE SMOOTH",
"510 648 OFFCURVE",
"564 587 OFFCURVE",
"576 476 CURVE",
"642 476 LINE",
"654 709 LINE",
"577 709 LINE",
"578 667 LINE",
"577 667 LINE",
"525 699 OFFCURVE",
"460 716 OFFCURVE",
"408 716 CURVE SMOOTH"
);
},
{
closed = 1;
nodes = (
"493 871 LINE SMOOTH",
"522 895 OFFCURVE",
"537 942 OFFCURVE",
"506 970 CURVE SMOOTH",
"477 996 OFFCURVE",
"433 980 OFFCURVE",
"411 946 CURVE SMOOTH",
"322 806 LINE",
"366 765 LINE"
);
}
);
};
components = (
{
name = C;
},
{
name = acutecomb.case;
transform = "{1, 0, 0, 1, 313, 0}";
}
);
layerId = "6B2A2AD0-3CEC-4B3D-96BE-6A11A3496094";
width = 690;
}
);
leftKerningGroup = O;
rightKerningGroup = C;
unicode = 0106;
},
{
glyphname = Ccaron;
layers = (
{
background = {
anchors = (
{
name = bottom;
position = "{389, 0}";
},
{
name = top;
position = "{442, 947}";
}
);
paths = (
{
closed = 1;
nodes = (
"179 716 OFFCURVE",
"60 527 OFFCURVE",
"50 339 CURVE",
"40 140 OFFCURVE",
"165 -16 OFFCURVE",
"366 -16 CURVE SMOOTH",
"447 -16 OFFCURVE",
"564 11 OFFCURVE",
"656 127 CURVE",
"631 148 LINE",
"573 74 OFFCURVE",
"481 36 OFFCURVE",
"395 36 CURVE SMOOTH",
"247 36 OFFCURVE",
"134 165 OFFCURVE",
"144 354 CURVE",
"154 550 OFFCURVE",
"274 675 OFFCURVE",
"416 675 CURVE SMOOTH",
"532 675 OFFCURVE",
"607 604 OFFCURVE",
"614 479 CURVE",
"650 479 LINE",
"662 710 LINE",
"608 710 LINE",
"610 656 LINE",
"609 656 LINE",
"550 696 OFFCURVE",
"487 716 OFFCURVE",
"412 716 CURVE SMOOTH"
);
},
{
closed = 1;
nodes = (
"626 921 LINE",
"611 947 LINE",
"434 850 LINE",
"267 945 LINE",
"248 916 LINE",
"431 773 LINE",
"433 773 LINE"
);
}
);
};
components = (
{
name = C;
},
{
name = caroncomb.case;
transform = "{1, 0, 0, 1, 188, 2}";
}
);
layerId = UUID0;
width = 686;
},
{
background = {
anchors = (
{
name = bottom;
position = "{394, 0}";
},
{
name = top;
position = "{437, 962}";
}
);
paths = (
{
closed = 1;
nodes = (
"175 716 OFFCURVE",
"48 522 OFFCURVE",
"38 340 CURVE SMOOTH",
"28 141 OFFCURVE",
"156 -16 OFFCURVE",
"362 -16 CURVE SMOOTH",
"445 -16 OFFCURVE",
"567 9 OFFCURVE",
"671 144 CURVE",
"632 184 LINE",
"564 96 OFFCURVE",
"471 59 OFFCURVE",
"391 60 CURVE SMOOTH",
"256 61 OFFCURVE",
"185 188 OFFCURVE",
"194 360 CURVE SMOOTH",
"202 504 OFFCURVE",
"277 649 OFFCURVE",
"417 648 CURVE SMOOTH",
"510 648 OFFCURVE",
"564 587 OFFCURVE",
"576 476 CURVE",
"642 476 LINE",
"654 709 LINE",
"577 709 LINE",
"578 667 LINE",
"577 667 LINE",
"525 699 OFFCURVE",
"460 716 OFFCURVE",
"408 716 CURVE SMOOTH"
);
},
{
closed = 1;
nodes = (
"641 922 LINE",
"621 962 LINE",
"430 875 LINE",
"250 962 LINE",
"222 921 LINE",
"409 770 LINE",
"429 770 LINE"
);
}
);
};
components = (
{
name = C;
},
{
name = caroncomb.case;
transform = "{1, 0, 0, 1, 177, 0}";
}
);
layerId = "6B2A2AD0-3CEC-4B3D-96BE-6A11A3496094";
width = 690;
}
);
leftKerningGroup = O;
rightKerningGroup = C;
unicode = 010C;
},
{
glyphname = Ccedilla;
layers = (
{
background = {
anchors = (
{
name = bottom;
position = "{384, -251}";
},
{
name = top;
position = "{429, 702}";
}
);
paths = (
{
closed = 1;
nodes = (
"179 716 OFFCURVE",
"60 527 OFFCURVE",
"50 339 CURVE",
"40 140 OFFCURVE",
"165 -16 OFFCURVE",
"366 -16 CURVE SMOOTH",
"447 -16 OFFCURVE",
"564 11 OFFCURVE",
"656 127 CURVE",
"631 148 LINE",
"573 74 OFFCURVE",
"481 36 OFFCURVE",
"395 36 CURVE SMOOTH",
"247 36 OFFCURVE",
"134 165 OFFCURVE",
"144 354 CURVE",
"154 550 OFFCURVE",
"274 675 OFFCURVE",
"416 675 CURVE SMOOTH",
"532 675 OFFCURVE",
"607 604 OFFCURVE",
"614 479 CURVE",
"650 479 LINE",
"662 710 LINE",
"608 710 LINE",
"610 656 LINE",
"609 656 LINE",
"550 696 OFFCURVE",
"487 716 OFFCURVE",
"412 716 CURVE SMOOTH"
);
},
{
closed = 1;
nodes = (
"358 -241 OFFCURVE",
"492 -209 OFFCURVE",
"498 -128 CURVE SMOOTH",
"501 -90 OFFCURVE",
"481 -57 OFFCURVE",
"430 -57 CURVE SMOOTH",
"414 -57 OFFCURVE",
"382 -63 OFFCURVE",
"362 -75 CURVE",
"394 8 LINE",
"336 8 LINE",
"302 -102 LINE",
"334 -119 LINE",
"347 -109 OFFCURVE",
"365 -104 OFFCURVE",
"381 -104 CURVE SMOOTH",
"403 -104 OFFCURVE",
"417 -115 OFFCURVE",
"416 -137 CURVE SMOOTH",
"414 -176 OFFCURVE",
"352 -206 OFFCURVE",
"284 -218 CURVE",
"290 -251 LINE"
);
}
);
};
components = (
{
name = C;
},
{
name = cedillacomb.case;
transform = "{1, 0, 0, 1, 239, 0}";
}
);
layerId = UUID0;
width = 686;
},
{
background = {
anchors = (
{
name = bottom;
position = "{378, -275}";
},
{
name = top;
position = "{423, 700}";
}
);
paths = (
{
closed = 1;
nodes = (
"175 716 OFFCURVE",
"48 522 OFFCURVE",
"38 340 CURVE SMOOTH",
"28 141 OFFCURVE",
"156 -16 OFFCURVE",
"362 -16 CURVE SMOOTH",
"445 -16 OFFCURVE",
"567 9 OFFCURVE",
"671 144 CURVE",
"632 184 LINE",
"564 96 OFFCURVE",
"471 59 OFFCURVE",
"391 60 CURVE SMOOTH",
"256 61 OFFCURVE",
"185 188 OFFCURVE",
"194 360 CURVE SMOOTH",
"202 504 OFFCURVE",
"277 649 OFFCURVE",
"417 648 CURVE SMOOTH",
"510 648 OFFCURVE",
"564 587 OFFCURVE",
"576 476 CURVE",
"642 476 LINE",
"654 709 LINE",
"577 709 LINE",
"578 667 LINE",
"577 667 LINE",
"525 699 OFFCURVE",
"460 716 OFFCURVE",
"408 716 CURVE SMOOTH"
);
},
{
closed = 1;
nodes = (
"346 -264 OFFCURVE",
"502 -219 OFFCURVE",
"507 -125 CURVE SMOOTH",
"509 -78 OFFCURVE",
"476 -53 OFFCURVE",
"435 -52 CURVE SMOOTH",
"417 -51 OFFCURVE",
"383 -59 OFFCURVE",
"365 -67 CURVE",
"398 10 LINE",
"318 10 LINE",
"280 -121 LINE",
"321 -136 LINE",
"331 -128 OFFCURVE",
"349 -121 OFFCURVE",
"364 -121 CURVE SMOOTH",
"378 -121 OFFCURVE",
"390 -128 OFFCURVE",
"389 -146 CURVE SMOOTH",
"387 -187 OFFCURVE",
"296 -214 OFFCURVE",
"264 -220 CURVE",
"269 -275 LINE"
);
}
);
};
components = (
{
name = C;
},
{
name = cedillacomb.case;
transform = "{1, 0, 0, 1, 219, 0}";
}
);
layerId = "6B2A2AD0-3CEC-4B3D-96BE-6A11A3496094";
width = 690;
}
);
leftKerningGroup = O;
rightKerningGroup = C;
unicode = 00C7;
},
{
glyphname = Ccircumflex;
layers = (
{
background = {
anchors = (
{
name = bottom;
position = "{389, 0}";
},
{
name = top;
position = "{429, 702}";
}
);
paths = (
{
closed = 1;
nodes = (
"179 716 OFFCURVE",
"60 527 OFFCURVE",
"50 339 CURVE",
"40 140 OFFCURVE",
"165 -16 OFFCURVE",
"366 -16 CURVE SMOOTH",
"447 -16 OFFCURVE",
"564 11 OFFCURVE",
"656 127 CURVE",
"631 148 LINE",
"573 74 OFFCURVE",
"481 36 OFFCURVE",
"395 36 CURVE SMOOTH",
"247 36 OFFCURVE",
"134 165 OFFCURVE",
"144 354 CURVE",
"154 550 OFFCURVE",
"274 675 OFFCURVE",
"416 675 CURVE SMOOTH",
"532 675 OFFCURVE",
"607 604 OFFCURVE",
"614 479 CURVE",
"650 479 LINE",
"662 710 LINE",
"608 710 LINE",
"610 656 LINE",
"609 656 LINE",
"550 696 OFFCURVE",
"487 716 OFFCURVE",
"412 716 CURVE SMOOTH"
);
},
{
closed = 1;
nodes = (
"626 791 LINE",
"445 932 LINE",
"443 932 LINE",
"247 792 LINE",
"262 765 LINE",
"432 852 LINE",
"608 763 LINE"
);
}
);
};
components = (
{
name = C;
},
{
name = circumflexcomb.case;
transform = "{1, 0, 0, 1, 202, 2}";
}
);
layerId = UUID0;
width = 686;
},
{
background = {
anchors = (
{
name = bottom;
position = "{394, 0}";
},
{
name = top;
position = "{423, 700}";
}
);
paths = (
{
closed = 1;
nodes = (
"175 716 OFFCURVE",
"48 522 OFFCURVE",
"38 340 CURVE SMOOTH",
"28 141 OFFCURVE",
"156 -16 OFFCURVE",
"362 -16 CURVE SMOOTH",
"445 -16 OFFCURVE",
"567 9 OFFCURVE",
"671 144 CURVE",
"632 184 LINE",
"564 96 OFFCURVE",
"471 59 OFFCURVE",
"391 60 CURVE SMOOTH",
"256 61 OFFCURVE",
"185 188 OFFCURVE",
"194 360 CURVE SMOOTH",
"202 504 OFFCURVE",
"277 649 OFFCURVE",
"417 648 CURVE SMOOTH",
"510 648 OFFCURVE",
"564 587 OFFCURVE",
"576 476 CURVE",
"642 476 LINE",
"654 709 LINE",
"577 709 LINE",
"578 667 LINE",
"577 667 LINE",
"525 699 OFFCURVE",
"460 716 OFFCURVE",
"408 716 CURVE SMOOTH"
);
},
{
closed = 1;
nodes = (
"640 821 LINE",
"452 971 LINE",
"433 971 LINE",
"221 821 LINE",
"240 781 LINE",
"433 867 LINE",
"612 779 LINE"
);
}
);
};
components = (
{
name = C;
},
{
name = circumflexcomb.case;
transform = "{1, 0, 0, 1, 191, 0}";
}
);
layerId = "6B2A2AD0-3CEC-4B3D-96BE-6A11A3496094";
width = 690;
}
);
leftKerningGroup = O;
rightKerningGroup = C;
unicode = 0108;
},
{
glyphname = Cdotaccent;
layers = (
{
background = {
anchors = (
{
name = bottom;
position = "{394, 0}";
},
{
name = top;
position = "{436, 953}";
}
);
paths = (
{
closed = 1;
nodes = (
"175 716 OFFCURVE",
"48 522 OFFCURVE",
"38 340 CURVE SMOOTH",
"28 141 OFFCURVE",
"156 -16 OFFCURVE",
"362 -16 CURVE SMOOTH",
"445 -16 OFFCURVE",
"567 9 OFFCURVE",
"671 144 CURVE",
"632 184 LINE",
"564 96 OFFCURVE",
"471 59 OFFCURVE",
"391 60 CURVE SMOOTH",
"256 61 OFFCURVE",
"185 188 OFFCURVE",
"194 360 CURVE SMOOTH",
"202 504 OFFCURVE",
"277 649 OFFCURVE",
"417 648 CURVE SMOOTH",
"510 648 OFFCURVE",
"564 587 OFFCURVE",
"576 476 CURVE",
"642 476 LINE",
"654 709 LINE",
"577 709 LINE",
"578 667 LINE",
"577 667 LINE",
"525 699 OFFCURVE",
"460 716 OFFCURVE",
"408 716 CURVE SMOOTH"
);
},
{
closed = 1;
nodes = (
"392 953 OFFCURVE",
"359 921 OFFCURVE",
"357 881 CURVE SMOOTH",
"355 842 OFFCURVE",
"381 809 OFFCURVE",
"421 809 CURVE SMOOTH",
"461 809 OFFCURVE",
"489 842 OFFCURVE",
"491 881 CURVE SMOOTH",
"493 921 OFFCURVE",
"466 953 OFFCURVE",
"428 953 CURVE SMOOTH"
);
}
);
};
components = (
{
name = C;
},
{
name = dotaccentcomb;
transform = "{1, 0, 0, 1, 310, 200}";
}
);
layerId = "6B2A2AD0-3CEC-4B3D-96BE-6A11A3496094";
width = 690;
},
{
background = {
anchors = (
{
name = bottom;
position = "{389, 0}";
},
{
name = top;
position = "{440, 915}";
}
);
paths = (
{
closed = 1;
nodes = (
"179 716 OFFCURVE",
"60 527 OFFCURVE",
"50 339 CURVE",
"40 140 OFFCURVE",
"165 -16 OFFCURVE",
"366 -16 CURVE SMOOTH",
"447 -16 OFFCURVE",
"564 11 OFFCURVE",
"656 127 CURVE",
"631 148 LINE",
"573 74 OFFCURVE",
"481 36 OFFCURVE",
"395 36 CURVE SMOOTH",
"247 36 OFFCURVE",
"134 165 OFFCURVE",
"144 354 CURVE",
"154 550 OFFCURVE",
"274 675 OFFCURVE",
"416 675 CURVE SMOOTH",
"532 675 OFFCURVE",
"607 604 OFFCURVE",
"614 479 CURVE",
"650 479 LINE",
"662 710 LINE",
"608 710 LINE",
"610 656 LINE",
"609 656 LINE",
"550 696 OFFCURVE",
"487 716 OFFCURVE",
"412 716 CURVE SMOOTH"
);
},
{
closed = 1;
nodes = (
"413 915 OFFCURVE",
"387 890 OFFCURVE",
"385 857 CURVE SMOOTH",
"384 824 OFFCURVE",
"406 799 OFFCURVE",
"435 799 CURVE SMOOTH",
"462 799 OFFCURVE",
"489 824 OFFCURVE",
"490 857 CURVE SMOOTH",
"492 890 OFFCURVE",
"471 915 OFFCURVE",
"442 915 CURVE SMOOTH"
);
}
);
};
components = (
{
name = C;
},
{
name = dotaccentcomb;
transform = "{1, 0, 0, 1, 338, 190}";
}
);
layerId = UUID0;
width = 686;
}
);
unicode = 010A;
},
{
glyphname = D;
layers = (
{
anchors = (
{
name = center;
position = "{377, 351}";
},
{
name = top;
position = "{393, 702}";
}
);
background = {
anchors = (
{
name = center;
position = "{377, 351}";
},
{
name = top;
position = "{393, 702}";
}
);
paths = (
{
closed = 1;
nodes = (
"77 700 LINE",
"74 656 LINE",
"99 657 OFFCURVE",
"123 659 OFFCURVE",
"148 660 CURVE",
"145 640 OFFCURVE",
"143 615 OFFCURVE",
"141 588 CURVE SMOOTH",
"117 156 LINE",
"114 85 OFFCURVE",
"117 36 OFFCURVE",
"42 33 CURVE",
"40 0 LINE",
"299 0 LINE SMOOTH",
"564 0 OFFCURVE",
"695 181 OFFCURVE",
"695 376 CURVE SMOOTH",
"695 599 OFFCURVE",
"541 702 OFFCURVE",
"309 701 CURVE SMOOTH"
);
},
{
closed = 1;
nodes = (
"507 664 OFFCURVE",
"602 552 OFFCURVE",
"602 380 CURVE SMOOTH",
"602 188 OFFCURVE",
"479 38 OFFCURVE",
"298 38 CURVE SMOOTH",
"265 38 OFFCURVE",
"235 38 OFFCURVE",
"191 40 CURVE",
"194 57 OFFCURVE",
"196 82 OFFCURVE",
"198 118 CURVE SMOOTH",
"221 551 LINE",
"225 629 OFFCURVE",
"227 664 OFFCURVE",
"303 664 CURVE SMOOTH"
);
}
);
};
layerId = UUID0;
paths = (
{
closed = 1;
nodes = (
"77 700 LINE",
"74 656 LINE",
"99 657 OFFCURVE",
"123 659 OFFCURVE",
"148 660 CURVE",
"145 640 OFFCURVE",
"143 615 OFFCURVE",
"141 588 CURVE SMOOTH",
"117 156 LINE",
"114 85 OFFCURVE",
"117 36 OFFCURVE",
"42 33 CURVE",
"40 0 LINE",
"299 0 LINE SMOOTH",
"564 0 OFFCURVE",
"695 181 OFFCURVE",
"695 376 CURVE SMOOTH",
"695 599 OFFCURVE",
"541 702 OFFCURVE",
"309 701 CURVE SMOOTH"
);
},
{
closed = 1;
nodes = (
"507 664 OFFCURVE",
"602 552 OFFCURVE",
"602 380 CURVE SMOOTH",
"602 188 OFFCURVE",
"479 38 OFFCURVE",
"298 38 CURVE SMOOTH",
"265 38 OFFCURVE",
"235 38 OFFCURVE",
"191 40 CURVE",
"194 57 OFFCURVE",
"196 82 OFFCURVE",
"198 118 CURVE SMOOTH",
"221 551 LINE",
"225 629 OFFCURVE",
"227 664 OFFCURVE",
"303 664 CURVE SMOOTH"
);
}
);
width = 738;
},
{
anchors = (
{
name = center;
position = "{377, 350}";
},
{
name = top;
position = "{397, 700}";
}
);
background = {
anchors = (
{
name = center;
position = "{377, 350}";
},
{
name = top;
position = "{397, 700}";
}
);
paths = (
{
closed = 1;
nodes = (
"72 700 LINE",
"68 623 LINE",
"82 624 OFFCURVE",
"122 625 OFFCURVE",
"143 626 CURVE",
"140 609 OFFCURVE",
"136 572 OFFCURVE",
"134 536 CURVE SMOOTH",
"114 153 LINE SMOOTH",
"110 72 OFFCURVE",
"83 68 OFFCURVE",
"39 66 CURVE",
"35 0 LINE",
"319 0 LINE SMOOTH",
"599 0 OFFCURVE",
"714 194 OFFCURVE",
"723 357 CURVE SMOOTH",
"731 523 OFFCURVE",
"625 702 OFFCURVE",
"361 701 CURVE SMOOTH"
);
},
{
closed = 1;
nodes = (
"494 630 OFFCURVE",
"577 540 OFFCURVE",
"566 336 CURVE SMOOTH",
"560 203 OFFCURVE",
"490 73 OFFCURVE",
"344 73 CURVE SMOOTH",
"320 73 OFFCURVE",
"268 76 OFFCURVE",
"249 74 CURVE",
"252 91 OFFCURVE",
"255 128 OFFCURVE",
"257 164 CURVE SMOOTH",
"277 549 LINE SMOOTH",
"281 626 OFFCURVE",
"306 636 OFFCURVE",
"355 634 CURVE SMOOTH"
);
}
);
};
layerId = "6B2A2AD0-3CEC-4B3D-96BE-6A11A3496094";
paths = (
{
closed = 1;
nodes = (
"72 700 LINE",
"68 623 LINE",
"82 624 OFFCURVE",
"122 625 OFFCURVE",
"143 626 CURVE",
"140 609 OFFCURVE",
"136 572 OFFCURVE",
"134 536 CURVE SMOOTH",
"114 153 LINE SMOOTH",
"110 72 OFFCURVE",
"83 68 OFFCURVE",
"39 66 CURVE",
"35 0 LINE",
"319 0 LINE SMOOTH",
"599 0 OFFCURVE",
"714 194 OFFCURVE",
"723 357 CURVE SMOOTH",
"731 523 OFFCURVE",
"625 702 OFFCURVE",
"361 701 CURVE SMOOTH"
);
},
{
closed = 1;
nodes = (
"494 630 OFFCURVE",
"577 540 OFFCURVE",
"566 336 CURVE SMOOTH",
"560 203 OFFCURVE",
"490 73 OFFCURVE",
"344 73 CURVE SMOOTH",
"320 73 OFFCURVE",
"268 76 OFFCURVE",
"249 74 CURVE",
"252 91 OFFCURVE",
"255 128 OFFCURVE",
"257 164 CURVE SMOOTH",
"277 549 LINE SMOOTH",
"281 626 OFFCURVE",
"306 636 OFFCURVE",
"355 634 CURVE SMOOTH"
);
}
);
width = 755;
}
);
leftKerningGroup = I;
rightKerningGroup = D;
unicode = 0044;
},
{
glyphname = Dcaron;
layers = (
{
background = {
anchors = (
{
name = center;
position = "{377, 351}";
},
{
name = top;
position = "{406, 947}";
}
);
paths = (
{
closed = 1;
nodes = (
"77 700 LINE",
"74 656 LINE",
"99 657 OFFCURVE",
"123 659 OFFCURVE",
"148 660 CURVE",
"145 640 OFFCURVE",
"143 615 OFFCURVE",
"141 588 CURVE SMOOTH",
"117 156 LINE",
"114 85 OFFCURVE",
"117 36 OFFCURVE",
"42 33 CURVE",
"40 0 LINE",
"299 0 LINE SMOOTH",
"564 0 OFFCURVE",
"695 181 OFFCURVE",
"695 376 CURVE SMOOTH",
"695 599 OFFCURVE",
"541 702 OFFCURVE",
"309 701 CURVE SMOOTH"
);
},
{
closed = 1;
nodes = (
"507 664 OFFCURVE",
"602 552 OFFCURVE",
"602 380 CURVE SMOOTH",
"602 188 OFFCURVE",
"479 38 OFFCURVE",
"298 38 CURVE SMOOTH",
"265 38 OFFCURVE",
"235 38 OFFCURVE",
"191 40 CURVE",
"194 57 OFFCURVE",
"196 82 OFFCURVE",
"198 118 CURVE SMOOTH",
"221 551 LINE",
"225 629 OFFCURVE",
"227 664 OFFCURVE",
"303 664 CURVE SMOOTH"
);
},
{
closed = 1;
nodes = (
"590 921 LINE",
"575 947 LINE",
"398 850 LINE",
"231 945 LINE",
"212 916 LINE",
"395 773 LINE",
"397 773 LINE"
);
}
);
};
components = (
{
name = D;
},
{
name = caroncomb.case;
transform = "{1, 0, 0, 1, 152, 2}";
}
);
layerId = UUID0;
width = 738;
},
{
background = {
anchors = (
{
name = center;
position = "{377, 350}";
},
{
name = top;
position = "{411, 962}";
}
);
paths = (
{
closed = 1;
nodes = (
"72 700 LINE",
"68 623 LINE",
"82 624 OFFCURVE",
"122 625 OFFCURVE",
"143 626 CURVE",
"140 609 OFFCURVE",
"136 572 OFFCURVE",
"134 536 CURVE SMOOTH",
"114 153 LINE SMOOTH",
"110 72 OFFCURVE",
"83 68 OFFCURVE",
"39 66 CURVE",
"35 0 LINE",
"319 0 LINE SMOOTH",
"599 0 OFFCURVE",
"714 194 OFFCURVE",
"723 357 CURVE SMOOTH",
"731 523 OFFCURVE",
"625 702 OFFCURVE",
"361 701 CURVE SMOOTH"
);
},
{
closed = 1;
nodes = (
"494 630 OFFCURVE",
"577 540 OFFCURVE",
"566 336 CURVE SMOOTH",
"560 203 OFFCURVE",
"490 73 OFFCURVE",
"344 73 CURVE SMOOTH",
"320 73 OFFCURVE",
"268 76 OFFCURVE",
"249 74 CURVE",
"252 91 OFFCURVE",
"255 128 OFFCURVE",
"257 164 CURVE SMOOTH",
"277 549 LINE SMOOTH",
"281 626 OFFCURVE",
"306 636 OFFCURVE",
"355 634 CURVE SMOOTH"
);
},
{
closed = 1;
nodes = (
"615 922 LINE",
"595 962 LINE",
"404 875 LINE",
"224 962 LINE",
"196 921 LINE",
"383 770 LINE",
"403 770 LINE"
);
}
);
};
components = (
{
name = D;
},
{
name = caroncomb.case;
transform = "{1, 0, 0, 1, 151, 0}";
}
);
layerId = "6B2A2AD0-3CEC-4B3D-96BE-6A11A3496094";
width = 755;
}
);
leftKerningGroup = I;
rightKerningGroup = D;
unicode = 010E;
},
{
glyphname = Dcroat;
layers = (
{
background = {
paths = (
{
closed = 1;
nodes = (
"299 0 LINE SMOOTH",
"564 0 OFFCURVE",
"695 181 OFFCURVE",
"695 376 CURVE SMOOTH",
"695 599 OFFCURVE",
"541 702 OFFCURVE",
"309 701 CURVE SMOOTH",
"77 700 LINE",
"74 656 LINE",
"99 657 OFFCURVE",
"123 659 OFFCURVE",
"148 660 CURVE",
"145 640 OFFCURVE",
"143 615 OFFCURVE",
"141 588 CURVE SMOOTH",
"129 378 LINE",
"26 378 LINE",
"24 328 LINE",
"127 329 LINE",
"117 156 LINE SMOOTH",
"114 85 OFFCURVE",
"117 36 OFFCURVE",
"42 33 CURVE",
"40 0 LINE"
);
},
{
closed = 1;
nodes = (
"265 38 OFFCURVE",
"235 38 OFFCURVE",
"191 40 CURVE",
"194 57 OFFCURVE",
"196 82 OFFCURVE",
"198 118 CURVE SMOOTH",
"209 330 LINE",
"340 332 LINE",
"342 378 LINE",
"212 378 LINE",
"221 551 LINE SMOOTH",
"225 629 OFFCURVE",
"227 664 OFFCURVE",
"303 664 CURVE SMOOTH",
"507 664 OFFCURVE",
"602 552 OFFCURVE",
"602 380 CURVE SMOOTH",
"602 188 OFFCURVE",
"479 38 OFFCURVE",
"298 38 CURVE SMOOTH"
);
}
);
};
components = (
{
name = Eth;
}
);
layerId = UUID0;
width = 738;
},
{
background = {
paths = (
{
closed = 1;
nodes = (
"320 0 LINE SMOOTH",
"600 0 OFFCURVE",
"715 194 OFFCURVE",
"724 357 CURVE SMOOTH",
"732 523 OFFCURVE",
"625 702 OFFCURVE",
"362 701 CURVE SMOOTH",
"73 700 LINE",
"69 623 LINE",
"83 624 OFFCURVE",
"123 625 OFFCURVE",
"144 626 CURVE",
"141 609 OFFCURVE",
"137 572 OFFCURVE",
"135 536 CURVE SMOOTH",
"128 400 LINE",
"29 400 LINE",
"24 302 LINE",
"123 304 LINE",
"115 153 LINE SMOOTH",
"111 72 OFFCURVE",
"84 68 OFFCURVE",
"40 66 CURVE",
"36 0 LINE"
);
},
{
closed = 1;
nodes = (
"321 73 OFFCURVE",
"269 76 OFFCURVE",
"250 74 CURVE",
"253 91 OFFCURVE",
"256 128 OFFCURVE",
"258 164 CURVE",
"265 307 LINE",
"367 309 LINE",
"372 400 LINE",
"270 400 LINE",
"278 549 LINE SMOOTH",
"282 626 OFFCURVE",
"307 636 OFFCURVE",
"356 634 CURVE SMOOTH",
"495 630 OFFCURVE",
"578 540 OFFCURVE",
"567 336 CURVE SMOOTH",
"561 203 OFFCURVE",
"491 73 OFFCURVE",
"345 73 CURVE SMOOTH"
);
}
);
};
components = (
{
name = Eth;
}
);
layerId = "6B2A2AD0-3CEC-4B3D-96BE-6A11A3496094";
width = 755;
}
);
leftKerningGroup = I;
rightKerningGroup = D;
unicode = 0110;
},
{
glyphname = Eth;
layers = (
{
background = {
paths = (
{
closed = 1;
nodes = (
"128 345 LINE",
"117 156 LINE SMOOTH",
"114 85 OFFCURVE",
"117 36 OFFCURVE",
"42 33 CURVE",
"40 0 LINE",
"299 0 LINE SMOOTH",
"564 0 OFFCURVE",
"695 181 OFFCURVE",
"695 376 CURVE SMOOTH",
"695 599 OFFCURVE",
"541 702 OFFCURVE",
"309 701 CURVE SMOOTH",
"77 700 LINE",
"74 656 LINE",
"99 657 OFFCURVE",
"123 659 OFFCURVE",
"148 660 CURVE",
"145 640 OFFCURVE",
"143 615 OFFCURVE",
"141 588 CURVE SMOOTH",
"128 362 LINE",
"211 362 LINE",
"221 551 LINE SMOOTH",
"225 629 OFFCURVE",
"227 664 OFFCURVE",
"303 664 CURVE SMOOTH",
"507 664 OFFCURVE",
"602 552 OFFCURVE",
"602 380 CURVE SMOOTH",
"602 188 OFFCURVE",
"479 38 OFFCURVE",
"298 38 CURVE SMOOTH",
"265 38 OFFCURVE",
"235 38 OFFCURVE",
"191 40 CURVE",
"194 57 OFFCURVE",
"196 82 OFFCURVE",
"198 118 CURVE SMOOTH",
"210 346 LINE"
);
},
{
closed = 1;
nodes = (
"340 332 LINE",
"342 378 LINE",
"26 378 LINE",
"24 328 LINE"
);
}
);
};
components = (
{
name = D;
}
);
layerId = UUID0;
paths = (
{
closed = 1;
nodes = (
"340 332 LINE",
"342 378 LINE",
"26 378 LINE",
"24 328 LINE"
);
}
);
width = 738;
},
{
background = {
paths = (
{
closed = 1;
nodes = (
"124 320 LINE",
"115 153 LINE SMOOTH",
"111 72 OFFCURVE",
"84 68 OFFCURVE",
"40 66 CURVE",
"36 0 LINE",
"320 0 LINE SMOOTH",
"600 0 OFFCURVE",
"715 194 OFFCURVE",
"724 357 CURVE SMOOTH",
"732 523 OFFCURVE",
"625 702 OFFCURVE",
"362 701 CURVE SMOOTH",
"73 700 LINE",
"69 623 LINE",
"83 624 OFFCURVE",
"123 625 OFFCURVE",
"144 626 CURVE",
"141 609 OFFCURVE",
"137 572 OFFCURVE",
"135 536 CURVE SMOOTH",
"127 384 LINE",
"269 384 LINE",
"278 549 LINE SMOOTH",
"282 626 OFFCURVE",
"307 636 OFFCURVE",
"356 634 CURVE SMOOTH",
"495 630 OFFCURVE",
"578 540 OFFCURVE",
"567 336 CURVE SMOOTH",
"561 203 OFFCURVE",
"491 73 OFFCURVE",
"345 73 CURVE SMOOTH",
"321 73 OFFCURVE",
"269 76 OFFCURVE",
"250 74 CURVE",
"253 91 OFFCURVE",
"256 128 OFFCURVE",
"258 164 CURVE",
"266 323 LINE"
);
},
{
closed = 1;
nodes = (
"367 309 LINE",
"372 400 LINE",
"29 400 LINE",
"24 302 LINE"
);
}
);
};
components = (
{
name = D;
}
);
layerId = "6B2A2AD0-3CEC-4B3D-96BE-6A11A3496094";
paths = (
{
closed = 1;
nodes = (
"367 309 LINE",
"372 400 LINE",
"29 400 LINE",
"24 302 LINE"
);
}
);
width = 755;
}
);
leftKerningGroup = I;
rightKerningGroup = D;
rightMetricsKey = D;
unicode = 00D0;
},
{
glyphname = E;
layers = (
{
anchors = (
{
name = bottom;
position = "{320, 0}";
},
{
name = ogonek;
position = "{544, 5}";
},
{
name = top;
position = "{363, 702}";
},
{
name = topleft;
position = "{33, 700}";
}
);
background = {
anchors = (
{
name = bottom;
position = "{320, 0}";
},
{
name = ogonek;
position = "{544, 5}";
},
{
name = top;
position = "{363, 702}";
},
{
name = topleft;
position = "{33, 700}";
}
);
paths = (
{
closed = 1;
nodes = (
"78 700 LINE",
"76 656 LINE",
"100 657 OFFCURVE",
"125 659 OFFCURVE",
"149 660 CURVE",
"146 640 OFFCURVE",
"143 615 OFFCURVE",
"142 588 CURVE SMOOTH",
"118 156 LINE SMOOTH",
"114 85 OFFCURVE",
"118 36 OFFCURVE",
"43 33 CURVE",
"41 0 LINE",
"553 0 LINE",
"569 195 LINE",
"535 195 LINE",
"529 76 OFFCURVE",
"470 41 OFFCURVE",
"383 40 CURVE SMOOTH",
"192 37 LINE",
"195 54 OFFCURVE",
"197 79 OFFCURVE",
"199 115 CURVE SMOOTH",
"211 344 LINE",
"284 347 LINE SMOOTH",
"370 351 OFFCURVE",
"403 347 OFFCURVE",
"399 259 CURVE",
"432 259 LINE",
"443 477 LINE",
"410 477 LINE",
"406 389 OFFCURVE",
"369 382 OFFCURVE",
"285 383 CURVE SMOOTH",
"213 384 LINE",
"222 544 LINE SMOOTH",
"227 625 OFFCURVE",
"229 661 OFFCURVE",
"304 663 CURVE SMOOTH",
"390 665 LINE SMOOTH",
"465 667 OFFCURVE",
"524 643 OFFCURVE",
"518 525 CURVE",
"551 525 LINE",
"555 700 LINE"
);
}
);
};
layerId = UUID0;
paths = (
{
closed = 1;
nodes = (
"78 700 LINE",
"76 656 LINE",
"100 657 OFFCURVE",
"125 659 OFFCURVE",
"149 660 CURVE",
"146 640 OFFCURVE",
"143 615 OFFCURVE",
"142 588 CURVE SMOOTH",
"118 156 LINE SMOOTH",
"114 85 OFFCURVE",
"118 36 OFFCURVE",
"43 33 CURVE",
"41 0 LINE",
"553 0 LINE",
"569 195 LINE",
"535 195 LINE",
"529 76 OFFCURVE",
"470 41 OFFCURVE",
"383 40 CURVE SMOOTH",
"192 37 LINE",
"195 54 OFFCURVE",
"197 79 OFFCURVE",
"199 115 CURVE SMOOTH",
"211 344 LINE",
"284 347 LINE SMOOTH",
"370 351 OFFCURVE",
"403 347 OFFCURVE",
"399 259 CURVE",
"432 259 LINE",
"443 477 LINE",
"410 477 LINE",
"406 389 OFFCURVE",
"369 382 OFFCURVE",
"285 383 CURVE SMOOTH",
"213 384 LINE",
"222 544 LINE SMOOTH",
"227 625 OFFCURVE",
"229 661 OFFCURVE",
"304 663 CURVE SMOOTH",
"390 665 LINE SMOOTH",
"465 667 OFFCURVE",
"524 643 OFFCURVE",
"518 525 CURVE",
"551 525 LINE",
"555 700 LINE"
);
}
);
width = 619;
},
{
anchors = (
{
name = bottom;
position = "{334, 0}";
},
{
name = ogonek;
position = "{561, 5}";
},
{
name = top;
position = "{343, 700}";
},
{
name = topleft;
position = "{33, 700}";
}
);
background = {
anchors = (
{
name = bottom;
position = "{334, 0}";
},
{
name = ogonek;
position = "{561, 5}";
},
{
name = top;
position = "{343, 700}";
},
{
name = topleft;
position = "{33, 700}";
}
);
paths = (
{
closed = 1;
nodes = (
"72 700 LINE",
"68 623 LINE",
"82 624 OFFCURVE",
"122 625 OFFCURVE",
"143 626 CURVE",
"140 609 OFFCURVE",
"136 572 OFFCURVE",
"134 536 CURVE SMOOTH",
"114 153 LINE SMOOTH",
"110 72 OFFCURVE",
"83 68 OFFCURVE",
"39 66 CURVE",
"35 0 LINE",
"561 0 LINE",
"578 220 LINE",
"512 220 LINE",
"506 112 OFFCURVE",
"442 76 OFFCURVE",
"383 76 CURVE SMOOTH",
"249 76 LINE",
"252 93 OFFCURVE",
"255 128 OFFCURVE",
"257 164 CURVE SMOOTH",
"266 328 LINE",
"292 329 LINE SMOOTH",
"346 331 OFFCURVE",
"390 325 OFFCURVE",
"386 241 CURVE",
"452 241 LINE",
"464 484 LINE",
"387 484 LINE",
"387 459 OFFCURVE",
"387 425 OFFCURVE",
"387 397 CURVE",
"270 397 LINE",
"277 547 LINE SMOOTH",
"281 625 OFFCURVE",
"307 633 OFFCURVE",
"349 634 CURVE SMOOTH",
"385 635 LINE SMOOTH",
"439 637 OFFCURVE",
"505 615 OFFCURVE",
"500 506 CURVE",
"565 506 LINE",
"570 700 LINE"
);
}
);
};
layerId = "6B2A2AD0-3CEC-4B3D-96BE-6A11A3496094";
paths = (
{
closed = 1;
nodes = (
"72 700 LINE",
"68 623 LINE",
"82 624 OFFCURVE",
"122 625 OFFCURVE",
"143 626 CURVE",
"140 609 OFFCURVE",
"136 572 OFFCURVE",
"134 536 CURVE SMOOTH",
"114 153 LINE SMOOTH",
"110 72 OFFCURVE",
"83 68 OFFCURVE",
"39 66 CURVE",
"35 0 LINE",
"561 0 LINE",
"578 220 LINE",
"512 220 LINE",
"506 112 OFFCURVE",
"442 76 OFFCURVE",
"383 76 CURVE SMOOTH",
"249 76 LINE",
"252 93 OFFCURVE",
"255 128 OFFCURVE",
"257 164 CURVE SMOOTH",
"266 328 LINE",
"292 329 LINE SMOOTH",
"346 331 OFFCURVE",
"390 325 OFFCURVE",
"386 241 CURVE",
"452 241 LINE",
"464 484 LINE",
"387 484 LINE",
"387 459 OFFCURVE",
"387 425 OFFCURVE",
"387 397 CURVE",
"270 397 LINE",
"277 547 LINE SMOOTH",
"281 625 OFFCURVE",
"307 633 OFFCURVE",
"349 634 CURVE SMOOTH",
"385 635 LINE SMOOTH",
"439 637 OFFCURVE",
"505 615 OFFCURVE",
"500 506 CURVE",
"565 506 LINE",
"570 700 LINE"
);
}
);
width = 623;
}
);
leftKerningGroup = I;
rightKerningGroup = E;
unicode = 0045;
},
{
glyphname = Eacute;
layers = (
{
background = {
anchors = (
{
name = bottom;
position = "{320, 0}";
},
{
name = ogonek;
position = "{544, 5}";
},
{
name = top;
position = "{363, 702}";
},
{
name = topleft;
position = "{33, 700}";
}
);
paths = (
{
closed = 1;
nodes = (
"78 700 LINE",
"76 656 LINE",
"100 657 OFFCURVE",
"125 659 OFFCURVE",
"149 660 CURVE",
"146 640 OFFCURVE",
"143 615 OFFCURVE",
"142 588 CURVE SMOOTH",
"118 156 LINE SMOOTH",
"114 85 OFFCURVE",
"118 36 OFFCURVE",
"43 33 CURVE",
"41 0 LINE",
"553 0 LINE",
"569 195 LINE",
"535 195 LINE",
"529 76 OFFCURVE",
"470 41 OFFCURVE",
"383 40 CURVE SMOOTH",
"192 37 LINE",
"195 54 OFFCURVE",
"197 79 OFFCURVE",
"199 115 CURVE SMOOTH",
"211 344 LINE",
"284 347 LINE SMOOTH",
"370 351 OFFCURVE",
"403 347 OFFCURVE",
"399 259 CURVE",
"432 259 LINE",
"443 477 LINE",
"410 477 LINE",
"406 389 OFFCURVE",
"369 382 OFFCURVE",
"285 383 CURVE SMOOTH",
"213 384 LINE",
"222 544 LINE SMOOTH",
"227 625 OFFCURVE",
"229 661 OFFCURVE",
"304 663 CURVE SMOOTH",
"390 665 LINE SMOOTH",
"465 667 OFFCURVE",
"524 643 OFFCURVE",
"518 525 CURVE",
"551 525 LINE",
"555 700 LINE"
);
},
{
closed = 1;
nodes = (
"492 855 LINE SMOOTH",
"536 883 OFFCURVE",
"524 909 OFFCURVE",
"517 917 CURVE SMOOTH",
"512 923 OFFCURVE",
"490 943 OFFCURVE",
"452 908 CURVE SMOOTH",
"325 790 LINE",
"346 762 LINE"
);
}
);
};
components = (
{
name = E;
},
{
name = acutecomb.case;
transform = "{1, 0, 0, 1, 280, 2}";
}
);
layerId = UUID0;
width = 619;
},
{
background = {
anchors = (
{
name = bottom;
position = "{334, 0}";
},
{
name = ogonek;
position = "{561, 5}";
},
{
name = top;
position = "{343, 700}";
},
{
name = topleft;
position = "{33, 700}";
}
);
paths = (
{
closed = 1;
nodes = (
"72 700 LINE",
"68 623 LINE",
"82 624 OFFCURVE",
"122 625 OFFCURVE",
"143 626 CURVE",
"140 609 OFFCURVE",
"136 572 OFFCURVE",
"134 536 CURVE SMOOTH",
"114 153 LINE SMOOTH",
"110 72 OFFCURVE",
"83 68 OFFCURVE",
"39 66 CURVE",
"35 0 LINE",
"561 0 LINE",
"578 220 LINE",
"512 220 LINE",
"506 112 OFFCURVE",
"442 76 OFFCURVE",
"383 76 CURVE SMOOTH",
"249 76 LINE",
"252 93 OFFCURVE",
"255 128 OFFCURVE",
"257 164 CURVE SMOOTH",
"266 328 LINE",
"292 329 LINE SMOOTH",
"346 331 OFFCURVE",
"390 325 OFFCURVE",
"386 241 CURVE",
"452 241 LINE",
"464 484 LINE",
"387 484 LINE",
"387 459 OFFCURVE",
"387 425 OFFCURVE",
"387 397 CURVE",
"270 397 LINE",
"277 547 LINE SMOOTH",
"281 625 OFFCURVE",
"307 633 OFFCURVE",
"349 634 CURVE SMOOTH",
"385 635 LINE SMOOTH",
"439 637 OFFCURVE",
"505 615 OFFCURVE",
"500 506 CURVE",
"565 506 LINE",
"570 700 LINE"
);
},
{
closed = 1;
nodes = (
"462 854 LINE",
"495 873 OFFCURVE",
"520 909 OFFCURVE",
"497 943 CURVE SMOOTH",
"475 976 OFFCURVE",
"429 964 OFFCURVE",
"400 936 CURVE SMOOTH",
"278 818 LINE",
"312 770 LINE"
);
}
);
};
components = (
{
name = E;
},
{
name = acutecomb.case;
transform = "{1, 0, 0, 1, 233, 0}";
}
);
layerId = "6B2A2AD0-3CEC-4B3D-96BE-6A11A3496094";
width = 623;
}
);
leftKerningGroup = I;
rightKerningGroup = E;
unicode = 00C9;
},
{
glyphname = Ebreve;
layers = (
{
background = {
anchors = (
{
name = bottom;
position = "{320, 0}";
},
{
name = ogonek;
position = "{544, 5}";
},
{
name = top;
position = "{363, 702}";
},
{
name = topleft;
position = "{33, 700}";
}
);
paths = (
{
closed = 1;
nodes = (
"78 700 LINE",
"76 656 LINE",
"100 657 OFFCURVE",
"125 659 OFFCURVE",
"149 660 CURVE",
"146 640 OFFCURVE",
"143 615 OFFCURVE",
"142 588 CURVE SMOOTH",
"118 156 LINE SMOOTH",
"114 85 OFFCURVE",
"118 36 OFFCURVE",
"43 33 CURVE",
"41 0 LINE",
"553 0 LINE",
"569 195 LINE",
"535 195 LINE",
"529 76 OFFCURVE",
"470 41 OFFCURVE",
"383 40 CURVE SMOOTH",
"192 37 LINE",
"195 54 OFFCURVE",
"197 79 OFFCURVE",
"199 115 CURVE SMOOTH",
"211 344 LINE",
"284 347 LINE SMOOTH",
"370 351 OFFCURVE",
"403 347 OFFCURVE",
"399 259 CURVE",
"432 259 LINE",
"443 477 LINE",
"410 477 LINE",
"406 389 OFFCURVE",
"369 382 OFFCURVE",
"285 383 CURVE SMOOTH",
"213 384 LINE",
"222 544 LINE SMOOTH",
"227 625 OFFCURVE",
"229 661 OFFCURVE",
"304 663 CURVE SMOOTH",
"390 665 LINE SMOOTH",
"465 667 OFFCURVE",
"524 643 OFFCURVE",
"518 525 CURVE",
"551 525 LINE",
"555 700 LINE"
);
},
{
closed = 1;
nodes = (
"437 811 OFFCURVE",
"494 847 OFFCURVE",
"530 914 CURVE",
"504 926 LINE",
"481 898 OFFCURVE",
"431 872 OFFCURVE",
"381 872 CURVE SMOOTH",
"330 872 OFFCURVE",
"283 898 OFFCURVE",
"264 926 CURVE",
"237 914 LINE",
"263 847 OFFCURVE",
"315 811 OFFCURVE",
"376 811 CURVE SMOOTH"
);
}
);
};
components = (
{
name = E;
},
{
name = brevecomb.case;
transform = "{1, 0, 0, 1, 197, 2}";
}
);
layerId = UUID0;
width = 619;
},
{
background = {
anchors = (
{
name = bottom;
position = "{334, 0}";
},
{
name = ogonek;
position = "{561, 5}";
},
{
name = top;
position = "{343, 700}";
},
{
name = topleft;
position = "{33, 700}";
}
);
paths = (
{
closed = 1;
nodes = (
"72 700 LINE",
"68 623 LINE",
"82 624 OFFCURVE",
"122 625 OFFCURVE",
"143 626 CURVE",
"140 609 OFFCURVE",
"136 572 OFFCURVE",
"134 536 CURVE SMOOTH",
"114 153 LINE SMOOTH",
"110 72 OFFCURVE",
"83 68 OFFCURVE",
"39 66 CURVE",
"35 0 LINE",
"561 0 LINE",
"578 220 LINE",
"512 220 LINE",
"506 112 OFFCURVE",
"442 76 OFFCURVE",
"383 76 CURVE SMOOTH",
"249 76 LINE",
"252 93 OFFCURVE",
"255 128 OFFCURVE",
"257 164 CURVE SMOOTH",
"266 328 LINE",
"292 329 LINE SMOOTH",
"346 331 OFFCURVE",
"390 325 OFFCURVE",
"386 241 CURVE",
"452 241 LINE",
"464 484 LINE",
"387 484 LINE",
"387 459 OFFCURVE",
"387 425 OFFCURVE",
"387 397 CURVE",
"270 397 LINE",
"277 547 LINE SMOOTH",
"281 625 OFFCURVE",
"307 633 OFFCURVE",
"349 634 CURVE SMOOTH",
"385 635 LINE SMOOTH",
"439 637 OFFCURVE",
"505 615 OFFCURVE",
"500 506 CURVE",
"565 506 LINE",
"570 700 LINE"
);
},
{
closed = 1;
nodes = (
"415 787 OFFCURVE",
"493 814 OFFCURVE",
"532 894 CURVE",
"478 934 LINE",
"450 905 OFFCURVE",
"414 879 OFFCURVE",
"356 879 CURVE SMOOTH",
"298 879 OFFCURVE",
"265 905 OFFCURVE",
"242 934 CURVE",
"182 894 LINE",
"210 814 OFFCURVE",
"284 787 OFFCURVE",
"350 787 CURVE SMOOTH"
);
}
);
};
components = (
{
name = E;
},
{
name = brevecomb.case;
transform = "{1, 0, 0, 1, 136, 0}";
}
);
layerId = "6B2A2AD0-3CEC-4B3D-96BE-6A11A3496094";
width = 623;
}
);
unicode = 0114;
},
{
glyphname = Ecaron;
layers = (
{
background = {
anchors = (
{
name = bottom;
position = "{320, 0}";
},
{
name = ogonek;
position = "{544, 5}";
},
{
name = top;
position = "{376, 947}";
},
{
name = topleft;
position = "{33, 700}";
}
);
paths = (
{
closed = 1;
nodes = (
"78 700 LINE",
"76 656 LINE",
"100 657 OFFCURVE",
"125 659 OFFCURVE",
"149 660 CURVE",
"146 640 OFFCURVE",
"143 615 OFFCURVE",
"142 588 CURVE SMOOTH",
"118 156 LINE SMOOTH",
"114 85 OFFCURVE",
"118 36 OFFCURVE",
"43 33 CURVE",
"41 0 LINE",
"553 0 LINE",
"569 195 LINE",
"535 195 LINE",
"529 76 OFFCURVE",
"470 41 OFFCURVE",
"383 40 CURVE SMOOTH",
"192 37 LINE",
"195 54 OFFCURVE",
"197 79 OFFCURVE",
"199 115 CURVE SMOOTH",
"211 344 LINE",
"284 347 LINE SMOOTH",
"370 351 OFFCURVE",
"403 347 OFFCURVE",
"399 259 CURVE",
"432 259 LINE",
"443 477 LINE",
"410 477 LINE",
"406 389 OFFCURVE",
"369 382 OFFCURVE",
"285 383 CURVE SMOOTH",
"213 384 LINE",
"222 544 LINE SMOOTH",
"227 625 OFFCURVE",
"229 661 OFFCURVE",
"304 663 CURVE SMOOTH",
"390 665 LINE SMOOTH",
"465 667 OFFCURVE",
"524 643 OFFCURVE",
"518 525 CURVE",
"551 525 LINE",
"555 700 LINE"
);
},
{
closed = 1;
nodes = (
"560 921 LINE",
"545 947 LINE",
"368 850 LINE",
"201 945 LINE",
"182 916 LINE",
"365 773 LINE",
"367 773 LINE"
);
}
);
};
components = (
{
name = E;
},
{
name = caroncomb.case;
transform = "{1, 0, 0, 1, 122, 2}";
}
);
layerId = UUID0;
width = 619;
},
{
background = {
anchors = (
{
name = bottom;
position = "{334, 0}";
},
{
name = ogonek;
position = "{561, 5}";
},
{
name = top;
position = "{357, 962}";
},
{
name = topleft;
position = "{33, 700}";
}
);
paths = (
{
closed = 1;
nodes = (
"72 700 LINE",
"68 623 LINE",
"82 624 OFFCURVE",
"122 625 OFFCURVE",
"143 626 CURVE",
"140 609 OFFCURVE",
"136 572 OFFCURVE",
"134 536 CURVE SMOOTH",
"114 153 LINE SMOOTH",
"110 72 OFFCURVE",
"83 68 OFFCURVE",
"39 66 CURVE",
"35 0 LINE",
"561 0 LINE",
"578 220 LINE",
"512 220 LINE",
"506 112 OFFCURVE",
"442 76 OFFCURVE",
"383 76 CURVE SMOOTH",
"249 76 LINE",
"252 93 OFFCURVE",
"255 128 OFFCURVE",
"257 164 CURVE SMOOTH",
"266 328 LINE",
"292 329 LINE SMOOTH",
"346 331 OFFCURVE",
"390 325 OFFCURVE",
"386 241 CURVE",
"452 241 LINE",
"464 484 LINE",
"387 484 LINE",
"387 459 OFFCURVE",
"387 425 OFFCURVE",
"387 397 CURVE",
"270 397 LINE",
"277 547 LINE SMOOTH",
"281 625 OFFCURVE",
"307 633 OFFCURVE",
"349 634 CURVE SMOOTH",
"385 635 LINE SMOOTH",
"439 637 OFFCURVE",
"505 615 OFFCURVE",
"500 506 CURVE",
"565 506 LINE",
"570 700 LINE"
);
},
{
closed = 1;
nodes = (
"561 922 LINE",
"541 962 LINE",
"350 875 LINE",
"170 962 LINE",
"142 921 LINE",
"329 770 LINE",
"349 770 LINE"
);
}
);
};
components = (
{
name = E;
},
{
name = caroncomb.case;
transform = "{1, 0, 0, 1, 97, 0}";
}
);
layerId = "6B2A2AD0-3CEC-4B3D-96BE-6A11A3496094";
width = 623;
}
);
leftKerningGroup = I;
rightKerningGroup = E;
unicode = 011A;
},
{
glyphname = Ecircumflex;
layers = (
{
background = {
anchors = (
{
name = bottom;
position = "{320, 0}";
},
{
name = ogonek;
position = "{544, 5}";
},
{
name = top;
position = "{363, 702}";
},
{
name = topleft;
position = "{33, 700}";
}
);
paths = (
{
closed = 1;
nodes = (
"78 700 LINE",
"76 656 LINE",
"100 657 OFFCURVE",
"125 659 OFFCURVE",
"149 660 CURVE",
"146 640 OFFCURVE",
"143 615 OFFCURVE",
"142 588 CURVE SMOOTH",
"118 156 LINE SMOOTH",
"114 85 OFFCURVE",
"118 36 OFFCURVE",
"43 33 CURVE",
"41 0 LINE",
"553 0 LINE",
"569 195 LINE",
"535 195 LINE",
"529 76 OFFCURVE",
"470 41 OFFCURVE",
"383 40 CURVE SMOOTH",
"192 37 LINE",
"195 54 OFFCURVE",
"197 79 OFFCURVE",
"199 115 CURVE SMOOTH",
"211 344 LINE",
"284 347 LINE SMOOTH",
"370 351 OFFCURVE",
"403 347 OFFCURVE",
"399 259 CURVE",
"432 259 LINE",
"443 477 LINE",
"410 477 LINE",
"406 389 OFFCURVE",
"369 382 OFFCURVE",
"285 383 CURVE SMOOTH",
"213 384 LINE",
"222 544 LINE SMOOTH",
"227 625 OFFCURVE",
"229 661 OFFCURVE",
"304 663 CURVE SMOOTH",
"390 665 LINE SMOOTH",
"465 667 OFFCURVE",
"524 643 OFFCURVE",
"518 525 CURVE",
"551 525 LINE",
"555 700 LINE"
);
},
{
closed = 1;
nodes = (
"560 791 LINE",
"379 932 LINE",
"377 932 LINE",
"181 792 LINE",
"196 765 LINE",
"366 852 LINE",
"542 763 LINE"
);
}
);
};
components = (
{
name = E;
},
{
name = circumflexcomb.case;
transform = "{1, 0, 0, 1, 136, 2}";
}
);
layerId = UUID0;
width = 619;
},
{
background = {
anchors = (
{
name = bottom;
position = "{334, 0}";
},
{
name = ogonek;
position = "{561, 5}";
},
{
name = top;
position = "{343, 700}";
},
{
name = topleft;
position = "{33, 700}";
}
);
paths = (
{
closed = 1;
nodes = (
"72 700 LINE",
"68 623 LINE",
"82 624 OFFCURVE",
"122 625 OFFCURVE",
"143 626 CURVE",
"140 609 OFFCURVE",
"136 572 OFFCURVE",
"134 536 CURVE SMOOTH",
"114 153 LINE SMOOTH",
"110 72 OFFCURVE",
"83 68 OFFCURVE",
"39 66 CURVE",
"35 0 LINE",
"561 0 LINE",
"578 220 LINE",
"512 220 LINE",
"506 112 OFFCURVE",
"442 76 OFFCURVE",
"383 76 CURVE SMOOTH",
"249 76 LINE",
"252 93 OFFCURVE",
"255 128 OFFCURVE",
"257 164 CURVE SMOOTH",
"266 328 LINE",
"292 329 LINE SMOOTH",
"346 331 OFFCURVE",
"390 325 OFFCURVE",
"386 241 CURVE",
"452 241 LINE",
"464 484 LINE",
"387 484 LINE",
"387 459 OFFCURVE",
"387 425 OFFCURVE",
"387 397 CURVE",
"270 397 LINE",
"277 547 LINE SMOOTH",
"281 625 OFFCURVE",
"307 633 OFFCURVE",
"349 634 CURVE SMOOTH",
"385 635 LINE SMOOTH",
"439 637 OFFCURVE",
"505 615 OFFCURVE",
"500 506 CURVE",
"565 506 LINE",
"570 700 LINE"
);
},
{
closed = 1;
nodes = (
"560 821 LINE",
"372 971 LINE",
"353 971 LINE",
"141 821 LINE",
"160 781 LINE",
"353 867 LINE",
"532 779 LINE"
);
}
);
};
components = (
{
name = E;
},
{
name = circumflexcomb.case;
transform = "{1, 0, 0, 1, 111, 0}";
}
);
layerId = "6B2A2AD0-3CEC-4B3D-96BE-6A11A3496094";
width = 623;
}
);
leftKerningGroup = I;
rightKerningGroup = E;
unicode = 00CA;
},
{
glyphname = Ecircumflexacute;
layers = (
{
background = {
anchors = (
{
name = bottom;
position = "{320, 0}";
},
{
name = ogonek;
position = "{544, 5}";
},
{
name = top;
position = "{363, 702}";
},
{
name = topleft;
position = "{33, 700}";
}
);
paths = (
{
closed = 1;
nodes = (
"78 700 LINE",
"76 656 LINE",
"100 657 OFFCURVE",
"125 659 OFFCURVE",
"149 660 CURVE",
"146 640 OFFCURVE",
"143 615 OFFCURVE",
"142 588 CURVE SMOOTH",
"118 156 LINE SMOOTH",
"114 85 OFFCURVE",
"118 36 OFFCURVE",
"43 33 CURVE",
"41 0 LINE",
"553 0 LINE",
"569 195 LINE",
"535 195 LINE",
"529 76 OFFCURVE",
"470 41 OFFCURVE",
"383 40 CURVE SMOOTH",
"192 37 LINE",
"195 54 OFFCURVE",
"197 79 OFFCURVE",
"199 115 CURVE SMOOTH",
"211 344 LINE",
"284 347 LINE SMOOTH",
"370 351 OFFCURVE",
"403 347 OFFCURVE",
"399 259 CURVE",
"432 259 LINE",
"443 477 LINE",
"410 477 LINE",
"406 389 OFFCURVE",
"369 382 OFFCURVE",
"285 383 CURVE SMOOTH",
"213 384 LINE",
"222 544 LINE SMOOTH",
"227 625 OFFCURVE",
"229 661 OFFCURVE",
"304 663 CURVE SMOOTH",
"390 665 LINE SMOOTH",
"465 667 OFFCURVE",
"524 643 OFFCURVE",
"518 525 CURVE",
"551 525 LINE",
"555 700 LINE"
);
},
{
closed = 1;
nodes = (
"503 778 LINE",
"376 878 LINE",
"374 878 LINE",
"237 779 LINE",
"251 754 LINE",
"367 814 LINE",
"487 753 LINE"
);
},
{
closed = 1;
nodes = (
"599 922 LINE SMOOTH",
"628 952 OFFCURVE",
"616 972 OFFCURVE",
"610 979 CURVE SMOOTH",
"605 984 OFFCURVE",
"581 997 OFFCURVE",
"559 959 CURVE SMOOTH",
"494 850 LINE",
"514 833 LINE"
);
}
);
};
components = (
{
name = E;
},
{
name = circumflexcomb_acutecomb.case;
transform = "{1, 0, 0, 1, 204, 202}";
}
);
layerId = UUID0;
width = 619;
},
{
background = {
anchors = (
{
name = bottom;
position = "{334, 0}";
},
{
name = ogonek;
position = "{561, 5}";
},
{
name = top;
position = "{343, 700}";
},
{
name = topleft;
position = "{33, 700}";
}
);
paths = (
{
closed = 1;
nodes = (
"72 700 LINE",
"68 623 LINE",
"82 624 OFFCURVE",
"122 625 OFFCURVE",
"143 626 CURVE",
"140 609 OFFCURVE",
"136 572 OFFCURVE",
"134 536 CURVE SMOOTH",
"114 153 LINE SMOOTH",
"110 72 OFFCURVE",
"83 68 OFFCURVE",
"39 66 CURVE",
"35 0 LINE",
"561 0 LINE",
"578 220 LINE",
"512 220 LINE",
"506 112 OFFCURVE",
"442 76 OFFCURVE",
"383 76 CURVE SMOOTH",
"249 76 LINE",
"252 93 OFFCURVE",
"255 128 OFFCURVE",
"257 164 CURVE SMOOTH",
"266 328 LINE",
"292 329 LINE SMOOTH",
"346 331 OFFCURVE",
"390 325 OFFCURVE",
"386 241 CURVE",
"452 241 LINE",
"464 484 LINE",
"387 484 LINE",
"387 459 OFFCURVE",
"387 425 OFFCURVE",
"387 397 CURVE",
"270 397 LINE",
"277 547 LINE SMOOTH",
"281 625 OFFCURVE",
"307 633 OFFCURVE",
"349 634 CURVE SMOOTH",
"385 635 LINE SMOOTH",
"439 637 OFFCURVE",
"505 615 OFFCURVE",
"500 506 CURVE",
"565 506 LINE",
"570 700 LINE"
);
},
{
closed = 1;
nodes = (
"500 812 LINE",
"356 913 LINE",
"343 913 LINE",
"184 807 LINE",
"212 761 LINE",
"343 820 LINE",
"465 760 LINE"
);
},
{
closed = 1;
nodes = (
"599 967 LINE SMOOTH",
"622 986 OFFCURVE",
"635 1025 OFFCURVE",
"609 1048 CURVE SMOOTH",
"585 1070 OFFCURVE",
"549 1057 OFFCURVE",
"531 1028 CURVE SMOOTH",
"457 913 LINE",
"494 879 LINE"
);
}
);
};
components = (
{
name = E;
},
{
name = circumflexcomb_acutecomb.case;
transform = "{1, 0, 0, 1, 172, 203}";
}
);
layerId = "6B2A2AD0-3CEC-4B3D-96BE-6A11A3496094";
width = 623;
}
);
unicode = 1EBE;
},
{
glyphname = Ecircumflexdotbelow;
layers = (
{
background = {
anchors = (
{
name = bottom;
position = "{309, -187}";
},
{
name = ogonek;
position = "{544, 5}";
},
{
name = top;
position = "{363, 702}";
},
{
name = topleft;
position = "{33, 700}";
}
);
paths = (
{
closed = 1;
nodes = (
"78 700 LINE",
"76 656 LINE",
"100 657 OFFCURVE",
"125 659 OFFCURVE",
"149 660 CURVE",
"146 640 OFFCURVE",
"143 615 OFFCURVE",
"142 588 CURVE SMOOTH",
"118 156 LINE SMOOTH",
"114 85 OFFCURVE",
"118 36 OFFCURVE",
"43 33 CURVE",
"41 0 LINE",
"553 0 LINE",
"569 195 LINE",
"535 195 LINE",
"529 76 OFFCURVE",
"470 41 OFFCURVE",
"383 40 CURVE SMOOTH",
"192 37 LINE",
"195 54 OFFCURVE",
"197 79 OFFCURVE",
"199 115 CURVE SMOOTH",
"211 344 LINE",
"284 347 LINE SMOOTH",
"370 351 OFFCURVE",
"403 347 OFFCURVE",
"399 259 CURVE",
"432 259 LINE",
"443 477 LINE",
"410 477 LINE",
"406 389 OFFCURVE",
"369 382 OFFCURVE",
"285 383 CURVE SMOOTH",
"213 384 LINE",
"222 544 LINE SMOOTH",
"227 625 OFFCURVE",
"229 661 OFFCURVE",
"304 663 CURVE SMOOTH",
"390 665 LINE SMOOTH",
"465 667 OFFCURVE",
"524 643 OFFCURVE",
"518 525 CURVE",
"551 525 LINE",
"555 700 LINE"
);
},
{
closed = 1;
nodes = (
"291 -82 OFFCURVE",
"267 -105 OFFCURVE",
"266 -134 CURVE SMOOTH",
"265 -164 OFFCURVE",
"285 -186 OFFCURVE",
"310 -186 CURVE SMOOTH",
"335 -186 OFFCURVE",
"359 -164 OFFCURVE",
"360 -134 CURVE SMOOTH",
"361 -105 OFFCURVE",
"343 -82 OFFCURVE",
"317 -82 CURVE SMOOTH"
);
},
{
closed = 1;
nodes = (
"560 791 LINE",
"379 932 LINE",
"377 932 LINE",
"181 792 LINE",
"196 765 LINE",
"366 852 LINE",
"542 763 LINE"
);
}
);
};
components = (
{
name = E;
},
{
name = dotbelowcomb;
transform = "{1, 0, 0, 1, 221, 0}";
},
{
name = circumflexcomb.case;
transform = "{1, 0, 0, 1, 136, 2}";
}
);
layerId = UUID0;
width = 619;
},
{
background = {
anchors = (
{
name = bottom;
position = "{324, -198}";
},
{
name = ogonek;
position = "{561, 5}";
},
{
name = top;
position = "{343, 700}";
},
{
name = topleft;
position = "{33, 700}";
}
);
paths = (
{
closed = 1;
nodes = (
"72 700 LINE",
"68 623 LINE",
"82 624 OFFCURVE",
"122 625 OFFCURVE",
"143 626 CURVE",
"140 609 OFFCURVE",
"136 572 OFFCURVE",
"134 536 CURVE SMOOTH",
"114 153 LINE SMOOTH",
"110 72 OFFCURVE",
"83 68 OFFCURVE",
"39 66 CURVE",
"35 0 LINE",
"561 0 LINE",
"578 220 LINE",
"512 220 LINE",
"506 112 OFFCURVE",
"442 76 OFFCURVE",
"383 76 CURVE SMOOTH",
"249 76 LINE",
"252 93 OFFCURVE",
"255 128 OFFCURVE",
"257 164 CURVE SMOOTH",
"266 328 LINE",
"292 329 LINE SMOOTH",
"346 331 OFFCURVE",
"390 325 OFFCURVE",
"386 241 CURVE",
"452 241 LINE",
"464 484 LINE",
"387 484 LINE",
"387 459 OFFCURVE",
"387 425 OFFCURVE",
"387 397 CURVE",
"270 397 LINE",
"277 547 LINE SMOOTH",
"281 625 OFFCURVE",
"307 633 OFFCURVE",
"349 634 CURVE SMOOTH",
"385 635 LINE SMOOTH",
"439 637 OFFCURVE",
"505 615 OFFCURVE",
"500 506 CURVE",
"565 506 LINE",
"570 700 LINE"
);
},
{
closed = 1;
nodes = (
"299 -69 OFFCURVE",
"269 -98 OFFCURVE",
"267 -134 CURVE SMOOTH",
"265 -169 OFFCURVE",
"289 -198 OFFCURVE",
"325 -198 CURVE SMOOTH",
"361 -198 OFFCURVE",
"385 -169 OFFCURVE",
"387 -134 CURVE SMOOTH",
"389 -98 OFFCURVE",
"365 -69 OFFCURVE",
"331 -69 CURVE SMOOTH"
);
},
{
closed = 1;
nodes = (
"560 821 LINE",
"372 971 LINE",
"353 971 LINE",
"141 821 LINE",
"160 781 LINE",
"353 867 LINE",
"532 779 LINE"
);
}
);
};
components = (
{
name = E;
},
{
name = dotbelowcomb;
transform = "{1, 0, 0, 1, 235, 0}";
},
{
name = circumflexcomb.case;
transform = "{1, 0, 0, 1, 111, 0}";
}
);
layerId = "6B2A2AD0-3CEC-4B3D-96BE-6A11A3496094";
width = 623;
}
);
unicode = 1EC6;
},
{
glyphname = Ecircumflexgrave;
layers = (
{
background = {
anchors = (
{
name = bottom;
position = "{320, 0}";
},
{
name = ogonek;
position = "{544, 5}";
},
{
name = top;
position = "{363, 702}";
},
{
name = topleft;
position = "{33, 700}";
}
);
paths = (
{
closed = 1;
nodes = (
"78 700 LINE",
"76 656 LINE",
"100 657 OFFCURVE",
"125 659 OFFCURVE",
"149 660 CURVE",
"146 640 OFFCURVE",
"143 615 OFFCURVE",
"142 588 CURVE SMOOTH",
"118 156 LINE SMOOTH",
"114 85 OFFCURVE",
"118 36 OFFCURVE",
"43 33 CURVE",
"41 0 LINE",
"553 0 LINE",
"569 195 LINE",
"535 195 LINE",
"529 76 OFFCURVE",
"470 41 OFFCURVE",
"383 40 CURVE SMOOTH",
"192 37 LINE",
"195 54 OFFCURVE",
"197 79 OFFCURVE",
"199 115 CURVE SMOOTH",
"211 344 LINE",
"284 347 LINE SMOOTH",
"370 351 OFFCURVE",
"403 347 OFFCURVE",
"399 259 CURVE",
"432 259 LINE",
"443 477 LINE",
"410 477 LINE",
"406 389 OFFCURVE",
"369 382 OFFCURVE",
"285 383 CURVE SMOOTH",
"213 384 LINE",
"222 544 LINE SMOOTH",
"227 625 OFFCURVE",
"229 661 OFFCURVE",
"304 663 CURVE SMOOTH",
"390 665 LINE SMOOTH",
"465 667 OFFCURVE",
"524 643 OFFCURVE",
"518 525 CURVE",
"551 525 LINE",
"555 700 LINE"
);
},
{
closed = 1;
nodes = (
"503 778 LINE",
"376 878 LINE",
"374 878 LINE",
"237 779 LINE",
"251 754 LINE",
"367 814 LINE",
"487 753 LINE"
);
},
{
closed = 1;
nodes = (
"500 881 LINE",
"429 1001 LINE SMOOTH",
"405 1042 OFFCURVE",
"378 1028 OFFCURVE",
"373 1022 CURVE SMOOTH",
"366 1015 OFFCURVE",
"353 993 OFFCURVE",
"385 960 CURVE SMOOTH",
"478 862 LINE"
);
}
);
};
components = (
{
name = E;
},
{
name = circumflexcomb_gravecomb.case;
transform = "{1, 0, 0, 1, 112, 190}";
}
);
layerId = UUID0;
width = 619;
},
{
background = {
anchors = (
{
name = bottom;
position = "{334, 0}";
},
{
name = ogonek;
position = "{561, 5}";
},
{
name = top;
position = "{343, 700}";
},
{
name = topleft;
position = "{33, 700}";
}
);
paths = (
{
closed = 1;
nodes = (
"72 700 LINE",
"68 623 LINE",
"82 624 OFFCURVE",
"122 625 OFFCURVE",
"143 626 CURVE",
"140 609 OFFCURVE",
"136 572 OFFCURVE",
"134 536 CURVE SMOOTH",
"114 153 LINE SMOOTH",
"110 72 OFFCURVE",
"83 68 OFFCURVE",
"39 66 CURVE",
"35 0 LINE",
"561 0 LINE",
"578 220 LINE",
"512 220 LINE",
"506 112 OFFCURVE",
"442 76 OFFCURVE",
"383 76 CURVE SMOOTH",
"249 76 LINE",
"252 93 OFFCURVE",
"255 128 OFFCURVE",
"257 164 CURVE SMOOTH",
"266 328 LINE",
"292 329 LINE SMOOTH",
"346 331 OFFCURVE",
"390 325 OFFCURVE",
"386 241 CURVE",
"452 241 LINE",
"464 484 LINE",
"387 484 LINE",
"387 459 OFFCURVE",
"387 425 OFFCURVE",
"387 397 CURVE",
"270 397 LINE",
"277 547 LINE SMOOTH",
"281 625 OFFCURVE",
"307 633 OFFCURVE",
"349 634 CURVE SMOOTH",
"385 635 LINE SMOOTH",
"439 637 OFFCURVE",
"505 615 OFFCURVE",
"500 506 CURVE",
"565 506 LINE",
"570 700 LINE"
);
},
{
closed = 1;
nodes = (
"500 812 LINE",
"356 913 LINE",
"343 913 LINE",
"184 807 LINE",
"212 761 LINE",
"343 820 LINE",
"465 760 LINE"
);
},
{
closed = 1;
nodes = (
"501 922 LINE",
"436 1037 LINE SMOOTH",
"421 1065 OFFCURVE",
"390 1078 OFFCURVE",
"362 1057 CURVE SMOOTH",
"335 1033 OFFCURVE",
"346 998 OFFCURVE",
"367 976 CURVE SMOOTH",
"461 888 LINE"
);
}
);
};
components = (
{
name = E;
},
{
name = circumflexcomb_gravecomb.case;
transform = "{1, 0, 0, 1, 111, 200}";
}
);
layerId = "6B2A2AD0-3CEC-4B3D-96BE-6A11A3496094";
width = 623;
}
);
unicode = 1EC0;
},
{
glyphname = Ecircumflexhookabove;
layers = (
{
background = {
anchors = (
{
name = bottom;
position = "{320, 0}";
},
{
name = ogonek;
position = "{544, 5}";
},
{
name = top;
position = "{363, 702}";
},
{
name = topleft;
position = "{33, 700}";
}
);
paths = (
{
closed = 1;
nodes = (
"78 700 LINE",
"76 656 LINE",
"100 657 OFFCURVE",
"125 659 OFFCURVE",
"149 660 CURVE",
"146 640 OFFCURVE",
"143 615 OFFCURVE",
"142 588 CURVE SMOOTH",
"118 156 LINE SMOOTH",
"114 85 OFFCURVE",
"118 36 OFFCURVE",
"43 33 CURVE",
"41 0 LINE",
"553 0 LINE",
"569 195 LINE",
"535 195 LINE",
"529 76 OFFCURVE",
"470 41 OFFCURVE",
"383 40 CURVE SMOOTH",
"192 37 LINE",
"195 54 OFFCURVE",
"197 79 OFFCURVE",
"199 115 CURVE SMOOTH",
"211 344 LINE",
"284 347 LINE SMOOTH",
"370 351 OFFCURVE",
"403 347 OFFCURVE",
"399 259 CURVE",
"432 259 LINE",
"443 477 LINE",
"410 477 LINE",
"406 389 OFFCURVE",
"369 382 OFFCURVE",
"285 383 CURVE SMOOTH",
"213 384 LINE",
"222 544 LINE SMOOTH",
"227 625 OFFCURVE",
"229 661 OFFCURVE",
"304 663 CURVE SMOOTH",
"390 665 LINE SMOOTH",
"465 667 OFFCURVE",
"524 643 OFFCURVE",
"518 525 CURVE",
"551 525 LINE",
"555 700 LINE"
);
},
{
closed = 1;
nodes = (
"503 778 LINE",
"376 878 LINE",
"374 878 LINE",
"237 779 LINE",
"251 754 LINE",
"367 814 LINE",
"487 753 LINE"
);
},
{
closed = 1;
nodes = (
"489 857 LINE",
"490 868 OFFCURVE",
"504 877 OFFCURVE",
"521 889 CURVE SMOOTH",
"546 907 OFFCURVE",
"564 924 OFFCURVE",
"566 958 CURVE SMOOTH",
"568 998 OFFCURVE",
"531 1039 OFFCURVE",
"461 1039 CURVE SMOOTH",
"394 1039 OFFCURVE",
"356 1003 OFFCURVE",
"353 969 CURVE SMOOTH",
"351 942 OFFCURVE",
"368 931 OFFCURVE",
"384 931 CURVE SMOOTH",
"400 931 OFFCURVE",
"416 941 OFFCURVE",
"416 957 CURVE SMOOTH",
"416 963 OFFCURVE",
"414 969 OFFCURVE",
"411 973 CURVE",
"414 987 OFFCURVE",
"436 1003 OFFCURVE",
"460 1003 CURVE SMOOTH",
"493 1003 OFFCURVE",
"512 978 OFFCURVE",
"510 951 CURVE SMOOTH",
"509 937 OFFCURVE",
"502 921 OFFCURVE",
"489 910 CURVE SMOOTH",
"471 895 OFFCURVE",
"449 881 OFFCURVE",
"448 857 CURVE"
);
}
);
};
components = (
{
name = E;
},
{
name = circumflexcomb_hookabovecomb.case;
transform = "{1, 0, 0, 1, 214, 190}";
}
);
layerId = UUID0;
width = 619;
},
{
background = {
anchors = (
{
name = bottom;
position = "{334, 0}";
},
{
name = ogonek;
position = "{561, 5}";
},
{
name = top;
position = "{343, 700}";
},
{
name = topleft;
position = "{33, 700}";
}
);
paths = (
{
closed = 1;
nodes = (
"72 700 LINE",
"68 623 LINE",
"82 624 OFFCURVE",
"122 625 OFFCURVE",
"143 626 CURVE",
"140 609 OFFCURVE",
"136 572 OFFCURVE",
"134 536 CURVE SMOOTH",
"114 153 LINE SMOOTH",
"110 72 OFFCURVE",
"83 68 OFFCURVE",
"39 66 CURVE",
"35 0 LINE",
"561 0 LINE",
"578 220 LINE",
"512 220 LINE",
"506 112 OFFCURVE",
"442 76 OFFCURVE",
"383 76 CURVE SMOOTH",
"249 76 LINE",
"252 93 OFFCURVE",
"255 128 OFFCURVE",
"257 164 CURVE SMOOTH",
"266 328 LINE",
"292 329 LINE SMOOTH",
"346 331 OFFCURVE",
"390 325 OFFCURVE",
"386 241 CURVE",
"452 241 LINE",
"464 484 LINE",
"387 484 LINE",
"387 459 OFFCURVE",
"387 425 OFFCURVE",
"387 397 CURVE",
"270 397 LINE",
"277 547 LINE SMOOTH",
"281 625 OFFCURVE",
"307 633 OFFCURVE",
"349 634 CURVE SMOOTH",
"385 635 LINE SMOOTH",
"439 637 OFFCURVE",
"505 615 OFFCURVE",
"500 506 CURVE",
"565 506 LINE",
"570 700 LINE"
);
},
{
closed = 1;
nodes = (
"500 812 LINE",
"356 913 LINE",
"343 913 LINE",
"184 807 LINE",
"212 761 LINE",
"343 820 LINE",
"465 760 LINE"
);
},
{
closed = 1;
nodes = (
"522 875 LINE",
"522 886 OFFCURVE",
"534 899 OFFCURVE",
"550 911 CURVE SMOOTH",
"569 926 OFFCURVE",
"590 940 OFFCURVE",
"592 974 CURVE SMOOTH",
"595 1027 OFFCURVE",
"554 1061 OFFCURVE",
"479 1061 CURVE SMOOTH",
"412 1061 OFFCURVE",
"372 1015 OFFCURVE",
"369 973 CURVE SMOOTH",
"367 946 OFFCURVE",
"387 925 OFFCURVE",
"416 925 CURVE SMOOTH",
"438 925 OFFCURVE",
"449 940 OFFCURVE",
"450 954 CURVE SMOOTH",
"451 967 OFFCURVE",
"442 979 OFFCURVE",
"423 979 CURVE",
"425 988 OFFCURVE",
"440 1005 OFFCURVE",
"476 1005 CURVE SMOOTH",
"503 1005 OFFCURVE",
"523 992 OFFCURVE",
"521 965 CURVE SMOOTH",
"520 949 OFFCURVE",
"512 938 OFFCURVE",
"504 928 CURVE SMOOTH",
"489 910 OFFCURVE",
"465 901 OFFCURVE",
"464 875 CURVE"
);
}
);
};
components = (
{
name = E;
},
{
name = circumflexcomb_hookabovecomb.case;
transform = "{1, 0, 0, 1, 177, 200}";
}
);
layerId = "6B2A2AD0-3CEC-4B3D-96BE-6A11A3496094";
width = 623;
}
);
unicode = 1EC2;
},
{
glyphname = Ecircumflextilde;
layers = (
{
background = {
anchors = (
{
name = bottom;
position = "{320, 0}";
},
{
name = ogonek;
position = "{544, 5}";
},
{
name = top;
position = "{363, 702}";
},
{
name = topleft;
position = "{33, 700}";
}
);
paths = (
{
closed = 1;
nodes = (
"78 700 LINE",
"76 656 LINE",
"100 657 OFFCURVE",
"125 659 OFFCURVE",
"149 660 CURVE",
"146 640 OFFCURVE",
"143 615 OFFCURVE",
"142 588 CURVE SMOOTH",
"118 156 LINE SMOOTH",
"114 85 OFFCURVE",
"118 36 OFFCURVE",
"43 33 CURVE",
"41 0 LINE",
"553 0 LINE",
"569 195 LINE",
"535 195 LINE",
"529 76 OFFCURVE",
"470 41 OFFCURVE",
"383 40 CURVE SMOOTH",
"192 37 LINE",
"195 54 OFFCURVE",
"197 79 OFFCURVE",
"199 115 CURVE SMOOTH",
"211 344 LINE",
"284 347 LINE SMOOTH",
"370 351 OFFCURVE",
"403 347 OFFCURVE",
"399 259 CURVE",
"432 259 LINE",
"443 477 LINE",
"410 477 LINE",
"406 389 OFFCURVE",
"369 382 OFFCURVE",
"285 383 CURVE SMOOTH",
"213 384 LINE",
"222 544 LINE SMOOTH",
"227 625 OFFCURVE",
"229 661 OFFCURVE",
"304 663 CURVE SMOOTH",
"390 665 LINE SMOOTH",
"465 667 OFFCURVE",
"524 643 OFFCURVE",
"518 525 CURVE",
"551 525 LINE",
"555 700 LINE"
);
},
{
closed = 1;
nodes = (
"503 778 LINE",
"376 878 LINE",
"374 878 LINE",
"237 779 LINE",
"251 754 LINE",
"367 814 LINE",
"487 753 LINE"
);
},
{
closed = 1;
nodes = (
"277 917 OFFCURVE",
"302 931 OFFCURVE",
"321 931 CURVE SMOOTH",
"360 931 OFFCURVE",
"380 887 OFFCURVE",
"431 887 CURVE SMOOTH",
"460 887 OFFCURVE",
"496 908 OFFCURVE",
"516 962 CURVE",
"496 972 LINE",
"478 945 OFFCURVE",
"459 929 OFFCURVE",
"434 930 CURVE SMOOTH",
"397 931 OFFCURVE",
"380 974 OFFCURVE",
"328 973 CURVE SMOOTH",
"297 972 OFFCURVE",
"256 943 OFFCURVE",
"240 904 CURVE",
"261 894 LINE"
);
}
);
};
components = (
{
name = E;
},
{
name = circumflexcomb_tildecomb.case;
transform = "{1, 0, 0, 1, 205, 190}";
}
);
layerId = UUID0;
width = 619;
},
{
background = {
anchors = (
{
name = bottom;
position = "{334, 0}";
},
{
name = ogonek;
position = "{561, 5}";
},
{
name = top;
position = "{343, 700}";
},
{
name = topleft;
position = "{33, 700}";
}
);
paths = (
{
closed = 1;
nodes = (
"72 700 LINE",
"68 623 LINE",
"82 624 OFFCURVE",
"122 625 OFFCURVE",
"143 626 CURVE",
"140 609 OFFCURVE",
"136 572 OFFCURVE",
"134 536 CURVE SMOOTH",
"114 153 LINE SMOOTH",
"110 72 OFFCURVE",
"83 68 OFFCURVE",
"39 66 CURVE",
"35 0 LINE",
"561 0 LINE",
"578 220 LINE",
"512 220 LINE",
"506 112 OFFCURVE",
"442 76 OFFCURVE",
"383 76 CURVE SMOOTH",
"249 76 LINE",
"252 93 OFFCURVE",
"255 128 OFFCURVE",
"257 164 CURVE SMOOTH",
"266 328 LINE",
"292 329 LINE SMOOTH",
"346 331 OFFCURVE",
"390 325 OFFCURVE",
"386 241 CURVE",
"452 241 LINE",
"464 484 LINE",
"387 484 LINE",
"387 459 OFFCURVE",
"387 425 OFFCURVE",
"387 397 CURVE",
"270 397 LINE",
"277 547 LINE SMOOTH",
"281 625 OFFCURVE",
"307 633 OFFCURVE",
"349 634 CURVE SMOOTH",
"385 635 LINE SMOOTH",
"439 637 OFFCURVE",
"505 615 OFFCURVE",
"500 506 CURVE",
"565 506 LINE",
"570 700 LINE"
);
},
{
closed = 1;
nodes = (
"500 812 LINE",
"356 913 LINE",
"343 913 LINE",
"184 807 LINE",
"212 761 LINE",
"343 820 LINE",
"465 760 LINE"
);
},
{
closed = 1;
nodes = (
"275 939 OFFCURVE",
"298 947 OFFCURVE",
"311 947 CURVE SMOOTH",
"343 947 OFFCURVE",
"366 915 OFFCURVE",
"410 915 CURVE SMOOTH",
"443 915 OFFCURVE",
"484 940 OFFCURVE",
"507 1009 CURVE",
"463 1033 LINE",
"449 1007 OFFCURVE",
"430 990 OFFCURVE",
"410 990 CURVE SMOOTH",
"370 990 OFFCURVE",
"360 1022 OFFCURVE",
"309 1022 CURVE SMOOTH",
"273 1022 OFFCURVE",
"232 990 OFFCURVE",
"214 941 CURVE",
"258 913 LINE"
);
}
);
};
components = (
{
name = E;
},
{
name = circumflexcomb_tildecomb.case;
transform = "{1, 0, 0, 1, 173, 200}";
}
);
layerId = "6B2A2AD0-3CEC-4B3D-96BE-6A11A3496094";
width = 623;
}
);
unicode = 1EC4;
},
{
glyphname = Edieresis;
layers = (
{
background = {
anchors = (
{
name = bottom;
position = "{320, 0}";
},
{
name = ogonek;
position = "{544, 5}";
},
{
name = top;
position = "{373, 899}";
},
{
name = topleft;
position = "{33, 700}";
}
);
paths = (
{
closed = 1;
nodes = (
"78 700 LINE",
"76 656 LINE",
"100 657 OFFCURVE",
"125 659 OFFCURVE",
"149 660 CURVE",
"146 640 OFFCURVE",
"143 615 OFFCURVE",
"142 588 CURVE SMOOTH",
"118 156 LINE SMOOTH",
"114 85 OFFCURVE",
"118 36 OFFCURVE",
"43 33 CURVE",
"41 0 LINE",
"553 0 LINE",
"569 195 LINE",
"535 195 LINE",
"529 76 OFFCURVE",
"470 41 OFFCURVE",
"383 40 CURVE SMOOTH",
"192 37 LINE",
"195 54 OFFCURVE",
"197 79 OFFCURVE",
"199 115 CURVE SMOOTH",
"211 344 LINE",
"284 347 LINE SMOOTH",
"370 351 OFFCURVE",
"403 347 OFFCURVE",
"399 259 CURVE",
"432 259 LINE",
"443 477 LINE",
"410 477 LINE",
"406 389 OFFCURVE",
"369 382 OFFCURVE",
"285 383 CURVE SMOOTH",
"213 384 LINE",
"222 544 LINE SMOOTH",
"227 625 OFFCURVE",
"229 661 OFFCURVE",
"304 663 CURVE SMOOTH",
"390 665 LINE SMOOTH",
"465 667 OFFCURVE",
"524 643 OFFCURVE",
"518 525 CURVE",
"551 525 LINE",
"555 700 LINE"
);
},
{
closed = 1;
nodes = (
"312 780 OFFCURVE",
"337 806 OFFCURVE",
"338 839 CURVE SMOOTH",
"340 873 OFFCURVE",
"321 899 OFFCURVE",
"294 899 CURVE SMOOTH",
"266 899 OFFCURVE",
"241 873 OFFCURVE",
"240 839 CURVE SMOOTH",
"239 806 OFFCURVE",
"259 780 OFFCURVE",
"287 780 CURVE SMOOTH"
);
},
{
closed = 1;
nodes = (
"474 780 OFFCURVE",
"499 806 OFFCURVE",
"500 839 CURVE SMOOTH",
"501 873 OFFCURVE",
"483 899 OFFCURVE",
"455 899 CURVE SMOOTH",
"428 899 OFFCURVE",
"403 873 OFFCURVE",
"402 839 CURVE SMOOTH",
"401 806 OFFCURVE",
"421 780 OFFCURVE",
"448 780 CURVE SMOOTH"
);
}
);
};
components = (
{
name = E;
},
{
name = dieresiscomb.case;
transform = "{1, 0, 0, 1, 194, 2}";
}
);
layerId = UUID0;
width = 619;
},
{
background = {
anchors = (
{
name = bottom;
position = "{334, 0}";
},
{
name = ogonek;
position = "{561, 5}";
},
{
name = top;
position = "{356, 949}";
},
{
name = topleft;
position = "{33, 700}";
}
);
paths = (
{
closed = 1;
nodes = (
"72 700 LINE",
"68 623 LINE",
"82 624 OFFCURVE",
"122 625 OFFCURVE",
"143 626 CURVE",
"140 609 OFFCURVE",
"136 572 OFFCURVE",
"134 536 CURVE SMOOTH",
"114 153 LINE SMOOTH",
"110 72 OFFCURVE",
"83 68 OFFCURVE",
"39 66 CURVE",
"35 0 LINE",
"561 0 LINE",
"578 220 LINE",
"512 220 LINE",
"506 112 OFFCURVE",
"442 76 OFFCURVE",
"383 76 CURVE SMOOTH",
"249 76 LINE",
"252 93 OFFCURVE",
"255 128 OFFCURVE",
"257 164 CURVE SMOOTH",
"266 328 LINE",
"292 329 LINE SMOOTH",
"346 331 OFFCURVE",
"390 325 OFFCURVE",
"386 241 CURVE",
"452 241 LINE",
"464 484 LINE",
"387 484 LINE",
"387 459 OFFCURVE",
"387 425 OFFCURVE",
"387 397 CURVE",
"270 397 LINE",
"277 547 LINE SMOOTH",
"281 625 OFFCURVE",
"307 633 OFFCURVE",
"349 634 CURVE SMOOTH",
"385 635 LINE SMOOTH",
"439 637 OFFCURVE",
"505 615 OFFCURVE",
"500 506 CURVE",
"565 506 LINE",
"570 700 LINE"
);
},
{
closed = 1;
nodes = (
"300 797 OFFCURVE",
"330 835 OFFCURVE",
"330 878 CURVE SMOOTH",
"330 917 OFFCURVE",
"306 949 OFFCURVE",
"271 949 CURVE SMOOTH",
"234 949 OFFCURVE",
"201 912 OFFCURVE",
"201 868 CURVE SMOOTH",
"201 828 OFFCURVE",
"227 797 OFFCURVE",
"261 797 CURVE SMOOTH"
);
},
{
closed = 1;
nodes = (
"474 797 OFFCURVE",
"504 834 OFFCURVE",
"504 878 CURVE SMOOTH",
"504 917 OFFCURVE",
"481 949 OFFCURVE",
"445 949 CURVE SMOOTH",
"408 949 OFFCURVE",
"376 912 OFFCURVE",
"376 868 CURVE SMOOTH",
"376 828 OFFCURVE",
"401 797 OFFCURVE",
"436 797 CURVE SMOOTH"
);
}
);
};
components = (
{
name = E;
},
{
name = dieresiscomb.case;
transform = "{1, 0, 0, 1, 156, 0}";
}
);
layerId = "6B2A2AD0-3CEC-4B3D-96BE-6A11A3496094";
width = 623;
}
);
leftKerningGroup = I;
rightKerningGroup = E;
unicode = 00CB;
},
{
glyphname = Edotaccent;
layers = (
{
background = {
anchors = (
{
name = bottom;
position = "{320, 0}";
},
{
name = ogonek;
position = "{544, 5}";
},
{
name = top;
position = "{363, 702}";
},
{
name = topleft;
position = "{33, 700}";
}
);
paths = (
{
closed = 1;
nodes = (
"78 700 LINE",
"76 656 LINE",
"100 657 OFFCURVE",
"125 659 OFFCURVE",
"149 660 CURVE",
"146 640 OFFCURVE",
"143 615 OFFCURVE",
"142 588 CURVE SMOOTH",
"118 156 LINE SMOOTH",
"114 85 OFFCURVE",
"118 36 OFFCURVE",
"43 33 CURVE",
"41 0 LINE",
"553 0 LINE",
"569 195 LINE",
"535 195 LINE",
"529 76 OFFCURVE",
"470 41 OFFCURVE",
"383 40 CURVE SMOOTH",
"192 37 LINE",
"195 54 OFFCURVE",
"197 79 OFFCURVE",
"199 115 CURVE SMOOTH",
"211 344 LINE",
"284 347 LINE SMOOTH",
"370 351 OFFCURVE",
"403 347 OFFCURVE",
"399 259 CURVE",
"432 259 LINE",
"443 477 LINE",
"410 477 LINE",
"406 389 OFFCURVE",
"369 382 OFFCURVE",
"285 383 CURVE SMOOTH",
"213 384 LINE",
"222 544 LINE SMOOTH",
"227 625 OFFCURVE",
"229 661 OFFCURVE",
"304 663 CURVE SMOOTH",
"390 665 LINE SMOOTH",
"465 667 OFFCURVE",
"524 643 OFFCURVE",
"518 525 CURVE",
"551 525 LINE",
"555 700 LINE"
);
},
{
closed = 1;
nodes = (
"347 915 OFFCURVE",
"321 890 OFFCURVE",
"319 857 CURVE SMOOTH",
"318 824 OFFCURVE",
"340 799 OFFCURVE",
"369 799 CURVE SMOOTH",
"396 799 OFFCURVE",
"423 824 OFFCURVE",
"424 857 CURVE SMOOTH",
"426 890 OFFCURVE",
"405 915 OFFCURVE",
"376 915 CURVE SMOOTH"
);
}
);
};
components = (
{
name = E;
},
{
name = dotaccentcomb;
transform = "{1, 0, 0, 1, 272, 190}";
}
);
layerId = UUID0;
width = 619;
},
{
background = {
anchors = (
{
name = bottom;
position = "{334, 0}";
},
{
name = ogonek;
position = "{561, 5}";
},
{
name = top;
position = "{343, 700}";
},
{
name = topleft;
position = "{33, 700}";
}
);
paths = (
{
closed = 1;
nodes = (
"72 700 LINE",
"68 623 LINE",
"82 624 OFFCURVE",
"122 625 OFFCURVE",
"143 626 CURVE",
"140 609 OFFCURVE",
"136 572 OFFCURVE",
"134 536 CURVE SMOOTH",
"114 153 LINE SMOOTH",
"110 72 OFFCURVE",
"83 68 OFFCURVE",
"39 66 CURVE",
"35 0 LINE",
"561 0 LINE",
"578 220 LINE",
"512 220 LINE",
"506 112 OFFCURVE",
"442 76 OFFCURVE",
"383 76 CURVE SMOOTH",
"249 76 LINE",
"252 93 OFFCURVE",
"255 128 OFFCURVE",
"257 164 CURVE SMOOTH",
"266 328 LINE",
"292 329 LINE SMOOTH",
"346 331 OFFCURVE",
"390 325 OFFCURVE",
"386 241 CURVE",
"452 241 LINE",
"464 484 LINE",
"387 484 LINE",
"387 459 OFFCURVE",
"387 425 OFFCURVE",
"387 397 CURVE",
"270 397 LINE",
"277 547 LINE SMOOTH",
"281 625 OFFCURVE",
"307 633 OFFCURVE",
"349 634 CURVE SMOOTH",
"385 635 LINE SMOOTH",
"439 637 OFFCURVE",
"505 615 OFFCURVE",
"500 506 CURVE",
"565 506 LINE",
"570 700 LINE"
);
},
{
closed = 1;
nodes = (
"312 953 OFFCURVE",
"279 921 OFFCURVE",
"277 881 CURVE SMOOTH",
"275 842 OFFCURVE",
"301 809 OFFCURVE",
"341 809 CURVE SMOOTH",
"381 809 OFFCURVE",
"409 842 OFFCURVE",
"411 881 CURVE SMOOTH",
"413 921 OFFCURVE",
"386 953 OFFCURVE",
"348 953 CURVE SMOOTH"
);
}
);
};
components = (
{
name = E;
},
{
name = dotaccentcomb;
transform = "{1, 0, 0, 1, 230, 200}";
}
);
layerId = "6B2A2AD0-3CEC-4B3D-96BE-6A11A3496094";
width = 623;
}
);
leftKerningGroup = I;
rightKerningGroup = E;
unicode = 0116;
},
{
glyphname = Edotbelow;
layers = (
{
background = {
anchors = (
{
name = bottom;
position = "{309, -187}";
},
{
name = ogonek;
position = "{544, 5}";
},
{
name = top;
position = "{363, 702}";
},
{
name = topleft;
position = "{33, 700}";
}
);
paths = (
{
closed = 1;
nodes = (
"78 700 LINE",
"76 656 LINE",
"100 657 OFFCURVE",
"125 659 OFFCURVE",
"149 660 CURVE",
"146 640 OFFCURVE",
"143 615 OFFCURVE",
"142 588 CURVE SMOOTH",
"118 156 LINE SMOOTH",
"114 85 OFFCURVE",
"118 36 OFFCURVE",
"43 33 CURVE",
"41 0 LINE",
"553 0 LINE",
"569 195 LINE",
"535 195 LINE",
"529 76 OFFCURVE",
"470 41 OFFCURVE",
"383 40 CURVE SMOOTH",
"192 37 LINE",
"195 54 OFFCURVE",
"197 79 OFFCURVE",
"199 115 CURVE SMOOTH",
"211 344 LINE",
"284 347 LINE SMOOTH",
"370 351 OFFCURVE",
"403 347 OFFCURVE",
"399 259 CURVE",
"432 259 LINE",
"443 477 LINE",
"410 477 LINE",
"406 389 OFFCURVE",
"369 382 OFFCURVE",
"285 383 CURVE SMOOTH",
"213 384 LINE",
"222 544 LINE SMOOTH",
"227 625 OFFCURVE",
"229 661 OFFCURVE",
"304 663 CURVE SMOOTH",
"390 665 LINE SMOOTH",
"465 667 OFFCURVE",
"524 643 OFFCURVE",
"518 525 CURVE",
"551 525 LINE",
"555 700 LINE"
);
},
{
closed = 1;
nodes = (
"291 -82 OFFCURVE",
"267 -105 OFFCURVE",
"266 -134 CURVE SMOOTH",
"265 -164 OFFCURVE",
"285 -186 OFFCURVE",
"310 -186 CURVE SMOOTH",
"335 -186 OFFCURVE",
"359 -164 OFFCURVE",
"360 -134 CURVE SMOOTH",
"361 -105 OFFCURVE",
"343 -82 OFFCURVE",
"317 -82 CURVE SMOOTH"
);
}
);
};
components = (
{
name = E;
},
{
name = dotbelowcomb;
transform = "{1, 0, 0, 1, 221, 0}";
}
);
layerId = UUID0;
width = 619;
},
{
background = {
anchors = (
{
name = bottom;
position = "{324, -198}";
},
{
name = ogonek;
position = "{561, 5}";
},
{
name = top;
position = "{343, 700}";
},
{
name = topleft;
position = "{33, 700}";
}
);
paths = (
{
closed = 1;
nodes = (
"72 700 LINE",
"68 623 LINE",
"82 624 OFFCURVE",
"122 625 OFFCURVE",
"143 626 CURVE",
"140 609 OFFCURVE",
"136 572 OFFCURVE",
"134 536 CURVE SMOOTH",
"114 153 LINE SMOOTH",
"110 72 OFFCURVE",
"83 68 OFFCURVE",
"39 66 CURVE",
"35 0 LINE",
"561 0 LINE",
"578 220 LINE",
"512 220 LINE",
"506 112 OFFCURVE",
"442 76 OFFCURVE",
"383 76 CURVE SMOOTH",
"249 76 LINE",
"252 93 OFFCURVE",
"255 128 OFFCURVE",
"257 164 CURVE SMOOTH",
"266 328 LINE",
"292 329 LINE SMOOTH",
"346 331 OFFCURVE",
"390 325 OFFCURVE",
"386 241 CURVE",
"452 241 LINE",
"464 484 LINE",
"387 484 LINE",
"387 459 OFFCURVE",
"387 425 OFFCURVE",
"387 397 CURVE",
"270 397 LINE",
"277 547 LINE SMOOTH",
"281 625 OFFCURVE",
"307 633 OFFCURVE",
"349 634 CURVE SMOOTH",
"385 635 LINE SMOOTH",
"439 637 OFFCURVE",
"505 615 OFFCURVE",
"500 506 CURVE",
"565 506 LINE",
"570 700 LINE"
);
},
{
closed = 1;
nodes = (
"299 -69 OFFCURVE",
"269 -98 OFFCURVE",
"267 -134 CURVE SMOOTH",
"265 -169 OFFCURVE",
"289 -198 OFFCURVE",
"325 -198 CURVE SMOOTH",
"361 -198 OFFCURVE",
"385 -169 OFFCURVE",
"387 -134 CURVE SMOOTH",
"389 -98 OFFCURVE",
"365 -69 OFFCURVE",
"331 -69 CURVE SMOOTH"
);
}
);
};
components = (
{
name = E;
},
{
name = dotbelowcomb;
transform = "{1, 0, 0, 1, 235, 0}";
}
);
layerId = "6B2A2AD0-3CEC-4B3D-96BE-6A11A3496094";
width = 623;
}
);
unicode = 1EB8;
},
{
glyphname = Egrave;
layers = (
{
background = {
anchors = (
{
name = bottom;
position = "{320, 0}";
},
{
name = ogonek;
position = "{544, 5}";
},
{
name = top;
position = "{335, 928}";
},
{
name = topleft;
position = "{33, 700}";
}
);
paths = (
{
closed = 1;
nodes = (
"78 700 LINE",
"76 656 LINE",
"100 657 OFFCURVE",
"125 659 OFFCURVE",
"149 660 CURVE",
"146 640 OFFCURVE",
"143 615 OFFCURVE",
"142 588 CURVE SMOOTH",
"118 156 LINE SMOOTH",
"114 85 OFFCURVE",
"118 36 OFFCURVE",
"43 33 CURVE",
"41 0 LINE",
"553 0 LINE",
"569 195 LINE",
"535 195 LINE",
"529 76 OFFCURVE",
"470 41 OFFCURVE",
"383 40 CURVE SMOOTH",
"192 37 LINE",
"195 54 OFFCURVE",
"197 79 OFFCURVE",
"199 115 CURVE SMOOTH",
"211 344 LINE",
"284 347 LINE SMOOTH",
"370 351 OFFCURVE",
"403 347 OFFCURVE",
"399 259 CURVE",
"432 259 LINE",
"443 477 LINE",
"410 477 LINE",
"406 389 OFFCURVE",
"369 382 OFFCURVE",
"285 383 CURVE SMOOTH",
"213 384 LINE",
"222 544 LINE SMOOTH",
"227 625 OFFCURVE",
"229 661 OFFCURVE",
"304 663 CURVE SMOOTH",
"390 665 LINE SMOOTH",
"465 667 OFFCURVE",
"524 643 OFFCURVE",
"518 525 CURVE",
"551 525 LINE",
"555 700 LINE"
);
},
{
closed = 1;
nodes = (
"430 790 LINE",
"303 908 LINE SMOOTH",
"265 943 OFFCURVE",
"243 923 OFFCURVE",
"238 917 CURVE SMOOTH",
"231 909 OFFCURVE",
"219 883 OFFCURVE",
"263 855 CURVE SMOOTH",
"409 762 LINE"
);
}
);
};
components = (
{
name = E;
},
{
name = gravecomb.case;
transform = "{1, 0, 0, 1, 186, 2}";
}
);
layerId = UUID0;
width = 619;
},
{
background = {
anchors = (
{
name = bottom;
position = "{334, 0}";
},
{
name = ogonek;
position = "{561, 5}";
},
{
name = top;
position = "{327, 963}";
},
{
name = topleft;
position = "{33, 700}";
}
);
paths = (
{
closed = 1;
nodes = (
"72 700 LINE",
"68 623 LINE",
"82 624 OFFCURVE",
"122 625 OFFCURVE",
"143 626 CURVE",
"140 609 OFFCURVE",
"136 572 OFFCURVE",
"134 536 CURVE SMOOTH",
"114 153 LINE SMOOTH",
"110 72 OFFCURVE",
"83 68 OFFCURVE",
"39 66 CURVE",
"35 0 LINE",
"561 0 LINE",
"578 220 LINE",
"512 220 LINE",
"506 112 OFFCURVE",
"442 76 OFFCURVE",
"383 76 CURVE SMOOTH",
"249 76 LINE",
"252 93 OFFCURVE",
"255 128 OFFCURVE",
"257 164 CURVE SMOOTH",
"266 328 LINE",
"292 329 LINE SMOOTH",
"346 331 OFFCURVE",
"390 325 OFFCURVE",
"386 241 CURVE",
"452 241 LINE",
"464 484 LINE",
"387 484 LINE",
"387 459 OFFCURVE",
"387 425 OFFCURVE",
"387 397 CURVE",
"270 397 LINE",
"277 547 LINE SMOOTH",
"281 625 OFFCURVE",
"307 633 OFFCURVE",
"349 634 CURVE SMOOTH",
"385 635 LINE SMOOTH",
"439 637 OFFCURVE",
"505 615 OFFCURVE",
"500 506 CURVE",
"565 506 LINE",
"570 700 LINE"
);
},
{
closed = 1;
nodes = (
"431 819 LINE",
"322 936 LINE SMOOTH",
"295 964 OFFCURVE",
"251 977 OFFCURVE",
"225 943 CURVE SMOOTH",
"198 910 OFFCURVE",
"221 873 OFFCURVE",
"251 854 CURVE",
"392 770 LINE"
);
}
);
};
components = (
{
name = E;
},
{
name = gravecomb.case;
transform = "{1, 0, 0, 1, 168, 0}";
}
);
layerId = "6B2A2AD0-3CEC-4B3D-96BE-6A11A3496094";
width = 623;
}
);
leftKerningGroup = I;
rightKerningGroup = E;
unicode = 00C8;
},
{
glyphname = Ehookabove;
layers = (
{
background = {
anchors = (
{
name = bottom;
position = "{320, 0}";
},
{
name = ogonek;
position = "{544, 5}";
},
{
name = top;
position = "{373, 946}";
},
{
name = topleft;
position = "{33, 700}";
}
);
paths = (
{
closed = 1;
nodes = (
"78 700 LINE",
"76 656 LINE",
"100 657 OFFCURVE",
"125 659 OFFCURVE",
"149 660 CURVE",
"146 640 OFFCURVE",
"143 615 OFFCURVE",
"142 588 CURVE SMOOTH",
"118 156 LINE SMOOTH",
"114 85 OFFCURVE",
"118 36 OFFCURVE",
"43 33 CURVE",
"41 0 LINE",
"553 0 LINE",
"569 195 LINE",
"535 195 LINE",
"529 76 OFFCURVE",
"470 41 OFFCURVE",
"383 40 CURVE SMOOTH",
"192 37 LINE",
"195 54 OFFCURVE",
"197 79 OFFCURVE",
"199 115 CURVE SMOOTH",
"211 344 LINE",
"284 347 LINE SMOOTH",
"370 351 OFFCURVE",
"403 347 OFFCURVE",
"399 259 CURVE",
"432 259 LINE",
"443 477 LINE",
"410 477 LINE",
"406 389 OFFCURVE",
"369 382 OFFCURVE",
"285 383 CURVE SMOOTH",
"213 384 LINE",
"222 544 LINE SMOOTH",
"227 625 OFFCURVE",
"229 661 OFFCURVE",
"304 663 CURVE SMOOTH",
"390 665 LINE SMOOTH",
"465 667 OFFCURVE",
"524 643 OFFCURVE",
"518 525 CURVE",
"551 525 LINE",
"555 700 LINE"
);
},
{
closed = 1;
nodes = (
"377 756 LINE",
"378 767 OFFCURVE",
"392 776 OFFCURVE",
"409 788 CURVE SMOOTH",
"434 806 OFFCURVE",
"452 823 OFFCURVE",
"454 857 CURVE SMOOTH",
"456 897 OFFCURVE",
"419 938 OFFCURVE",
"349 938 CURVE SMOOTH",
"282 938 OFFCURVE",
"244 902 OFFCURVE",
"241 868 CURVE SMOOTH",
"239 841 OFFCURVE",
"256 830 OFFCURVE",
"272 830 CURVE SMOOTH",
"288 830 OFFCURVE",
"304 840 OFFCURVE",
"304 856 CURVE SMOOTH",
"304 862 OFFCURVE",
"302 868 OFFCURVE",
"299 872 CURVE",
"302 886 OFFCURVE",
"324 902 OFFCURVE",
"348 902 CURVE SMOOTH",
"381 902 OFFCURVE",
"400 877 OFFCURVE",
"398 850 CURVE SMOOTH",
"397 836 OFFCURVE",
"390 820 OFFCURVE",
"377 809 CURVE SMOOTH",
"359 794 OFFCURVE",
"337 780 OFFCURVE",
"336 756 CURVE"
);
}
);
};
components = (
{
name = E;
},
{
name = hookabovecomb;
transform = "{1, 0, 0, 1, 196, 190}";
}
);
layerId = UUID0;
width = 619;
},
{
background = {
anchors = (
{
name = bottom;
position = "{334, 0}";
},
{
name = ogonek;
position = "{561, 5}";
},
{
name = top;
position = "{362, 956}";
},
{
name = topleft;
position = "{33, 700}";
}
);
paths = (
{
closed = 1;
nodes = (
"72 700 LINE",
"68 623 LINE",
"82 624 OFFCURVE",
"122 625 OFFCURVE",
"143 626 CURVE",
"140 609 OFFCURVE",
"136 572 OFFCURVE",
"134 536 CURVE SMOOTH",
"114 153 LINE SMOOTH",
"110 72 OFFCURVE",
"83 68 OFFCURVE",
"39 66 CURVE",
"35 0 LINE",
"561 0 LINE",
"578 220 LINE",
"512 220 LINE",
"506 112 OFFCURVE",
"442 76 OFFCURVE",
"383 76 CURVE SMOOTH",
"249 76 LINE",
"252 93 OFFCURVE",
"255 128 OFFCURVE",
"257 164 CURVE SMOOTH",
"266 328 LINE",
"292 329 LINE SMOOTH",
"346 331 OFFCURVE",
"390 325 OFFCURVE",
"386 241 CURVE",
"452 241 LINE",
"464 484 LINE",
"387 484 LINE",
"387 459 OFFCURVE",
"387 425 OFFCURVE",
"387 397 CURVE",
"270 397 LINE",
"277 547 LINE SMOOTH",
"281 625 OFFCURVE",
"307 633 OFFCURVE",
"349 634 CURVE SMOOTH",
"385 635 LINE SMOOTH",
"439 637 OFFCURVE",
"505 615 OFFCURVE",
"500 506 CURVE",
"565 506 LINE",
"570 700 LINE"
);
},
{
closed = 1;
nodes = (
"401 759 LINE",
"401 771 OFFCURVE",
"413 785 OFFCURVE",
"430 798 CURVE SMOOTH",
"450 814 OFFCURVE",
"473 828 OFFCURVE",
"475 864 CURVE SMOOTH",
"478 921 OFFCURVE",
"434 957 OFFCURVE",
"355 957 CURVE SMOOTH",
"284 957 OFFCURVE",
"241 908 OFFCURVE",
"238 863 CURVE SMOOTH",
"236 835 OFFCURVE",
"257 812 OFFCURVE",
"288 812 CURVE SMOOTH",
"311 812 OFFCURVE",
"323 828 OFFCURVE",
"324 843 CURVE SMOOTH",
"325 857 OFFCURVE",
"316 870 OFFCURVE",
"296 870 CURVE",
"298 879 OFFCURVE",
"314 897 OFFCURVE",
"352 897 CURVE SMOOTH",
"380 897 OFFCURVE",
"402 883 OFFCURVE",
"400 855 CURVE SMOOTH",
"399 838 OFFCURVE",
"390 826 OFFCURVE",
"381 816 CURVE SMOOTH",
"364 798 OFFCURVE",
"340 787 OFFCURVE",
"339 759 CURVE"
);
}
);
};
components = (
{
name = E;
},
{
name = hookabovecomb;
transform = "{1, 0, 0, 1, 155, 200}";
}
);
layerId = "6B2A2AD0-3CEC-4B3D-96BE-6A11A3496094";
width = 623;
}
);
unicode = 1EBA;
},
{
glyphname = Emacron;
layers = (
{
background = {
anchors = (
{
name = bottom;
position = "{320, 0}";
},
{
name = ogonek;
position = "{544, 5}";
},
{
name = top;
position = "{363, 702}";
},
{
name = topleft;
position = "{33, 700}";
}
);
paths = (
{
closed = 1;
nodes = (
"78 700 LINE",
"76 656 LINE",
"100 657 OFFCURVE",
"125 659 OFFCURVE",
"149 660 CURVE",
"146 640 OFFCURVE",
"143 615 OFFCURVE",
"142 588 CURVE SMOOTH",
"118 156 LINE SMOOTH",
"114 85 OFFCURVE",
"118 36 OFFCURVE",
"43 33 CURVE",
"41 0 LINE",
"553 0 LINE",
"569 195 LINE",
"535 195 LINE",
"529 76 OFFCURVE",
"470 41 OFFCURVE",
"383 40 CURVE SMOOTH",
"192 37 LINE",
"195 54 OFFCURVE",
"197 79 OFFCURVE",
"199 115 CURVE SMOOTH",
"211 344 LINE",
"284 347 LINE SMOOTH",
"370 351 OFFCURVE",
"403 347 OFFCURVE",
"399 259 CURVE",
"432 259 LINE",
"443 477 LINE",
"410 477 LINE",
"406 389 OFFCURVE",
"369 382 OFFCURVE",
"285 383 CURVE SMOOTH",
"213 384 LINE",
"222 544 LINE SMOOTH",
"227 625 OFFCURVE",
"229 661 OFFCURVE",
"304 663 CURVE SMOOTH",
"390 665 LINE SMOOTH",
"465 667 OFFCURVE",
"524 643 OFFCURVE",
"518 525 CURVE",
"551 525 LINE",
"555 700 LINE"
);
},
{
closed = 1;
nodes = (
"503 839 LINE",
"506 891 LINE",
"241 891 LINE",
"238 835 LINE"
);
}
);
};
components = (
{
name = E;
},
{
name = macroncomb;
transform = "{1, 0, 0, 1, 193, 190}";
}
);
layerId = UUID0;
width = 619;
},
{
background = {
anchors = (
{
name = bottom;
position = "{334, 0}";
},
{
name = ogonek;
position = "{561, 5}";
},
{
name = top;
position = "{343, 700}";
},
{
name = topleft;
position = "{33, 700}";
}
);
paths = (
{
closed = 1;
nodes = (
"72 700 LINE",
"68 623 LINE",
"82 624 OFFCURVE",
"122 625 OFFCURVE",
"143 626 CURVE",
"140 609 OFFCURVE",
"136 572 OFFCURVE",
"134 536 CURVE SMOOTH",
"114 153 LINE SMOOTH",
"110 72 OFFCURVE",
"83 68 OFFCURVE",
"39 66 CURVE",
"35 0 LINE",
"561 0 LINE",
"578 220 LINE",
"512 220 LINE",
"506 112 OFFCURVE",
"442 76 OFFCURVE",
"383 76 CURVE SMOOTH",
"249 76 LINE",
"252 93 OFFCURVE",
"255 128 OFFCURVE",
"257 164 CURVE SMOOTH",
"266 328 LINE",
"292 329 LINE SMOOTH",
"346 331 OFFCURVE",
"390 325 OFFCURVE",
"386 241 CURVE",
"452 241 LINE",
"464 484 LINE",
"387 484 LINE",
"387 459 OFFCURVE",
"387 425 OFFCURVE",
"387 397 CURVE",
"270 397 LINE",
"277 547 LINE SMOOTH",
"281 625 OFFCURVE",
"307 633 OFFCURVE",
"349 634 CURVE SMOOTH",
"385 635 LINE SMOOTH",
"439 637 OFFCURVE",
"505 615 OFFCURVE",
"500 506 CURVE",
"565 506 LINE",
"570 700 LINE"
);
},
{
closed = 1;
nodes = (
"483 832 LINE",
"487 922 LINE",
"203 922 LINE",
"199 829 LINE"
);
}
);
};
components = (
{
name = E;
},
{
name = macroncomb;
transform = "{1, 0, 0, 1, 154, 200}";
}
);
layerId = "6B2A2AD0-3CEC-4B3D-96BE-6A11A3496094";
width = 623;
}
);
leftKerningGroup = I;
rightKerningGroup = E;
unicode = 0112;
},
{
glyphname = Eogonek;
layers = (
{
background = {
anchors = (
{
name = bottom;
position = "{320, 0}";
},
{
name = ogonek;
position = "{544, 5}";
},
{
name = top;
position = "{363, 702}";
},
{
name = topleft;
position = "{33, 700}";
}
);
paths = (
{
closed = 1;
nodes = (
"78 700 LINE",
"76 656 LINE",
"100 657 OFFCURVE",
"125 659 OFFCURVE",
"149 660 CURVE",
"146 640 OFFCURVE",
"143 615 OFFCURVE",
"142 588 CURVE SMOOTH",
"118 156 LINE SMOOTH",
"114 85 OFFCURVE",
"118 36 OFFCURVE",
"43 33 CURVE",
"41 0 LINE",
"553 0 LINE",
"569 195 LINE",
"535 195 LINE",
"529 76 OFFCURVE",
"470 41 OFFCURVE",
"383 40 CURVE SMOOTH",
"192 37 LINE",
"195 54 OFFCURVE",
"197 79 OFFCURVE",
"199 115 CURVE SMOOTH",
"211 344 LINE",
"284 347 LINE SMOOTH",
"370 351 OFFCURVE",
"403 347 OFFCURVE",
"399 259 CURVE",
"432 259 LINE",
"443 477 LINE",
"410 477 LINE",
"406 389 OFFCURVE",
"369 382 OFFCURVE",
"285 383 CURVE SMOOTH",
"213 384 LINE",
"222 544 LINE SMOOTH",
"227 625 OFFCURVE",
"229 661 OFFCURVE",
"304 663 CURVE SMOOTH",
"390 665 LINE SMOOTH",
"465 667 OFFCURVE",
"524 643 OFFCURVE",
"518 525 CURVE",
"551 525 LINE",
"555 700 LINE"
);
},
{
closed = 1;
nodes = (
"470 -279 OFFCURVE",
"517 -247 OFFCURVE",
"545 -216 CURVE",
"531 -199 LINE",
"506 -221 OFFCURVE",
"479 -231 OFFCURVE",
"455 -231 CURVE SMOOTH",
"416 -231 OFFCURVE",
"395 -203 OFFCURVE",
"395 -161 CURVE SMOOTH",
"395 -90 OFFCURVE",
"466 -25 OFFCURVE",
"544 5 CURVE",
"546 31 LINE",
"442 -2 OFFCURVE",
"337 -79 OFFCURVE",
"332 -177 CURVE SMOOTH",
"329 -237 OFFCURVE",
"363 -279 OFFCURVE",
"422 -279 CURVE SMOOTH"
);
}
);
};
components = (
{
name = E;
},
{
name = ogonekcomb;
transform = "{1, 0, 0, 1, 286, -22}";
}
);
layerId = UUID0;
width = 619;
},
{
background = {
anchors = (
{
name = bottom;
position = "{334, 0}";
},
{
name = ogonek;
position = "{561, 5}";
},
{
name = top;
position = "{343, 700}";
},
{
name = topleft;
position = "{33, 700}";
}
);
paths = (
{
closed = 1;
nodes = (
"72 700 LINE",
"68 623 LINE",
"82 624 OFFCURVE",
"122 625 OFFCURVE",
"143 626 CURVE",
"140 609 OFFCURVE",
"136 572 OFFCURVE",
"134 536 CURVE SMOOTH",
"114 153 LINE SMOOTH",
"110 72 OFFCURVE",
"83 68 OFFCURVE",
"39 66 CURVE",
"35 0 LINE",
"561 0 LINE",
"578 220 LINE",
"512 220 LINE",
"506 112 OFFCURVE",
"442 76 OFFCURVE",
"383 76 CURVE SMOOTH",
"249 76 LINE",
"252 93 OFFCURVE",
"255 128 OFFCURVE",
"257 164 CURVE SMOOTH",
"266 328 LINE",
"292 329 LINE SMOOTH",
"346 331 OFFCURVE",
"390 325 OFFCURVE",
"386 241 CURVE",
"452 241 LINE",
"464 484 LINE",
"387 484 LINE",
"387 459 OFFCURVE",
"387 425 OFFCURVE",
"387 397 CURVE",
"270 397 LINE",
"277 547 LINE SMOOTH",
"281 625 OFFCURVE",
"307 633 OFFCURVE",
"349 634 CURVE SMOOTH",
"385 635 LINE SMOOTH",
"439 637 OFFCURVE",
"505 615 OFFCURVE",
"500 506 CURVE",
"565 506 LINE",
"570 700 LINE"
);
},
{
closed = 1;
nodes = (
"477 -260 OFFCURVE",
"528 -229 OFFCURVE",
"566 -183 CURVE",
"533 -140 LINE",
"511 -159 OFFCURVE",
"489 -169 OFFCURVE",
"469 -169 CURVE SMOOTH",
"442 -169 OFFCURVE",
"427 -153 OFFCURVE",
"428 -129 CURVE SMOOTH",
"429 -73 OFFCURVE",
"496 -21 OFFCURVE",
"561 5 CURVE",
"565 67 LINE",
"448 29 OFFCURVE",
"335 -57 OFFCURVE",
"330 -157 CURVE SMOOTH",
"326 -225 OFFCURVE",
"369 -260 OFFCURVE",
"430 -260 CURVE SMOOTH"
);
}
);
};
components = (
{
name = E;
},
{
name = ogonekcomb;
transform = "{1, 0, 0, 1, 284, 5}";
}
);
layerId = "6B2A2AD0-3CEC-4B3D-96BE-6A11A3496094";
width = 623;
}
);
leftKerningGroup = I;
rightKerningGroup = E;
unicode = 0118;
},
{
glyphname = Etilde;
layers = (
{
background = {
anchors = (
{
name = bottom;
position = "{320, 0}";
},
{
name = ogonek;
position = "{544, 5}";
},
{
name = top;
position = "{375, 911}";
},
{
name = topleft;
position = "{33, 700}";
}
);
paths = (
{
closed = 1;
nodes = (
"78 700 LINE",
"76 656 LINE",
"100 657 OFFCURVE",
"125 659 OFFCURVE",
"149 660 CURVE",
"146 640 OFFCURVE",
"143 615 OFFCURVE",
"142 588 CURVE SMOOTH",
"118 156 LINE SMOOTH",
"114 85 OFFCURVE",
"118 36 OFFCURVE",
"43 33 CURVE",
"41 0 LINE",
"553 0 LINE",
"569 195 LINE",
"535 195 LINE",
"529 76 OFFCURVE",
"470 41 OFFCURVE",
"383 40 CURVE SMOOTH",
"192 37 LINE",
"195 54 OFFCURVE",
"197 79 OFFCURVE",
"199 115 CURVE SMOOTH",
"211 344 LINE",
"284 347 LINE SMOOTH",
"370 351 OFFCURVE",
"403 347 OFFCURVE",
"399 259 CURVE",
"432 259 LINE",
"443 477 LINE",
"410 477 LINE",
"406 389 OFFCURVE",
"369 382 OFFCURVE",
"285 383 CURVE SMOOTH",
"213 384 LINE",
"222 544 LINE SMOOTH",
"227 625 OFFCURVE",
"229 661 OFFCURVE",
"304 663 CURVE SMOOTH",
"390 665 LINE SMOOTH",
"465 667 OFFCURVE",
"524 643 OFFCURVE",
"518 525 CURVE",
"551 525 LINE",
"555 700 LINE"
);
},
{
closed = 1;
nodes = (
"250 844 OFFCURVE",
"280 860 OFFCURVE",
"303 860 CURVE SMOOTH",
"350 860 OFFCURVE",
"374 807 OFFCURVE",
"436 807 CURVE SMOOTH",
"471 807 OFFCURVE",
"514 832 OFFCURVE",
"539 898 CURVE",
"515 910 LINE",
"493 877 OFFCURVE",
"470 858 OFFCURVE",
"439 859 CURVE SMOOTH",
"395 860 OFFCURVE",
"374 913 OFFCURVE",
"311 911 CURVE SMOOTH",
"274 910 OFFCURVE",
"224 875 OFFCURVE",
"205 828 CURVE",
"230 815 LINE"
);
}
);
};
components = (
{
name = E;
},
{
name = tildecomb.case;
transform = "{1, 0, 0, 1, 132, 2}";
}
);
layerId = UUID0;
width = 619;
},
{
background = {
anchors = (
{
name = bottom;
position = "{334, 0}";
},
{
name = ogonek;
position = "{561, 5}";
},
{
name = top;
position = "{356, 951}";
},
{
name = topleft;
position = "{33, 700}";
}
);
paths = (
{
closed = 1;
nodes = (
"72 700 LINE",
"68 623 LINE",
"82 624 OFFCURVE",
"122 625 OFFCURVE",
"143 626 CURVE",
"140 609 OFFCURVE",
"136 572 OFFCURVE",
"134 536 CURVE SMOOTH",
"114 153 LINE SMOOTH",
"110 72 OFFCURVE",
"83 68 OFFCURVE",
"39 66 CURVE",
"35 0 LINE",
"561 0 LINE",
"578 220 LINE",
"512 220 LINE",
"506 112 OFFCURVE",
"442 76 OFFCURVE",
"383 76 CURVE SMOOTH",
"249 76 LINE",
"252 93 OFFCURVE",
"255 128 OFFCURVE",
"257 164 CURVE SMOOTH",
"266 328 LINE",
"292 329 LINE SMOOTH",
"346 331 OFFCURVE",
"390 325 OFFCURVE",
"386 241 CURVE",
"452 241 LINE",
"464 484 LINE",
"387 484 LINE",
"387 459 OFFCURVE",
"387 425 OFFCURVE",
"387 397 CURVE",
"270 397 LINE",
"277 547 LINE SMOOTH",
"281 625 OFFCURVE",
"307 633 OFFCURVE",
"349 634 CURVE SMOOTH",
"385 635 LINE SMOOTH",
"439 637 OFFCURVE",
"505 615 OFFCURVE",
"500 506 CURVE",
"565 506 LINE",
"570 700 LINE"
);
},
{
closed = 1;
nodes = (
"248 838 OFFCURVE",
"276 847 OFFCURVE",
"292 847 CURVE SMOOTH",
"331 847 OFFCURVE",
"359 809 OFFCURVE",
"412 809 CURVE SMOOTH",
"452 809 OFFCURVE",
"502 839 OFFCURVE",
"529 923 CURVE",
"476 951 LINE",
"459 920 OFFCURVE",
"436 900 OFFCURVE",
"412 900 CURVE SMOOTH",
"364 900 OFFCURVE",
"352 938 OFFCURVE",
"290 938 CURVE SMOOTH",
"246 938 OFFCURVE",
"196 900 OFFCURVE",
"175 840 CURVE",
"228 806 LINE"
);
}
);
};
components = (
{
name = E;
},
{
name = tildecomb.case;
transform = "{1, 0, 0, 1, 97, 0}";
}
);
layerId = "6B2A2AD0-3CEC-4B3D-96BE-6A11A3496094";
width = 623;
}
);
unicode = 1EBC;
},
{
glyphname = Ezhcaron;
layers = (
{
background = {
anchors = (
{
name = bottom;
position = "{303, 0}";
},
{
name = top;
position = "{354, 962}";
}
);
paths = (
{
closed = 1;
nodes = (
"467 -16 OFFCURVE",
"604 56 OFFCURVE",
"621 196 CURVE SMOOTH",
"633 301 OFFCURVE",
"573 414 OFFCURVE",
"422 416 CURVE",
"620 625 LINE",
"628 700 LINE",
"121 700 LINE",
"104 487 LINE",
"170 487 LINE",
"177 595 OFFCURVE",
"225 637 OFFCURVE",
"299 635 CURVE SMOOTH",
"489 630 LINE",
"455 606 OFFCURVE",
"421 572 OFFCURVE",
"385 531 CURVE SMOOTH",
"262 393 LINE",
"259 358 LINE",
"326 358 LINE SMOOTH",
"436 358 OFFCURVE",
"474 284 OFFCURVE",
"464 202 CURVE SMOOTH",
"450 89 OFFCURVE",
"362 65 OFFCURVE",
"290 65 CURVE SMOOTH",
"188 65 OFFCURVE",
"120 118 OFFCURVE",
"64 189 CURVE",
"13 144 LINE",
"85 35 OFFCURVE",
"204 -16 OFFCURVE",
"322 -16 CURVE SMOOTH"
);
},
{
closed = 1;
nodes = (
"558 922 LINE",
"538 962 LINE",
"347 875 LINE",
"167 962 LINE",
"139 921 LINE",
"326 770 LINE",
"346 770 LINE"
);
}
);
};
components = (
{
name = Ezh;
},
{
name = caroncomb.case;
transform = "{1, 0, 0, 1, 94, 0}";
}
);
layerId = "6B2A2AD0-3CEC-4B3D-96BE-6A11A3496094";
width = 631;
},
{
background = {
anchors = (
{
name = bottom;
position = "{277, 0}";
},
{
name = top;
position = "{326, 945}";
}
);
paths = (
{
closed = 1;
nodes = (
"417 -16 OFFCURVE",
"544 57 OFFCURVE",
"559 201 CURVE SMOOTH",
"570 318 OFFCURVE",
"502 410 OFFCURVE",
"352 418 CURVE",
"580 665 LINE",
"581 700 LINE",
"113 700 LINE",
"96 493 LINE",
"130 493 LINE",
"134 607 OFFCURVE",
"181 658 OFFCURVE",
"260 659 CURVE SMOOTH",
"491 663 LINE",
"449 639 OFFCURVE",
"425 615 OFFCURVE",
"394 583 CURVE",
"246 419 LINE",
"242 377 LINE",
"267 378 LINE",
"409 372 OFFCURVE",
"472 317 OFFCURVE",
"460 205 CURVE SMOOTH",
"448 89 OFFCURVE",
"368 31 OFFCURVE",
"265 31 CURVE SMOOTH",
"163 31 OFFCURVE",
"93 88 OFFCURVE",
"51 146 CURVE",
"23 125 LINE",
"72 45 OFFCURVE",
"158 -16 OFFCURVE",
"282 -16 CURVE SMOOTH"
);
},
{
closed = 1;
nodes = (
"510 919 LINE",
"495 945 LINE",
"318 848 LINE",
"151 943 LINE",
"132 914 LINE",
"315 771 LINE",
"317 771 LINE"
);
}
);
};
components = (
{
name = Ezh;
},
{
name = caroncomb.case;
transform = "{1, 0, 0, 1, 72, 0}";
}
);
layerId = UUID0;
width = 579;
}
);
unicode = 01EE;
},
{
glyphname = F;
layers = (
{
background = {
paths = (
{
closed = 1;
nodes = (
"78 700 LINE",
"76 656 LINE",
"100 657 OFFCURVE",
"125 659 OFFCURVE",
"149 660 CURVE",
"146 640 OFFCURVE",
"143 615 OFFCURVE",
"142 588 CURVE SMOOTH",
"118 156 LINE SMOOTH",
"115 85 OFFCURVE",
"118 36 OFFCURVE",
"43 33 CURVE",
"41 0 LINE",
"292 0 LINE",
"294 44 LINE",
"260 43 OFFCURVE",
"226 41 OFFCURVE",
"192 40 CURVE",
"195 57 OFFCURVE",
"198 83 OFFCURVE",
"199 119 CURVE SMOOTH",
"210 328 LINE",
"236 330 OFFCURVE",
"262 331 OFFCURVE",
"288 331 CURVE SMOOTH",
"359 331 OFFCURVE",
"388 325 OFFCURVE",
"384 243 CURVE",
"417 243 LINE",
"428 462 LINE",
"395 462 LINE",
"391 380 OFFCURVE",
"361 369 OFFCURVE",
"290 368 CURVE SMOOTH",
"212 368 LINE",
"222 552 LINE SMOOTH",
"225 622 OFFCURVE",
"229 661 OFFCURVE",
"297 663 CURVE SMOOTH",
"370 665 LINE SMOOTH",
"445 667 OFFCURVE",
"507 643 OFFCURVE",
"501 525 CURVE",
"534 525 LINE",
"538 700 LINE"
);
}
);
};
layerId = UUID0;
paths = (
{
closed = 1;
nodes = (
"78 700 LINE",
"76 656 LINE",
"100 657 OFFCURVE",
"125 659 OFFCURVE",
"149 660 CURVE",
"146 640 OFFCURVE",
"143 615 OFFCURVE",
"142 588 CURVE SMOOTH",
"118 156 LINE SMOOTH",
"115 85 OFFCURVE",
"118 36 OFFCURVE",
"43 33 CURVE",
"41 0 LINE",
"292 0 LINE",
"294 44 LINE",
"260 43 OFFCURVE",
"226 41 OFFCURVE",
"192 40 CURVE",
"195 57 OFFCURVE",
"198 83 OFFCURVE",
"199 119 CURVE SMOOTH",
"210 328 LINE",
"236 330 OFFCURVE",
"262 331 OFFCURVE",
"288 331 CURVE SMOOTH",
"359 331 OFFCURVE",
"388 325 OFFCURVE",
"384 243 CURVE",
"417 243 LINE",
"428 462 LINE",
"395 462 LINE",
"391 380 OFFCURVE",
"361 369 OFFCURVE",
"290 368 CURVE SMOOTH",
"212 368 LINE",
"222 552 LINE SMOOTH",
"225 622 OFFCURVE",
"229 661 OFFCURVE",
"297 663 CURVE SMOOTH",
"370 665 LINE SMOOTH",
"445 667 OFFCURVE",
"507 643 OFFCURVE",
"501 525 CURVE",
"534 525 LINE",
"538 700 LINE"
);
}
);
width = 541;
},
{
background = {
paths = (
{
closed = 1;
nodes = (
"72 700 LINE",
"68 623 LINE",
"82 624 OFFCURVE",
"122 625 OFFCURVE",
"143 626 CURVE",
"140 609 OFFCURVE",
"136 572 OFFCURVE",
"134 536 CURVE SMOOTH",
"114 153 LINE SMOOTH",
"110 72 OFFCURVE",
"83 68 OFFCURVE",
"39 66 CURVE",
"35 0 LINE",
"333 0 LINE",
"337 77 LINE",
"323 77 OFFCURVE",
"270 76 OFFCURVE",
"249 74 CURVE",
"252 91 OFFCURVE",
"255 128 OFFCURVE",
"257 164 CURVE SMOOTH",
"265 304 LINE",
"269 304 OFFCURVE",
"273 304 OFFCURVE",
"277 304 CURVE SMOOTH",
"331 306 OFFCURVE",
"375 300 OFFCURVE",
"370 216 CURVE",
"436 216 LINE",
"449 459 LINE",
"372 459 LINE",
"372 435 OFFCURVE",
"371 400 OFFCURVE",
"372 373 CURVE",
"268 373 LINE",
"277 547 LINE SMOOTH",
"281 625 OFFCURVE",
"307 633 OFFCURVE",
"349 634 CURVE SMOOTH",
"385 635 LINE SMOOTH",
"439 637 OFFCURVE",
"505 615 OFFCURVE",
"500 506 CURVE",
"565 506 LINE",
"570 700 LINE"
);
}
);
};
layerId = "6B2A2AD0-3CEC-4B3D-96BE-6A11A3496094";
paths = (
{
closed = 1;
nodes = (
"72 700 LINE",
"68 623 LINE",
"82 624 OFFCURVE",
"122 625 OFFCURVE",
"143 626 CURVE",
"140 609 OFFCURVE",
"136 572 OFFCURVE",
"134 536 CURVE SMOOTH",
"114 153 LINE SMOOTH",
"110 72 OFFCURVE",
"83 68 OFFCURVE",
"39 66 CURVE",
"35 0 LINE",
"333 0 LINE",
"337 77 LINE",
"323 77 OFFCURVE",
"270 76 OFFCURVE",
"249 74 CURVE",
"252 91 OFFCURVE",
"255 128 OFFCURVE",
"257 164 CURVE SMOOTH",
"265 304 LINE",
"269 304 OFFCURVE",
"273 304 OFFCURVE",
"277 304 CURVE SMOOTH",
"331 306 OFFCURVE",
"375 300 OFFCURVE",
"370 216 CURVE",
"436 216 LINE",
"449 459 LINE",
"372 459 LINE",
"372 435 OFFCURVE",
"371 400 OFFCURVE",
"372 373 CURVE",
"268 373 LINE",
"277 547 LINE SMOOTH",
"281 625 OFFCURVE",
"307 633 OFFCURVE",
"349 634 CURVE SMOOTH",
"385 635 LINE SMOOTH",
"439 637 OFFCURVE",
"505 615 OFFCURVE",
"500 506 CURVE",
"565 506 LINE",
"570 700 LINE"
);
}
);
width = 566;
}
);
leftKerningGroup = I;
unicode = 0046;
},
{
glyphname = G;
layers = (
{
anchors = (
{
name = bottom;
position = "{358, 0}";
},
{
name = top;
position = "{430, 702}";
}
);
background = {
anchors = (
{
name = bottom;
position = "{358, 0}";
},
{
name = top;
position = "{430, 702}";
}
);
paths = (
{
closed = 1;
nodes = (
"410 -16 OFFCURVE",
"472 -6 OFFCURVE",
"514 10 CURVE SMOOTH",
"563 29 OFFCURVE",
"601 36 OFFCURVE",
"623 36 CURVE SMOOTH",
"647 36 LINE",
"655 188 LINE SMOOTH",
"657 215 OFFCURVE",
"658 307 OFFCURVE",
"733 307 CURVE",
"735 340 LINE",
"512 340 LINE",
"510 296 LINE",
"533 297 OFFCURVE",
"557 299 OFFCURVE",
"580 300 CURVE",
"578 266 OFFCURVE",
"577 233 OFFCURVE",
"575 199 CURVE",
"569 82 LINE",
"515 47 OFFCURVE",
"448 32 OFFCURVE",
"395 32 CURVE SMOOTH",
"237 32 OFFCURVE",
"134 169 OFFCURVE",
"144 358 CURVE SMOOTH",
"154 544 OFFCURVE",
"275 676 OFFCURVE",
"417 676 CURVE SMOOTH",
"533 676 OFFCURVE",
"620 605 OFFCURVE",
"622 480 CURVE",
"658 480 LINE",
"670 709 LINE",
"615 709 LINE",
"617 662 LINE",
"562 695 OFFCURVE",
"485 716 OFFCURVE",
"413 716 CURVE SMOOTH",
"180 716 OFFCURVE",
"60 523 OFFCURVE",
"50 335 CURVE SMOOTH",
"38 116 OFFCURVE",
"165 -16 OFFCURVE",
"366 -16 CURVE SMOOTH"
);
}
);
};
layerId = UUID0;
paths = (
{
closed = 1;
nodes = (
"410 -16 OFFCURVE",
"472 -6 OFFCURVE",
"514 10 CURVE SMOOTH",
"563 29 OFFCURVE",
"601 36 OFFCURVE",
"623 36 CURVE SMOOTH",
"647 36 LINE",
"655 188 LINE SMOOTH",
"657 215 OFFCURVE",
"658 307 OFFCURVE",
"733 307 CURVE",
"735 340 LINE",
"512 340 LINE",
"510 296 LINE",
"533 297 OFFCURVE",
"557 299 OFFCURVE",
"580 300 CURVE",
"578 266 OFFCURVE",
"577 233 OFFCURVE",
"575 199 CURVE",
"569 82 LINE",
"515 47 OFFCURVE",
"448 32 OFFCURVE",
"395 32 CURVE SMOOTH",
"237 32 OFFCURVE",
"134 169 OFFCURVE",
"144 358 CURVE SMOOTH",
"154 544 OFFCURVE",
"275 676 OFFCURVE",
"417 676 CURVE SMOOTH",
"533 676 OFFCURVE",
"620 605 OFFCURVE",
"622 480 CURVE",
"658 480 LINE",
"670 709 LINE",
"615 709 LINE",
"617 662 LINE",
"562 695 OFFCURVE",
"485 716 OFFCURVE",
"413 716 CURVE SMOOTH",
"180 716 OFFCURVE",
"60 523 OFFCURVE",
"50 335 CURVE SMOOTH",
"38 116 OFFCURVE",
"165 -16 OFFCURVE",
"366 -16 CURVE SMOOTH"
);
}
);
width = 753;
},
{
anchors = (
{
name = bottom;
position = "{368, 0}";
},
{
name = top;
position = "{427, 700}";
}
);
background = {
anchors = (
{
name = bottom;
position = "{368, 0}";
},
{
name = top;
position = "{427, 700}";
}
);
paths = (
{
closed = 1;
nodes = (
"427 -16 OFFCURVE",
"479 -1 OFFCURVE",
"525 12 CURVE SMOOTH",
"563 24 OFFCURVE",
"598 34 OFFCURVE",
"633 34 CURVE SMOOTH",
"658 34 LINE",
"666 194 LINE SMOOTH",
"670 270 OFFCURVE",
"692 279 OFFCURVE",
"737 281 CURVE",
"740 347 LINE",
"477 347 LINE",
"473 270 LINE",
"487 271 OFFCURVE",
"527 271 OFFCURVE",
"548 273 CURVE",
"545 256 OFFCURVE",
"542 219 OFFCURVE",
"540 183 CURVE SMOOTH",
"535 90 LINE",
"497 72 OFFCURVE",
"428 63 OFFCURVE",
"390 63 CURVE SMOOTH",
"253 63 OFFCURVE",
"185 188 OFFCURVE",
"194 360 CURVE SMOOTH",
"202 504 OFFCURVE",
"276 644 OFFCURVE",
"416 644 CURVE SMOOTH",
"509 643 OFFCURVE",
"580 587 OFFCURVE",
"592 476 CURVE",
"658 476 LINE",
"670 709 LINE",
"593 709 LINE",
"593 667 LINE",
"542 699 OFFCURVE",
"458 716 OFFCURVE",
"406 716 CURVE SMOOTH",
"173 716 OFFCURVE",
"48 522 OFFCURVE",
"39 340 CURVE SMOOTH",
"28 141 OFFCURVE",
"144 -16 OFFCURVE",
"361 -16 CURVE SMOOTH"
);
}
);
};
layerId = "6B2A2AD0-3CEC-4B3D-96BE-6A11A3496094";
paths = (
{
closed = 1;
nodes = (
"427 -16 OFFCURVE",
"479 -1 OFFCURVE",
"525 12 CURVE SMOOTH",
"563 24 OFFCURVE",
"598 34 OFFCURVE",
"633 34 CURVE SMOOTH",
"658 34 LINE",
"666 194 LINE SMOOTH",
"670 270 OFFCURVE",
"692 279 OFFCURVE",
"737 281 CURVE",
"740 347 LINE",
"477 347 LINE",
"473 270 LINE",
"487 271 OFFCURVE",
"527 271 OFFCURVE",
"548 273 CURVE",
"545 256 OFFCURVE",
"542 219 OFFCURVE",
"540 183 CURVE SMOOTH",
"535 90 LINE",
"497 72 OFFCURVE",
"428 63 OFFCURVE",
"390 63 CURVE SMOOTH",
"253 63 OFFCURVE",
"185 188 OFFCURVE",
"194 360 CURVE SMOOTH",
"202 504 OFFCURVE",
"276 644 OFFCURVE",
"416 644 CURVE SMOOTH",
"509 643 OFFCURVE",
"580 587 OFFCURVE",
"592 476 CURVE",
"658 476 LINE",
"670 709 LINE",
"593 709 LINE",
"593 667 LINE",
"542 699 OFFCURVE",
"458 716 OFFCURVE",
"406 716 CURVE SMOOTH",
"173 716 OFFCURVE",
"48 522 OFFCURVE",
"39 340 CURVE SMOOTH",
"28 141 OFFCURVE",
"144 -16 OFFCURVE",
"361 -16 CURVE SMOOTH"
);
}
);
width = 756;
}
);
leftKerningGroup = O;
rightKerningGroup = G;
unicode = 0047;
},
{
glyphname = Gbreve;
layers = (
{
background = {
anchors = (
{
name = bottom;
position = "{358, 0}";
},
{
name = top;
position = "{430, 702}";
}
);
paths = (
{
closed = 1;
nodes = (
"410 -16 OFFCURVE",
"472 -6 OFFCURVE",
"514 10 CURVE SMOOTH",
"563 29 OFFCURVE",
"601 36 OFFCURVE",
"623 36 CURVE SMOOTH",
"647 36 LINE",
"655 188 LINE SMOOTH",
"657 215 OFFCURVE",
"658 307 OFFCURVE",
"733 307 CURVE",
"735 340 LINE",
"512 340 LINE",
"510 296 LINE",
"533 297 OFFCURVE",
"557 299 OFFCURVE",
"580 300 CURVE",
"578 266 OFFCURVE",
"577 233 OFFCURVE",
"575 199 CURVE",
"569 82 LINE",
"515 47 OFFCURVE",
"448 32 OFFCURVE",
"395 32 CURVE SMOOTH",
"237 32 OFFCURVE",
"134 169 OFFCURVE",
"144 358 CURVE SMOOTH",
"154 544 OFFCURVE",
"275 676 OFFCURVE",
"417 676 CURVE SMOOTH",
"533 676 OFFCURVE",
"620 605 OFFCURVE",
"622 480 CURVE",
"658 480 LINE",
"670 709 LINE",
"615 709 LINE",
"617 662 LINE",
"562 695 OFFCURVE",
"485 716 OFFCURVE",
"413 716 CURVE SMOOTH",
"180 716 OFFCURVE",
"60 523 OFFCURVE",
"50 335 CURVE SMOOTH",
"38 116 OFFCURVE",
"165 -16 OFFCURVE",
"366 -16 CURVE SMOOTH"
);
},
{
closed = 1;
nodes = (
"504 811 OFFCURVE",
"561 847 OFFCURVE",
"597 914 CURVE",
"571 926 LINE",
"548 898 OFFCURVE",
"498 872 OFFCURVE",
"448 872 CURVE SMOOTH",
"397 872 OFFCURVE",
"350 898 OFFCURVE",
"331 926 CURVE",
"304 914 LINE",
"330 847 OFFCURVE",
"382 811 OFFCURVE",
"443 811 CURVE SMOOTH"
);
}
);
};
components = (
{
name = G;
},
{
name = brevecomb.case;
transform = "{1, 0, 0, 1, 264, 2}";
}
);
layerId = UUID0;
width = 753;
},
{
background = {
anchors = (
{
name = bottom;
position = "{368, 0}";
},
{
name = top;
position = "{427, 700}";
}
);
paths = (
{
closed = 1;
nodes = (
"427 -16 OFFCURVE",
"479 -1 OFFCURVE",
"525 12 CURVE SMOOTH",
"563 24 OFFCURVE",
"598 34 OFFCURVE",
"633 34 CURVE SMOOTH",
"658 34 LINE",
"666 194 LINE SMOOTH",
"670 270 OFFCURVE",
"692 279 OFFCURVE",
"737 281 CURVE",
"740 347 LINE",
"477 347 LINE",
"473 270 LINE",
"487 271 OFFCURVE",
"527 271 OFFCURVE",
"548 273 CURVE",
"545 256 OFFCURVE",
"542 219 OFFCURVE",
"540 183 CURVE SMOOTH",
"535 90 LINE",
"497 72 OFFCURVE",
"428 63 OFFCURVE",
"390 63 CURVE SMOOTH",
"253 63 OFFCURVE",
"185 188 OFFCURVE",
"194 360 CURVE SMOOTH",
"202 504 OFFCURVE",
"276 644 OFFCURVE",
"416 644 CURVE SMOOTH",
"509 643 OFFCURVE",
"580 587 OFFCURVE",
"592 476 CURVE",
"658 476 LINE",
"670 709 LINE",
"593 709 LINE",
"593 667 LINE",
"542 699 OFFCURVE",
"458 716 OFFCURVE",
"406 716 CURVE SMOOTH",
"173 716 OFFCURVE",
"48 522 OFFCURVE",
"39 340 CURVE SMOOTH",
"28 141 OFFCURVE",
"144 -16 OFFCURVE",
"361 -16 CURVE SMOOTH"
);
},
{
closed = 1;
nodes = (
"499 787 OFFCURVE",
"577 814 OFFCURVE",
"616 894 CURVE",
"562 934 LINE",
"534 905 OFFCURVE",
"498 879 OFFCURVE",
"440 879 CURVE SMOOTH",
"382 879 OFFCURVE",
"349 905 OFFCURVE",
"326 934 CURVE",
"266 894 LINE",
"294 814 OFFCURVE",
"368 787 OFFCURVE",
"434 787 CURVE SMOOTH"
);
}
);
};
components = (
{
name = G;
},
{
name = brevecomb.case;
transform = "{1, 0, 0, 1, 220, 0}";
}
);
layerId = "6B2A2AD0-3CEC-4B3D-96BE-6A11A3496094";
width = 756;
}
);
leftKerningGroup = O;
rightKerningGroup = G;
unicode = 011E;
},
{
glyphname = Gcaron;
layers = (
{
background = {
anchors = (
{
name = bottom;
position = "{368, 0}";
},
{
name = top;
position = "{441, 962}";
}
);
paths = (
{
closed = 1;
nodes = (
"427 -16 OFFCURVE",
"479 -1 OFFCURVE",
"525 12 CURVE SMOOTH",
"563 24 OFFCURVE",
"598 34 OFFCURVE",
"633 34 CURVE SMOOTH",
"658 34 LINE",
"666 194 LINE SMOOTH",
"670 270 OFFCURVE",
"692 279 OFFCURVE",
"737 281 CURVE",
"740 347 LINE",
"477 347 LINE",
"473 270 LINE",
"487 271 OFFCURVE",
"527 271 OFFCURVE",
"548 273 CURVE",
"545 256 OFFCURVE",
"542 219 OFFCURVE",
"540 183 CURVE SMOOTH",
"535 90 LINE",
"497 72 OFFCURVE",
"428 63 OFFCURVE",
"390 63 CURVE SMOOTH",
"253 63 OFFCURVE",
"185 188 OFFCURVE",
"194 360 CURVE SMOOTH",
"202 504 OFFCURVE",
"276 644 OFFCURVE",
"416 644 CURVE SMOOTH",
"509 643 OFFCURVE",
"580 587 OFFCURVE",
"592 476 CURVE",
"658 476 LINE",
"670 709 LINE",
"593 709 LINE",
"593 667 LINE",
"542 699 OFFCURVE",
"458 716 OFFCURVE",
"406 716 CURVE SMOOTH",
"173 716 OFFCURVE",
"48 522 OFFCURVE",
"39 340 CURVE SMOOTH",
"28 141 OFFCURVE",
"144 -16 OFFCURVE",
"361 -16 CURVE SMOOTH"
);
},
{
closed = 1;
nodes = (
"645 922 LINE",
"625 962 LINE",
"434 875 LINE",
"254 962 LINE",
"226 921 LINE",
"413 770 LINE",
"433 770 LINE"
);
}
);
};
components = (
{
name = G;
},
{
name = caroncomb.case;
transform = "{1, 0, 0, 1, 181, 0}";
}
);
layerId = "6B2A2AD0-3CEC-4B3D-96BE-6A11A3496094";
width = 756;
},
{
background = {
anchors = (
{
name = bottom;
position = "{358, 0}";
},
{
name = top;
position = "{443, 947}";
}
);
paths = (
{
closed = 1;
nodes = (
"410 -16 OFFCURVE",
"472 -6 OFFCURVE",
"514 10 CURVE SMOOTH",
"563 29 OFFCURVE",
"601 36 OFFCURVE",
"623 36 CURVE SMOOTH",
"647 36 LINE",
"655 188 LINE SMOOTH",
"657 215 OFFCURVE",
"658 307 OFFCURVE",
"733 307 CURVE",
"735 340 LINE",
"512 340 LINE",
"510 296 LINE",
"533 297 OFFCURVE",
"557 299 OFFCURVE",
"580 300 CURVE",
"578 266 OFFCURVE",
"577 233 OFFCURVE",
"575 199 CURVE",
"569 82 LINE",
"515 47 OFFCURVE",
"448 32 OFFCURVE",
"395 32 CURVE SMOOTH",
"237 32 OFFCURVE",
"134 169 OFFCURVE",
"144 358 CURVE SMOOTH",
"154 544 OFFCURVE",
"275 676 OFFCURVE",
"417 676 CURVE SMOOTH",
"533 676 OFFCURVE",
"620 605 OFFCURVE",
"622 480 CURVE",
"658 480 LINE",
"670 709 LINE",
"615 709 LINE",
"617 662 LINE",
"562 695 OFFCURVE",
"485 716 OFFCURVE",
"413 716 CURVE SMOOTH",
"180 716 OFFCURVE",
"60 523 OFFCURVE",
"50 335 CURVE SMOOTH",
"38 116 OFFCURVE",
"165 -16 OFFCURVE",
"366 -16 CURVE SMOOTH"
);
},
{
closed = 1;
nodes = (
"627 921 LINE",
"612 947 LINE",
"435 850 LINE",
"268 945 LINE",
"249 916 LINE",
"432 773 LINE",
"434 773 LINE"
);
}
);
};
components = (
{
name = G;
},
{
name = caroncomb.case;
transform = "{1, 0, 0, 1, 189, 2}";
}
);
layerId = UUID0;
width = 753;
}
);
unicode = 01E6;
},
{
glyphname = Gcircumflex;
layers = (
{
background = {
anchors = (
{
name = bottom;
position = "{358, 0}";
},
{
name = top;
position = "{430, 702}";
}
);
paths = (
{
closed = 1;
nodes = (
"410 -16 OFFCURVE",
"472 -6 OFFCURVE",
"514 10 CURVE SMOOTH",
"563 29 OFFCURVE",
"601 36 OFFCURVE",
"623 36 CURVE SMOOTH",
"647 36 LINE",
"655 188 LINE SMOOTH",
"657 215 OFFCURVE",
"658 307 OFFCURVE",
"733 307 CURVE",
"735 340 LINE",
"512 340 LINE",
"510 296 LINE",
"533 297 OFFCURVE",
"557 299 OFFCURVE",
"580 300 CURVE",
"578 266 OFFCURVE",
"577 233 OFFCURVE",
"575 199 CURVE",
"569 82 LINE",
"515 47 OFFCURVE",
"448 32 OFFCURVE",
"395 32 CURVE SMOOTH",
"237 32 OFFCURVE",
"134 169 OFFCURVE",
"144 358 CURVE SMOOTH",
"154 544 OFFCURVE",
"275 676 OFFCURVE",
"417 676 CURVE SMOOTH",
"533 676 OFFCURVE",
"620 605 OFFCURVE",
"622 480 CURVE",
"658 480 LINE",
"670 709 LINE",
"615 709 LINE",
"617 662 LINE",
"562 695 OFFCURVE",
"485 716 OFFCURVE",
"413 716 CURVE SMOOTH",
"180 716 OFFCURVE",
"60 523 OFFCURVE",
"50 335 CURVE SMOOTH",
"38 116 OFFCURVE",
"165 -16 OFFCURVE",
"366 -16 CURVE SMOOTH"
);
},
{
closed = 1;
nodes = (
"627 791 LINE",
"446 932 LINE",
"444 932 LINE",
"248 792 LINE",
"263 765 LINE",
"433 852 LINE",
"609 763 LINE"
);
}
);
};
components = (
{
name = G;
},
{
name = circumflexcomb.case;
transform = "{1, 0, 0, 1, 203, 2}";
}
);
layerId = UUID0;
width = 753;
},
{
background = {
anchors = (
{
name = bottom;
position = "{368, 0}";
},
{
name = top;
position = "{427, 700}";
}
);
paths = (
{
closed = 1;
nodes = (
"427 -16 OFFCURVE",
"479 -1 OFFCURVE",
"525 12 CURVE SMOOTH",
"563 24 OFFCURVE",
"598 34 OFFCURVE",
"633 34 CURVE SMOOTH",
"658 34 LINE",
"666 194 LINE SMOOTH",
"670 270 OFFCURVE",
"692 279 OFFCURVE",
"737 281 CURVE",
"740 347 LINE",
"477 347 LINE",
"473 270 LINE",
"487 271 OFFCURVE",
"527 271 OFFCURVE",
"548 273 CURVE",
"545 256 OFFCURVE",
"542 219 OFFCURVE",
"540 183 CURVE SMOOTH",
"535 90 LINE",
"497 72 OFFCURVE",
"428 63 OFFCURVE",
"390 63 CURVE SMOOTH",
"253 63 OFFCURVE",
"185 188 OFFCURVE",
"194 360 CURVE SMOOTH",
"202 504 OFFCURVE",
"276 644 OFFCURVE",
"416 644 CURVE SMOOTH",
"509 643 OFFCURVE",
"580 587 OFFCURVE",
"592 476 CURVE",
"658 476 LINE",
"670 709 LINE",
"593 709 LINE",
"593 667 LINE",
"542 699 OFFCURVE",
"458 716 OFFCURVE",
"406 716 CURVE SMOOTH",
"173 716 OFFCURVE",
"48 522 OFFCURVE",
"39 340 CURVE SMOOTH",
"28 141 OFFCURVE",
"144 -16 OFFCURVE",
"361 -16 CURVE SMOOTH"
);
},
{
closed = 1;
nodes = (
"644 821 LINE",
"456 971 LINE",
"437 971 LINE",
"225 821 LINE",
"244 781 LINE",
"437 867 LINE",
"616 779 LINE"
);
}
);
};
components = (
{
name = G;
},
{
name = circumflexcomb.case;
transform = "{1, 0, 0, 1, 195, 0}";
}
);
layerId = "6B2A2AD0-3CEC-4B3D-96BE-6A11A3496094";
width = 756;
}
);
leftKerningGroup = O;
rightKerningGroup = G;
unicode = 011C;
},
{
glyphname = Gcommaaccent;
layers = (
{
background = {
anchors = (
{
name = bottom;
position = "{358, 0}";
},
{
name = top;
position = "{430, 702}";
}
);
paths = (
{
closed = 1;
nodes = (
"410 -16 OFFCURVE",
"472 -6 OFFCURVE",
"514 10 CURVE SMOOTH",
"563 29 OFFCURVE",
"601 36 OFFCURVE",
"623 36 CURVE SMOOTH",
"647 36 LINE",
"655 188 LINE SMOOTH",
"657 215 OFFCURVE",
"658 307 OFFCURVE",
"733 307 CURVE",
"735 340 LINE",
"512 340 LINE",
"510 296 LINE",
"533 297 OFFCURVE",
"557 299 OFFCURVE",
"580 300 CURVE",
"578 266 OFFCURVE",
"577 233 OFFCURVE",
"575 199 CURVE",
"569 82 LINE",
"515 47 OFFCURVE",
"448 32 OFFCURVE",
"395 32 CURVE SMOOTH",
"237 32 OFFCURVE",
"134 169 OFFCURVE",
"144 358 CURVE SMOOTH",
"154 544 OFFCURVE",
"275 676 OFFCURVE",
"417 676 CURVE SMOOTH",
"533 676 OFFCURVE",
"620 605 OFFCURVE",
"622 480 CURVE",
"658 480 LINE",
"670 709 LINE",
"615 709 LINE",
"617 662 LINE",
"562 695 OFFCURVE",
"485 716 OFFCURVE",
"413 716 CURVE SMOOTH",
"180 716 OFFCURVE",
"60 523 OFFCURVE",
"50 335 CURVE SMOOTH",
"38 116 OFFCURVE",
"165 -16 OFFCURVE",
"366 -16 CURVE SMOOTH"
);
},
{
closed = 1;
nodes = (
"327 -212 OFFCURVE",
"363 -159 OFFCURVE",
"367 -108 CURVE SMOOTH",
"369 -90 OFFCURVE",
"366 -73 OFFCURVE",
"360 -56 CURVE",
"289 -72 LINE",
"296 -128 OFFCURVE",
"301 -160 OFFCURVE",
"250 -240 CURVE",
"275 -259 LINE"
);
}
);
};
components = (
{
name = G;
},
{
name = commaaccentcomb;
transform = "{1, 0, 0, 1, 203, 0}";
}
);
layerId = UUID0;
width = 753;
},
{
background = {
anchors = (
{
name = bottom;
position = "{368, 0}";
},
{
name = top;
position = "{427, 700}";
}
);
paths = (
{
closed = 1;
nodes = (
"427 -16 OFFCURVE",
"479 -1 OFFCURVE",
"525 12 CURVE SMOOTH",
"563 24 OFFCURVE",
"598 34 OFFCURVE",
"633 34 CURVE SMOOTH",
"658 34 LINE",
"666 194 LINE SMOOTH",
"670 270 OFFCURVE",
"692 279 OFFCURVE",
"737 281 CURVE",
"740 347 LINE",
"477 347 LINE",
"473 270 LINE",
"487 271 OFFCURVE",
"527 271 OFFCURVE",
"548 273 CURVE",
"545 256 OFFCURVE",
"542 219 OFFCURVE",
"540 183 CURVE SMOOTH",
"535 90 LINE",
"497 72 OFFCURVE",
"428 63 OFFCURVE",
"390 63 CURVE SMOOTH",
"253 63 OFFCURVE",
"185 188 OFFCURVE",
"194 360 CURVE SMOOTH",
"202 504 OFFCURVE",
"276 644 OFFCURVE",
"416 644 CURVE SMOOTH",
"509 643 OFFCURVE",
"580 587 OFFCURVE",
"592 476 CURVE",
"658 476 LINE",
"670 709 LINE",
"593 709 LINE",
"593 667 LINE",
"542 699 OFFCURVE",
"458 716 OFFCURVE",
"406 716 CURVE SMOOTH",
"173 716 OFFCURVE",
"48 522 OFFCURVE",
"39 340 CURVE SMOOTH",
"28 141 OFFCURVE",
"144 -16 OFFCURVE",
"361 -16 CURVE SMOOTH"
);
},
{
closed = 1;
nodes = (
"350 -240 OFFCURVE",
"407 -167 OFFCURVE",
"410 -108 CURVE",
"412 -84 OFFCURVE",
"407 -59 OFFCURVE",
"395 -36 CURVE",
"287 -60 LINE",
"295 -129 OFFCURVE",
"294 -165 OFFCURVE",
"236 -253 CURVE",
"288 -294 LINE"
);
}
);
};
components = (
{
name = G;
},
{
name = commaaccentcomb;
transform = "{1, 0, 0, 1, 201, 0}";
}
);
layerId = "6B2A2AD0-3CEC-4B3D-96BE-6A11A3496094";
width = 756;
}
);
leftKerningGroup = O;
rightKerningGroup = G;
unicode = 0122;
},
{
glyphname = Gdotaccent;
layers = (
{
background = {
anchors = (
{
name = bottom;
position = "{358, 0}";
},
{
name = top;
position = "{441, 915}";
}
);
paths = (
{
closed = 1;
nodes = (
"410 -16 OFFCURVE",
"472 -6 OFFCURVE",
"514 10 CURVE SMOOTH",
"563 29 OFFCURVE",
"601 36 OFFCURVE",
"623 36 CURVE SMOOTH",
"647 36 LINE",
"655 188 LINE SMOOTH",
"657 215 OFFCURVE",
"658 307 OFFCURVE",
"733 307 CURVE",
"735 340 LINE",
"512 340 LINE",
"510 296 LINE",
"533 297 OFFCURVE",
"557 299 OFFCURVE",
"580 300 CURVE",
"578 266 OFFCURVE",
"577 233 OFFCURVE",
"575 199 CURVE",
"569 82 LINE",
"515 47 OFFCURVE",
"448 32 OFFCURVE",
"395 32 CURVE SMOOTH",
"237 32 OFFCURVE",
"134 169 OFFCURVE",
"144 358 CURVE SMOOTH",
"154 544 OFFCURVE",
"275 676 OFFCURVE",
"417 676 CURVE SMOOTH",
"533 676 OFFCURVE",
"620 605 OFFCURVE",
"622 480 CURVE",
"658 480 LINE",
"670 709 LINE",
"615 709 LINE",
"617 662 LINE",
"562 695 OFFCURVE",
"485 716 OFFCURVE",
"413 716 CURVE SMOOTH",
"180 716 OFFCURVE",
"60 523 OFFCURVE",
"50 335 CURVE SMOOTH",
"38 116 OFFCURVE",
"165 -16 OFFCURVE",
"366 -16 CURVE SMOOTH"
);
},
{
closed = 1;
nodes = (
"414 915 OFFCURVE",
"388 890 OFFCURVE",
"386 857 CURVE SMOOTH",
"385 824 OFFCURVE",
"407 799 OFFCURVE",
"436 799 CURVE SMOOTH",
"463 799 OFFCURVE",
"490 824 OFFCURVE",
"491 857 CURVE SMOOTH",
"493 890 OFFCURVE",
"472 915 OFFCURVE",
"443 915 CURVE SMOOTH"
);
}
);
};
components = (
{
name = G;
},
{
name = dotaccentcomb;
transform = "{1, 0, 0, 1, 339, 190}";
}
);
layerId = UUID0;
width = 753;
},
{
background = {
anchors = (
{
name = bottom;
position = "{368, 0}";
},
{
name = top;
position = "{440, 953}";
}
);
paths = (
{
closed = 1;
nodes = (
"427 -16 OFFCURVE",
"479 -1 OFFCURVE",
"525 12 CURVE SMOOTH",
"563 24 OFFCURVE",
"598 34 OFFCURVE",
"633 34 CURVE SMOOTH",
"658 34 LINE",
"666 194 LINE SMOOTH",
"670 270 OFFCURVE",
"692 279 OFFCURVE",
"737 281 CURVE",
"740 347 LINE",
"477 347 LINE",
"473 270 LINE",
"487 271 OFFCURVE",
"527 271 OFFCURVE",
"548 273 CURVE",
"545 256 OFFCURVE",
"542 219 OFFCURVE",
"540 183 CURVE SMOOTH",
"535 90 LINE",
"497 72 OFFCURVE",
"428 63 OFFCURVE",
"390 63 CURVE SMOOTH",
"253 63 OFFCURVE",
"185 188 OFFCURVE",
"194 360 CURVE SMOOTH",
"202 504 OFFCURVE",
"276 644 OFFCURVE",
"416 644 CURVE SMOOTH",
"509 643 OFFCURVE",
"580 587 OFFCURVE",
"592 476 CURVE",
"658 476 LINE",
"670 709 LINE",
"593 709 LINE",
"593 667 LINE",
"542 699 OFFCURVE",
"458 716 OFFCURVE",
"406 716 CURVE SMOOTH",
"173 716 OFFCURVE",
"48 522 OFFCURVE",
"39 340 CURVE SMOOTH",
"28 141 OFFCURVE",
"144 -16 OFFCURVE",
"361 -16 CURVE SMOOTH"
);
},
{
closed = 1;
nodes = (
"396 953 OFFCURVE",
"363 921 OFFCURVE",
"361 881 CURVE SMOOTH",
"359 842 OFFCURVE",
"385 809 OFFCURVE",
"425 809 CURVE SMOOTH",
"465 809 OFFCURVE",
"493 842 OFFCURVE",
"495 881 CURVE SMOOTH",
"497 921 OFFCURVE",
"470 953 OFFCURVE",
"432 953 CURVE SMOOTH"
);
}
);
};
components = (
{
name = G;
},
{
name = dotaccentcomb;
transform = "{1, 0, 0, 1, 314, 200}";
}
);
layerId = "6B2A2AD0-3CEC-4B3D-96BE-6A11A3496094";
width = 756;
}
);
unicode = 0120;
},
{
glyphname = Gstroke;
layers = (
{
background = {
components = (
{
name = G;
}
);
paths = (
{
closed = 1;
nodes = (
"448 228 LINE",
"446 185 LINE",
"751 189 LINE",
"753 228 LINE"
);
}
);
};
components = (
{
name = G;
}
);
layerId = "6B2A2AD0-3CEC-4B3D-96BE-6A11A3496094";
paths = (
{
closed = 1;
nodes = (
"448 228 LINE",
"446 185 LINE",
"751 189 LINE",
"753 228 LINE"
);
}
);
width = 756;
},
{
background = {
components = (
{
name = G;
}
);
paths = (
{
closed = 1;
nodes = (
"464 228 LINE",
"462 185 LINE",
"746 189 LINE",
"748 228 LINE"
);
}
);
};
components = (
{
name = G;
}
);
layerId = UUID0;
paths = (
{
closed = 1;
nodes = (
"464 228 LINE",
"462 185 LINE",
"746 189 LINE",
"748 228 LINE"
);
}
);
width = 753;
}
);
leftMetricsKey = G;
unicode = 01E4;
},
{
glyphname = H;
layers = (
{
anchors = (
{
name = bottom;
position = "{372, 0}";
},
{
name = center;
position = "{395, 351}";
},
{
name = top;
position = "{410, 702}";
}
);
background = {
anchors = (
{
name = bottom;
position = "{372, 0}";
},
{
name = center;
position = "{395, 351}";
},
{
name = top;
position = "{410, 702}";
}
);
paths = (
{
closed = 1;
nodes = (
"519 700 LINE",
"517 656 LINE",
"541 657 OFFCURVE",
"565 659 OFFCURVE",
"589 660 CURVE",
"586 640 OFFCURVE",
"583 615 OFFCURVE",
"582 588 CURVE SMOOTH",
"571 378 LINE",
"212 378 LINE",
"222 556 LINE SMOOTH",
"226 627 OFFCURVE",
"232 664 OFFCURVE",
"297 667 CURVE",
"299 700 LINE",
"78 700 LINE",
"76 656 LINE",
"100 657 OFFCURVE",
"124 659 OFFCURVE",
"148 660 CURVE",
"145 640 OFFCURVE",
"143 615 OFFCURVE",
"141 588 CURVE SMOOTH",
"118 156 LINE SMOOTH",
"114 85 OFFCURVE",
"118 36 OFFCURVE",
"43 33 CURVE",
"41 0 LINE",
"262 0 LINE",
"264 44 LINE",
"240 43 OFFCURVE",
"216 41 OFFCURVE",
"192 40 CURVE",
"195 57 OFFCURVE",
"197 83 OFFCURVE",
"199 119 CURVE SMOOTH",
"210 334 LINE",
"569 338 LINE",
"559 156 LINE",
"556 85 OFFCURVE",
"559 36 OFFCURVE",
"484 33 CURVE",
"482 0 LINE",
"703 0 LINE",
"705 44 LINE",
"681 43 OFFCURVE",
"657 41 OFFCURVE",
"633 40 CURVE",
"636 57 OFFCURVE",
"638 83 OFFCURVE",
"640 119 CURVE SMOOTH",
"663 557 LINE SMOOTH",
"667 628 OFFCURVE",
"673 664 OFFCURVE",
"738 667 CURVE",
"740 700 LINE"
);
}
);
};
layerId = UUID0;
paths = (
{
closed = 1;
nodes = (
"519 700 LINE",
"517 656 LINE",
"541 657 OFFCURVE",
"565 659 OFFCURVE",
"589 660 CURVE",
"586 640 OFFCURVE",
"583 615 OFFCURVE",
"582 588 CURVE SMOOTH",
"571 378 LINE",
"212 378 LINE",
"222 556 LINE SMOOTH",
"226 627 OFFCURVE",
"232 664 OFFCURVE",
"297 667 CURVE",
"299 700 LINE",
"78 700 LINE",
"76 656 LINE",
"100 657 OFFCURVE",
"124 659 OFFCURVE",
"148 660 CURVE",
"145 640 OFFCURVE",
"143 615 OFFCURVE",
"141 588 CURVE SMOOTH",
"118 156 LINE SMOOTH",
"114 85 OFFCURVE",
"118 36 OFFCURVE",
"43 33 CURVE",
"41 0 LINE",
"262 0 LINE",
"264 44 LINE",
"240 43 OFFCURVE",
"216 41 OFFCURVE",
"192 40 CURVE",
"195 57 OFFCURVE",
"197 83 OFFCURVE",
"199 119 CURVE SMOOTH",
"210 334 LINE",
"569 338 LINE",
"559 156 LINE",
"556 85 OFFCURVE",
"559 36 OFFCURVE",
"484 33 CURVE",
"482 0 LINE",
"703 0 LINE",
"705 44 LINE",
"681 43 OFFCURVE",
"657 41 OFFCURVE",
"633 40 CURVE",
"636 57 OFFCURVE",
"638 83 OFFCURVE",
"640 119 CURVE SMOOTH",
"663 557 LINE SMOOTH",
"667 628 OFFCURVE",
"673 664 OFFCURVE",
"738 667 CURVE",
"740 700 LINE"
);
}
);
width = 773;
},
{
anchors = (
{
name = bottom;
position = "{387, 0}";
},
{
name = center;
position = "{401, 350}";
},
{
name = top;
position = "{429, 700}";
}
);
background = {
anchors = (
{
name = bottom;
position = "{387, 0}";
},
{
name = center;
position = "{401, 350}";
},
{
name = top;
position = "{429, 700}";
}
);
paths = (
{
closed = 1;
nodes = (
"489 700 LINE",
"485 623 LINE",
"500 624 OFFCURVE",
"539 625 OFFCURVE",
"561 626 CURVE",
"557 609 OFFCURVE",
"554 572 OFFCURVE",
"552 536 CURVE SMOOTH",
"544 391 LINE",
"269 391 LINE",
"277 547 LINE SMOOTH",
"281 628 OFFCURVE",
"308 632 OFFCURVE",
"353 634 CURVE",
"356 700 LINE",
"72 700 LINE",
"68 623 LINE",
"82 624 OFFCURVE",
"122 625 OFFCURVE",
"143 626 CURVE",
"140 609 OFFCURVE",
"136 572 OFFCURVE",
"134 536 CURVE SMOOTH",
"114 153 LINE SMOOTH",
"110 72 OFFCURVE",
"83 68 OFFCURVE",
"39 66 CURVE",
"35 0 LINE",
"320 0 LINE",
"324 77 LINE",
"310 77 OFFCURVE",
"270 76 OFFCURVE",
"249 74 CURVE",
"252 91 OFFCURVE",
"255 128 OFFCURVE",
"257 164 CURVE SMOOTH",
"265 312 LINE",
"541 315 LINE",
"532 153 LINE SMOOTH",
"528 72 OFFCURVE",
"501 68 OFFCURVE",
"456 66 CURVE",
"453 0 LINE",
"737 0 LINE",
"741 77 LINE",
"727 77 OFFCURVE",
"688 76 OFFCURVE",
"666 74 CURVE",
"669 91 OFFCURVE",
"673 128 OFFCURVE",
"675 164 CURVE SMOOTH",
"695 547 LINE SMOOTH",
"699 628 OFFCURVE",
"726 632 OFFCURVE",
"771 634 CURVE",
"774 700 LINE"
);
}
);
};
layerId = "6B2A2AD0-3CEC-4B3D-96BE-6A11A3496094";
paths = (
{
closed = 1;
nodes = (
"489 700 LINE",
"485 623 LINE",
"500 624 OFFCURVE",
"539 625 OFFCURVE",
"561 626 CURVE",
"557 609 OFFCURVE",
"554 572 OFFCURVE",
"552 536 CURVE SMOOTH",
"544 391 LINE",
"269 391 LINE",
"277 547 LINE SMOOTH",
"281 628 OFFCURVE",
"308 632 OFFCURVE",
"353 634 CURVE",
"356 700 LINE",
"72 700 LINE",
"68 623 LINE",
"82 624 OFFCURVE",
"122 625 OFFCURVE",
"143 626 CURVE",
"140 609 OFFCURVE",
"136 572 OFFCURVE",
"134 536 CURVE SMOOTH",
"114 153 LINE SMOOTH",
"110 72 OFFCURVE",
"83 68 OFFCURVE",
"39 66 CURVE",
"35 0 LINE",
"320 0 LINE",
"324 77 LINE",
"310 77 OFFCURVE",
"270 76 OFFCURVE",
"249 74 CURVE",
"252 91 OFFCURVE",
"255 128 OFFCURVE",
"257 164 CURVE SMOOTH",
"265 312 LINE",
"541 315 LINE",
"532 153 LINE SMOOTH",
"528 72 OFFCURVE",
"501 68 OFFCURVE",
"456 66 CURVE",
"453 0 LINE",
"737 0 LINE",
"741 77 LINE",
"727 77 OFFCURVE",
"688 76 OFFCURVE",
"666 74 CURVE",
"669 91 OFFCURVE",
"673 128 OFFCURVE",
"675 164 CURVE SMOOTH",
"695 547 LINE SMOOTH",
"699 628 OFFCURVE",
"726 632 OFFCURVE",
"771 634 CURVE",
"774 700 LINE"
);
}
);
width = 802;
}
);
leftKerningGroup = I;
rightKerningGroup = I;
unicode = 0048;
},
